<svg width="80" height="45" viewBox="0 0 80 45" fill="none" xmlns="http://www.w3.org/2000/svg">
<g opacity="0.3">
<path d="M70.0347 18.0272V47.8392C70.0347 49.6648 69.4672 51.552 68.3322 53.5007C67.2039 55.4563 65.8433 56.8853 64.257 57.8016L55.5937 62.8067C54.7732 63.2785 54.0963 63.3537 53.5424 63.0392C52.9817 62.7247 52.7083 62.0956 52.7083 61.1588V44.5913C52.7083 43.6546 52.4279 43.0255 51.874 42.711C51.3202 42.3965 50.6364 42.4717 49.8228 42.9435L44.045 46.2802C43.2314 46.752 42.5408 47.47 41.9869 48.4204C41.4331 49.3777 41.1595 50.3212 41.1595 51.258V67.8187C41.1595 68.7622 40.886 69.7126 40.3322 70.6631C39.7783 71.6203 39.0878 72.3314 38.2741 72.8032L29.6108 77.8015C28.0997 78.6767 26.7937 78.8477 25.6928 78.2938L25.5288 78.2118C24.4074 77.569 23.8398 76.3314 23.8398 74.5126V44.6939C23.8398 43.6477 24.045 42.54 24.4484 41.3571C24.8586 40.1879 25.4262 39.0802 26.151 38.0614L43.4706 13.152C44.4757 11.6888 45.6314 10.5811 46.9373 9.82893C48.2297 9.0768 49.3851 8.85115 50.3971 9.15201L56.3527 10.8409L58.3151 11.3947L67.7237 14.0614C67.8057 14.0819 67.8878 14.1093 67.963 14.1366L68.5099 14.4101H68.5237C68.8792 14.6494 69.1732 14.9845 69.4194 15.3947C69.8297 16.1059 70.0347 16.9811 70.0347 18.0272Z" fill="#DF4E4E" fill-opacity="0.2" stroke="#DF4E4E" stroke-width="0.410256" stroke-linecap="round" stroke-linejoin="round"/>
<path d="M54.875 7.59302L54.834 7.57251H54.8477C54.8477 7.57251 54.8682 7.58618 54.875 7.59302Z" fill="#DF4E4E" stroke="#DF4E4E" stroke-width="0.410256" stroke-linecap="round" stroke-linejoin="round"/>
<path d="M67.9624 14.1366C67.8872 14.1092 67.8051 14.0819 67.7231 14.0614L58.3145 11.3947L56.3521 10.8409L50.3965 9.15196C49.3846 8.85111 48.2291 9.07675 46.9368 9.82889C45.6308 10.581 44.4752 11.6887 43.47 13.152L26.1504 38.0614C25.4256 39.0802 24.8581 40.1879 24.4478 41.3571C24.0444 42.54 23.8393 43.6477 23.8393 44.6938V74.5126C23.8393 76.3314 24.4069 77.569 25.5282 78.2117L11.853 71.3741C10.7316 70.7314 10.1641 69.4938 10.1641 67.675V37.8562C10.1641 36.8101 10.3692 35.7024 10.7726 34.5195C11.1829 33.3503 11.7504 32.2426 12.4752 31.2238L29.7948 6.31436C30.7999 4.85111 31.9556 3.74342 33.2616 2.99129C34.5539 2.23915 35.7093 2.01351 36.7213 2.31436L44.6393 4.5571L54.0479 7.22376C54.1299 7.24427 54.212 7.27162 54.2872 7.29897L54.8341 7.57248L54.8752 7.59299L67.9624 14.1366Z" stroke="#DF4E4E" stroke-width="0.410256" stroke-linecap="round" stroke-linejoin="round"/>
<path d="M53.5431 63.0392L41.1602 56.8512V51.2581C41.1602 50.3213 41.4337 49.3777 41.9875 48.4204C42.5414 47.47 43.2319 46.7521 44.0456 46.2803L49.8234 42.9435C50.6371 42.4717 51.3208 42.3965 51.8747 42.711C52.4285 43.0256 52.7089 43.6546 52.7089 44.5914V61.1589C52.7089 62.0957 52.9824 62.7247 53.5431 63.0392Z" stroke="#DF4E4E" stroke-width="0.410256" stroke-linecap="round" stroke-linejoin="round"/>
</g>
</svg>
