<svg width="80" height="48" viewBox="0 0 80 48" fill="none" xmlns="http://www.w3.org/2000/svg">
<g opacity="0.3">
<path d="M78.0454 23.7584C78.0454 24.5821 77.7751 25.4509 77.241 26.3775L70.2652 38.4114C69.7697 39.2609 69.1455 39.9044 68.3861 40.342C67.6268 40.786 66.9961 40.8633 66.507 40.5801C66.018 40.3034 65.767 39.7242 65.767 38.8555C65.767 37.9867 66.018 37.1179 66.507 36.2685L68.9203 32.1049L59.9366 37.2916L54.28 40.5608L53.4691 41.0306L52.2851 41.7126C51.5258 42.1502 50.8887 42.2211 50.3739 41.9315C49.9877 41.7127 49.7496 41.333 49.6467 40.7925C49.6209 40.6123 49.6016 40.4063 49.6016 40.1811C49.6016 39.3059 49.859 38.4307 50.3739 37.5426C50.8887 36.6545 51.5258 35.9918 52.2851 35.5542L54.2221 34.4345L54.4667 34.2929L56.5645 33.0831L68.9203 25.9463L66.507 24.5692C66.018 24.2925 65.767 23.7134 65.767 22.8446C65.767 21.9758 66.018 21.1071 66.507 20.2576C66.9961 19.4146 67.6268 18.7647 68.3861 18.3271C69.0747 17.9345 69.6474 17.8316 70.1172 18.0182L70.2652 18.089L77.241 22.0659C77.7751 22.3748 78.0454 22.9411 78.0454 23.7584Z" fill="#DF4E4E" fill-opacity="0.2" stroke="white" stroke-width="0.643523" stroke-linecap="round" stroke-linejoin="round"/>
<path d="M66.3809 47.8986C66.3809 48.7159 66.0913 49.5524 65.5121 50.4019C63.678 53.1047 61.6381 55.563 59.405 57.7767C57.1656 59.9904 54.7974 61.818 52.2941 63.266C46.348 66.7024 41.2834 67.2236 37.1005 64.8426C35.0155 63.6521 33.4452 61.9146 32.4027 59.6172C31.5469 57.7381 31.0385 55.4858 30.884 52.8602C30.8454 52.2682 30.8262 51.6568 30.8262 51.0262C30.8262 44.2048 32.9176 37.1839 37.1005 29.97C41.2834 22.7561 46.348 17.4342 52.2941 13.9978C52.9505 13.6181 53.6005 13.2771 54.2375 12.9746C55.3573 12.4405 56.4448 12.0221 57.5066 11.7133H57.5195C58.1566 11.5266 58.7873 11.3851 59.405 11.2822C61.6381 10.9154 63.678 11.0248 65.5121 11.6039C66.0913 11.7841 66.3809 12.2796 66.3809 13.1033C66.3809 13.927 66.1106 14.7958 65.5765 15.7225C65.5765 15.7289 65.57 15.7288 65.57 15.7353C65.4092 16.0056 65.2419 16.2566 65.0552 16.4883C64.6756 16.9838 64.2315 17.3892 63.7295 17.711C62.9959 18.1872 62.3137 18.3545 61.683 18.2C60.3445 17.8461 58.8773 17.8332 57.2943 18.1614C56.522 18.3158 55.7369 18.5539 54.9325 18.8692C54.0702 19.2103 53.195 19.6415 52.2941 20.1563C49.9195 21.5334 47.7315 23.3031 45.7366 25.4718C43.9669 27.383 42.3581 29.6033 40.8909 32.1323C40.2538 33.2263 39.6811 34.3203 39.1791 35.4078C39.0568 35.6588 38.9409 35.9034 38.8315 36.1543C37.0747 40.157 36.1931 44.0825 36.1931 47.9308C36.1931 49.4431 36.3283 50.8202 36.605 52.0429C37.0619 54.1022 37.9113 55.7496 39.1533 56.9852C39.6617 57.5 40.2409 57.9375 40.8909 58.3043C44.0184 60.0869 47.8216 59.688 52.2941 57.1074C54.0381 56.1035 55.7048 54.8422 57.2943 53.3364C58.8773 51.8306 60.3445 50.1252 61.683 48.2204C62.3137 47.3452 62.9959 46.721 63.7295 46.3477C64.3924 46.0131 64.9523 45.9423 65.4156 46.1289L65.5765 46.2062C66.1106 46.5151 66.3809 47.0749 66.3809 47.8986Z" fill="#DF4E4E" fill-opacity="0.2" stroke="white" stroke-width="0.643523" stroke-linecap="round" stroke-linejoin="round"/>
<path d="M29.8821 71.888C29.6183 72.8661 29.1485 73.7284 28.4728 74.4749C27.8035 75.2214 27.1535 75.5689 26.5293 75.5239C24.8368 75.5046 23.2924 75.1828 21.9089 74.5521L21.7737 74.4878L21.2202 74.2111L21.1881 74.1918C20.0105 73.5482 18.955 72.6666 18.009 71.5469C17.1081 70.4722 16.3874 69.2045 15.8597 67.7372C15.2677 66.1092 14.9008 64.243 14.7721 62.1323C14.7399 61.5467 14.7207 60.9481 14.7207 60.3239C14.7207 55.4975 15.7825 50.5488 17.9061 45.4714C17.9254 45.4264 17.9448 45.3877 17.9641 45.3427C19.6758 41.2949 21.7994 37.5689 24.3542 34.1775C24.9655 33.3603 25.6027 32.5688 26.2591 31.7966C26.8897 31.0243 27.5461 30.606 28.2411 30.5416C28.5371 30.5095 28.7945 30.5481 29.0197 30.6446L29.1356 30.7025C29.393 30.8505 29.5925 31.0823 29.7469 31.404C30.0622 31.9382 30.0815 32.6717 29.8177 33.5919C29.5474 34.5186 29.1034 35.3681 28.4728 36.1404C26.4843 38.4957 24.8047 41.0761 23.4533 43.8948C23.0608 44.6863 22.7068 45.4907 22.3722 46.3208C21.2396 49.133 20.5253 51.8616 20.2357 54.5129C20.1392 55.4267 20.0876 56.3277 20.0876 57.2222C20.0876 60.6586 20.8277 63.3871 22.3078 65.4013C22.3271 65.4335 22.3529 65.4593 22.3722 65.4915C23.8909 67.512 25.9244 68.5545 28.4728 68.6253C28.6787 68.6382 28.8653 68.6832 29.0326 68.7604L29.0969 68.7926C29.4187 68.9535 29.6697 69.2238 29.8499 69.6034C30.1395 70.2019 30.1524 70.9677 29.8821 71.888Z" fill="#DF4E4E" fill-opacity="0.2" stroke="white" stroke-width="0.643523" stroke-linecap="round" stroke-linejoin="round"/>
<path d="M68.9278 25.9489L56.5721 33.0856L54.4742 34.2955L54.2297 34.437L52.2926 35.5567C51.5333 35.9943 50.8962 36.6571 50.3814 37.5452C49.8666 38.4333 49.6091 39.3085 49.6091 40.1837C49.6091 40.4089 49.6285 40.6148 49.6542 40.795C49.7572 41.3355 49.9953 41.7153 50.3814 41.9341L49.1651 41.3291L38.8301 36.1552C38.9395 35.9043 39.0554 35.6597 39.1776 35.4087C39.6796 34.3211 40.2523 33.2272 40.8894 32.1332C42.3566 29.6042 43.9655 27.384 45.7351 25.4727L56.0572 19.5137L62.7049 22.8343L68.9278 25.9489Z" stroke="#DF4E4E" stroke-width="0.643523" stroke-linecap="round" stroke-linejoin="round"/>
<path d="M65.5122 11.6028C63.6781 11.0236 61.6381 10.9142 59.4051 11.2811C58.7873 11.384 58.1566 11.5255 57.5195 11.7121L57.4037 11.6543L57.5066 11.7121C56.4448 12.021 55.3573 12.4394 54.2376 12.9735C53.6005 13.276 52.9505 13.617 52.2941 13.9967C46.348 17.4331 41.2834 22.755 37.1005 29.9689C32.9176 37.1828 30.8262 44.2037 30.8262 51.025C30.8262 51.6557 30.8454 52.267 30.884 52.8591C31.0385 55.4847 31.5469 57.737 32.4028 59.6161C33.4453 61.9135 35.0155 63.651 37.1005 64.8415L24.2301 58.4062C22.5698 57.4538 21.2377 56.1603 20.2402 54.5129C20.5298 51.8616 21.2441 49.1331 22.3767 46.3209C22.7114 45.4907 23.0653 44.6863 23.4579 43.8947C24.8092 41.0761 26.4888 38.4956 28.4773 36.1403C29.108 35.3681 29.552 34.5186 29.8222 33.5919C30.0861 32.6717 30.0668 31.9381 29.7514 31.404C29.597 31.0823 29.3976 30.8505 29.1402 30.7025L29.0243 30.6447L26.1864 29.2289L22.2544 27.2597C22.8464 26.0242 23.5029 24.7821 24.2301 23.5337C28.413 16.3198 33.4775 10.9979 39.4237 7.56147C41.927 6.11998 44.2951 5.21263 46.5346 4.84582C48.7676 4.47901 50.8076 4.58841 52.6416 5.16758L53.0213 5.36059L65.5122 11.6028Z" stroke="#DF4E4E" stroke-width="0.643523" stroke-linecap="round" stroke-linejoin="round"/>
<path d="M66.5132 20.2577C66.0242 21.1072 65.7732 21.9695 65.7732 22.8447C65.7732 23.7199 66.0242 24.2927 66.5132 24.5694L68.9264 25.9464L62.7035 22.8318L56.0559 19.5112L54.9297 18.8677C55.7341 18.5523 56.5193 18.3143 57.2915 18.1599C58.8745 17.8317 60.3417 17.8445 61.6802 18.1985C62.3109 18.3529 62.9931 18.1856 63.7267 17.7094C64.2287 17.3876 64.6728 16.9822 65.0524 16.4867C65.2391 16.255 65.4064 16.004 65.5673 15.7337L70.1234 18.0183C69.6536 17.8317 69.0809 17.9346 68.3923 18.3272C67.633 18.7648 67.0023 19.4147 66.5132 20.2577Z" stroke="#DF4E4E" stroke-width="0.643523" stroke-linecap="round" stroke-linejoin="round"/>
<path d="M66.5157 36.2672C66.0267 37.1166 65.7757 37.979 65.7757 38.8542C65.7757 39.7294 66.0267 40.3021 66.5157 40.5788L59.9453 37.2904L68.929 32.1036L66.5157 36.2672Z" stroke="#DF4E4E" stroke-width="0.643523" stroke-linecap="round" stroke-linejoin="round"/>
<path d="M65.4141 46.1291C64.9508 45.9425 64.3909 46.0132 63.728 46.3478C62.9944 46.7211 62.3122 47.3454 61.6815 48.2205C60.343 50.1254 58.8759 51.8307 57.2928 53.3365C55.7033 54.8423 54.0366 56.1036 52.2926 57.1075C47.8201 59.6881 44.0169 60.0871 40.8894 58.3045C40.2394 57.9377 39.6602 57.5001 39.1518 56.9853C37.9098 55.7497 37.0604 54.1023 36.6035 52.043C37.5109 51.6891 38.4504 51.2322 39.4221 50.6723C41.1661 49.6684 42.8328 48.4071 44.4223 46.9013C46.0054 45.3954 47.4726 43.6901 48.8111 41.7853C48.9269 41.6244 49.0428 41.4699 49.1651 41.3284L50.3813 41.9333C50.8962 42.2229 51.5333 42.152 52.2926 41.7144L53.4766 41.0323L54.2875 40.5626L65.4141 46.1291Z" stroke="#DF4E4E" stroke-width="0.643523" stroke-linecap="round" stroke-linejoin="round"/>
<path d="M29.023 30.6449C28.7978 30.5483 28.5404 30.5097 28.2444 30.5419C27.5494 30.6063 26.893 31.0246 26.2624 31.7968C25.606 32.5691 24.9688 33.3605 24.3575 34.1778C21.8027 37.5692 19.6791 41.2952 17.9674 45.3429C17.9481 45.388 17.9287 45.4267 17.9094 45.4717C15.7858 50.5491 14.724 55.4977 14.724 60.3242C14.724 60.9484 14.7432 61.5469 14.7754 62.1325C14.9041 64.2433 15.271 66.1095 15.863 67.7377C16.3907 69.2049 17.1114 70.4726 18.0123 71.5473C18.9583 72.6671 20.0138 73.5487 21.1914 74.1922L8.6234 67.9243C8.6234 67.9243 8.57836 67.8985 8.55905 67.8921C8.34669 67.7827 8.1407 67.6669 7.93477 67.5382C6.91157 66.9203 5.97849 66.1095 5.14191 65.112C2.95393 62.5058 1.85352 58.7604 1.85352 53.8889C1.85352 49.0175 2.9153 44.1139 5.03892 39.0365C7.16898 33.9655 9.94906 29.4029 13.3919 25.3616C14.0226 24.5894 14.679 24.171 15.374 24.1067C15.7022 24.0745 15.9852 24.1196 16.2233 24.2483L16.3457 24.3127L22.2532 27.2599L26.1852 29.2292L29.023 30.6449Z" stroke="#DF4E4E" stroke-width="0.643523" stroke-linecap="round" stroke-linejoin="round"/>
</g>
</svg>
