<svg width="80" height="45" viewBox="0 0 80 45" fill="none" xmlns="http://www.w3.org/2000/svg">
<g opacity="0.3">
<path d="M30.0485 42.7511L30.476 42.9718L34.4002 44.9304L36.8691 43.5097L31.6278 40.889C31.1933 41.1925 30.8071 41.5856 30.476 42.0614C30.3657 42.2063 30.2691 42.358 30.1726 42.5235C30.1312 42.5994 30.0829 42.6752 30.0485 42.7511Z" stroke="#DF4E4E" stroke-width="0.413793" stroke-linecap="round" stroke-linejoin="round"/>
<path d="M22.2909 38.8752C22.4495 38.1649 22.7116 37.4477 23.0771 36.7097C23.084 36.689 23.0978 36.6614 23.1185 36.6339C23.2357 36.3856 23.3667 36.1373 23.5116 35.889C24.4771 34.227 25.6357 32.9994 26.9943 32.2132L28.008 31.627L30.4771 30.2063L42.815 23.0821L45.284 21.6546L50.2219 18.8063L57.6287 14.5304L66.484 9.42007C67.7046 8.71662 68.7598 8.55111 69.6633 8.91662L69.9667 9.06835C70.9322 9.62007 71.4219 10.6752 71.4219 12.2339V46.2132C71.4219 47.7718 70.9322 49.3856 69.9667 51.0546C69.0012 52.7166 67.8426 53.9443 66.484 54.7305L26.9943 77.5237C25.6357 78.3099 24.4771 78.4271 23.5116 77.8754C22.546 77.3237 22.0632 76.2685 22.0632 74.7099V40.7304C22.0632 40.1235 22.1392 39.5028 22.2909 38.8752ZM59.0771 44.8408C59.0771 45.6477 59.3185 46.1857 59.7874 46.4546C60.2633 46.7236 60.8494 46.6546 61.546 46.2477C62.2494 45.8477 62.8356 45.2408 63.3046 44.4201C63.7805 43.6063 64.015 42.7994 64.015 41.9926V24.9994C64.015 24.1994 63.7805 23.6615 63.3046 23.3926C62.8356 23.1236 62.2494 23.1925 61.546 23.5925C60.8494 23.9994 60.2633 24.6063 59.7874 25.427C59.3185 26.2408 59.0771 27.0477 59.0771 27.8546V44.8408ZM44.2702 53.3926C44.2702 54.1926 44.5116 54.7304 44.9805 54.9994C45.4564 55.2683 46.0426 55.2063 46.7391 54.7994L54.146 50.5235C54.8426 50.1235 55.4287 49.5098 55.9046 48.696C56.3736 47.8822 56.6081 47.0683 56.6081 46.2683V29.2753C56.6081 28.4753 56.3736 27.9373 55.9046 27.6683C55.4287 27.3994 54.8426 27.4683 54.146 27.8683L50.2219 30.1304L46.7391 32.1443C46.6357 32.2063 46.5323 32.2684 46.4357 32.3374C46.0012 32.6408 45.615 33.0339 45.284 33.5097C45.1736 33.6546 45.0771 33.8063 44.9805 33.9718C44.9391 34.0477 44.8908 34.1235 44.8563 34.2063C44.4701 34.9442 44.2702 35.6752 44.2702 36.3994V53.3926ZM29.4633 61.9442C29.4633 62.7442 29.6977 63.2821 30.1736 63.5511C30.6494 63.8201 31.2356 63.7512 31.9322 63.3512L39.3391 59.0752C40.0356 58.6683 40.6219 58.0615 41.0909 57.2477C41.5667 56.427 41.8011 55.6201 41.8011 54.8201V37.827C41.8011 37.027 41.5667 36.489 41.0909 36.2201C40.6219 35.9511 40.0356 36.0132 39.3391 36.4201L37.8839 37.2614L35.4149 38.6821L31.9322 40.6959C31.8287 40.758 31.7253 40.8201 31.6287 40.889C31.1943 41.1925 30.8081 41.5856 30.4771 42.0614C30.3667 42.2063 30.2701 42.358 30.1736 42.5235C30.1322 42.5994 30.084 42.6752 30.0495 42.7511C29.6564 43.489 29.4633 44.227 29.4633 44.9511V61.9442Z" fill="#DF4E4E" fill-opacity="0.2" stroke="#DF4E4E" stroke-width="0.413793" stroke-linecap="round" stroke-linejoin="round"/>
<path d="M59.0757 27.8546V44.8408C59.0757 45.6477 59.3171 46.1856 59.7861 46.4546C60.2619 46.7235 60.8482 46.6546 61.5447 46.2477C62.2482 45.8477 62.8344 45.2408 63.3033 44.4201C63.7792 43.6063 64.0137 42.7994 64.0137 41.9925V24.9994C64.0137 24.1994 63.7792 23.6615 63.3033 23.3925C62.8344 23.1235 62.2482 23.1925 61.5447 23.5925C60.8482 23.9994 60.2619 24.6063 59.7861 25.427C59.3171 26.2408 59.0757 27.0477 59.0757 27.8546Z" stroke="#DF4E4E" stroke-width="0.413793" stroke-linecap="round" stroke-linejoin="round"/>
<path d="M44.2695 45.2408V53.3926C44.2695 54.1926 44.5109 54.7304 44.9798 54.9994C45.4557 55.2684 46.0419 55.2063 46.7385 54.7994L54.1454 50.5236C54.8419 50.1236 55.4281 49.5098 55.904 48.696C56.3729 47.8822 56.6074 47.0684 56.6074 46.2684V29.2753C56.6074 28.4753 56.3729 27.9373 55.904 27.6684C55.4281 27.3994 54.8419 27.4684 54.1454 27.8684L50.2212 30.1304L46.7385 32.1443C46.635 32.2064 46.5316 32.2684 46.435 32.3374L50.2212 34.2339L51.6764 34.958V46.289L49.2074 47.7097L44.2695 45.2408Z" stroke="#DF4E4E" stroke-width="0.413793" stroke-linecap="round" stroke-linejoin="round"/>
<path d="M44.855 34.2063L45.2827 34.4271L49.2067 36.3856L50.1516 35.8408L51.6758 34.958L50.2206 34.234L46.4344 32.3374C45.9999 32.6409 45.6137 33.0339 45.2827 33.5097C45.1723 33.6546 45.0758 33.8063 44.9792 33.9718C44.9378 34.0477 44.8895 34.1235 44.855 34.2063Z" stroke="#DF4E4E" stroke-width="0.413793" stroke-linecap="round" stroke-linejoin="round"/>
<path d="M49.2067 36.3856V47.7097L51.6758 46.289V34.958L50.1516 35.8408L49.2067 36.3856Z" stroke="#DF4E4E" stroke-width="0.413793" stroke-linecap="round" stroke-linejoin="round"/>
<path d="M34.4002 44.9304V56.2615L36.8691 54.8338V43.5097L34.4002 44.9304Z" stroke="#DF4E4E" stroke-width="0.413793" stroke-linecap="round" stroke-linejoin="round"/>
<path d="M29.4629 53.7925V61.9442C29.4629 62.7442 29.6973 63.2821 30.1732 63.5511C30.6491 63.8201 31.2353 63.7512 31.9318 63.3512L39.3386 59.0752C40.0352 58.6683 40.6215 58.0614 41.0904 57.2476C41.5663 56.427 41.8008 55.6201 41.8008 54.8201V37.827C41.8008 37.027 41.5663 36.489 41.0904 36.2201C40.6215 35.9511 40.0352 36.0132 39.3386 36.4201L37.8835 37.2614L35.4145 38.6821L31.9318 40.6959C31.8284 40.758 31.7249 40.8201 31.6284 40.889L36.8697 43.5097V54.8339L34.4008 56.2615L29.4629 53.7925Z" stroke="#DF4E4E" stroke-width="0.413793" stroke-linecap="round" stroke-linejoin="round"/>
<path d="M8.26898 33.8339V67.8133C8.26898 69.3719 8.7518 70.4271 9.71732 70.9788L10.0208 71.1306L23.5104 77.8754C22.5449 77.3237 22.0621 76.2685 22.0621 74.7099V40.7304C22.0621 40.1235 22.1379 39.5028 22.2897 38.8753C22.4483 38.1649 22.7104 37.4477 23.0759 36.7097V36.6132L23.1173 36.6339C23.2346 36.3856 23.3656 36.1373 23.5104 35.8891C24.4759 34.227 25.6345 32.9994 26.9931 32.2132L28.0069 31.6271L30.4759 30.2063L42.8138 23.0822L45.2828 21.6546L50.2207 18.8063L57.6276 14.5304L66.4828 9.42009C67.7035 8.71664 68.7587 8.55113 69.6621 8.91664L56.1724 2.17184C55.2069 1.62011 54.0484 1.73736 52.6897 2.52357L13.2 25.3166C11.8414 26.1028 10.6828 27.3304 9.71732 28.9925C8.7518 30.6615 8.26898 32.2753 8.26898 33.8339Z" stroke="#DF4E4E" stroke-width="0.413793" stroke-linecap="round" stroke-linejoin="round"/>
<path d="M29.4625 44.9511V53.7925L34.4004 56.2615V44.9304L30.4763 42.9718L30.0487 42.7511C29.6556 43.489 29.4625 44.227 29.4625 44.9511Z" stroke="#DF4E4E" stroke-width="0.413793" stroke-linecap="round" stroke-linejoin="round"/>
<path d="M44.2691 36.3994V45.2408L49.207 47.7097V36.3856L45.2829 34.4271L44.8553 34.2063C44.4691 34.9442 44.2691 35.6753 44.2691 36.3994Z" stroke="#DF4E4E" stroke-width="0.413793" stroke-linecap="round" stroke-linejoin="round"/>
</g>
</svg>
