<svg width="80" height="45" viewBox="0 0 80 45" fill="none" xmlns="http://www.w3.org/2000/svg">
<g opacity="0.3">
<path d="M52.6348 40.0822C52.6348 40.0822 52.6278 40.1029 52.6209 40.1098C51.6899 39.8063 50.414 39.7856 48.7864 40.0477C48.7451 40.0477 48.7037 40.0546 48.6623 40.0615C46.5106 40.4753 45.0278 40.6132 44.2071 40.4753C43.3796 40.3374 42.9727 39.7305 42.9727 38.6615C42.9727 37.5925 43.2761 36.6546 43.8761 35.7029L49.4486 38.4891L52.6348 40.0822Z" stroke="#DF4E4E" stroke-width="0.413793" stroke-linecap="round" stroke-linejoin="round"/>
<path d="M44.9041 30.2752C43.4351 31.4614 42.2282 32.8407 41.2834 34.4062C41.1179 34.6683 40.9662 34.9304 40.8213 35.2062C40.7938 35.2545 40.7662 35.3097 40.7386 35.358C39.7179 37.3235 39.2145 39.1511 39.2145 40.8338C39.2145 42.0545 39.4145 43.02 39.8076 43.7166C40.0351 44.1166 40.3317 44.4338 40.6903 44.6614L39.5869 44.1097L36.9317 42.7856L30.918 39.7718C31.1593 39.2269 31.4213 38.6821 31.7041 38.1373C32.3041 36.9304 32.98 35.7304 33.711 34.5235C33.98 34.0821 34.2489 33.6476 34.5317 33.2269C35.9386 31.0545 37.4558 29.1028 39.0834 27.3649L44.9041 30.2752Z" stroke="#DF4E4E" stroke-width="0.413793" stroke-linecap="round" stroke-linejoin="round"/>
<path d="M55.1043 44.8409C55.1043 46.034 54.9249 47.1857 54.5663 48.2961C54.2076 49.4064 53.7318 50.4478 53.1456 51.4271C52.5525 52.3995 51.8628 53.3168 51.0766 54.1582C50.2904 55.0064 49.4491 55.7857 48.5525 56.5099V57.434C48.5525 58.0064 48.3663 58.6202 47.987 59.2685C47.6146 59.9168 47.1732 60.3857 46.6766 60.6754C46.1732 60.9651 45.7319 60.9995 45.3594 60.7857C44.9801 60.5719 44.7939 60.1788 44.7939 59.6064V58.5582C43.4353 59.0133 42.2698 59.0685 41.3043 58.7237C41.1801 58.6823 41.0628 58.634 40.9525 58.5788C40.8076 58.5099 40.6766 58.4271 40.5387 58.3444L40.5111 58.3237C40.4076 58.2616 40.3042 58.1857 40.2007 58.103C39.7318 57.7306 39.3249 57.2271 38.9939 56.6064C38.7801 56.1513 38.7939 55.5926 39.0215 54.9237C39.256 54.2547 39.6214 53.6754 40.1249 53.1788C40.587 52.7099 41.056 52.4478 41.5181 52.4064C41.7112 52.3857 41.8973 52.4064 42.049 52.4547H42.0767C42.2836 52.5375 42.456 52.6685 42.5939 52.8616C42.987 53.4685 43.4559 53.8616 44.0008 54.034C44.1594 54.0892 44.325 54.1237 44.4974 54.1375C45.2698 54.2064 46.118 53.972 47.049 53.434C48.2283 52.7513 49.2421 51.8478 50.0835 50.7306C50.9249 49.6064 51.3456 48.365 51.3456 47.0133C51.3456 45.9168 50.9732 45.234 50.2353 44.9513C50.1732 44.9168 50.1042 44.8961 50.0283 44.8754C49.2697 44.6754 47.9939 44.6892 46.2076 44.9375C45.9249 44.9719 45.6352 45.0133 45.3318 45.0616C43.2214 45.4202 41.6697 45.2823 40.6904 44.6616C40.3318 44.434 40.0352 44.1168 39.8076 43.7168C39.4145 43.0202 39.2145 42.0547 39.2145 40.834C39.2145 39.1513 39.7181 37.3237 40.7388 35.3582C40.7663 35.3099 40.7939 35.2547 40.8214 35.2064C40.9663 34.9306 41.118 34.6685 41.2835 34.4064C42.2283 32.8409 43.4352 31.4616 44.9042 30.2754V29.3513C44.9042 28.7788 45.0904 28.1651 45.4697 27.5168C45.8421 26.8685 46.2836 26.3995 46.7801 26.1099C47.2284 25.8478 47.6283 25.7926 47.9732 25.9375L48.0973 25.9995C48.4766 26.2133 48.6628 26.6064 48.6628 27.1788V28.103C49.6973 27.5857 50.6559 27.434 51.5318 27.6478C51.7387 27.6961 51.9387 27.7651 52.1319 27.8409L52.3249 27.9375C52.849 28.1857 53.2904 28.5513 53.6559 29.0409C53.9042 29.3513 53.9249 29.8202 53.7111 30.4616C53.4904 31.0961 53.1388 31.6616 52.6353 32.1582C52.1732 32.6271 51.7111 32.9168 51.249 33.0202C51.249 33.0202 51.2445 33.0226 51.2352 33.0271C50.9594 33.0892 50.7111 33.0823 50.5042 33.0064L50.2767 32.8892C50.2146 32.8478 50.1594 32.8064 50.1111 32.7513C49.8628 32.5513 49.5732 32.4202 49.2353 32.3719H49.2283C49.0835 32.3375 48.9319 32.3237 48.7663 32.3237C48.2284 32.3306 47.587 32.5444 46.8352 32.9788C45.5801 33.703 44.6283 34.5651 43.9663 35.5651C43.9387 35.6133 43.9042 35.6547 43.8766 35.703C43.2766 36.6547 42.9732 37.6409 42.9732 38.6616C42.9732 39.6823 43.3801 40.3375 44.2076 40.4754C45.0283 40.6133 46.5111 40.4754 48.6628 40.0616C48.7042 40.0616 48.7456 40.0478 48.787 40.0478C50.4145 39.7857 51.6904 39.8064 52.6214 40.1099C52.7318 40.1444 52.8353 40.1857 52.9388 40.234C53.2905 40.3857 53.587 40.5857 53.8145 40.8409C54.6766 41.7857 55.1043 43.1168 55.1043 44.8409Z" fill="#DF4E4E" fill-opacity="0.2" stroke="#DF4E4E" stroke-width="0.413793" stroke-linecap="round" stroke-linejoin="round"/>
<path d="M70.2966 31.9994C70.0483 35.6408 69.2621 39.3443 67.938 43.1305C66.6139 46.9167 64.8965 50.5374 62.7793 53.9925C60.669 57.4546 58.2415 60.6201 55.5035 63.4891C52.7656 66.365 49.8414 68.7029 46.7242 70.5029C42.7173 72.8132 39.0345 73.896 35.669 73.7443C32.3034 73.5925 29.5449 72.3925 27.4001 70.1374V74.2684C27.4001 74.965 27.1932 75.6684 26.7794 76.3788C26.3725 77.0891 25.8621 77.6201 25.2483 77.9719C24.6414 78.3236 24.1311 78.3787 23.7173 78.1443C23.3104 77.9098 23.1035 77.4477 23.1035 76.7512V66.8477C23.1104 66.165 23.3173 65.4753 23.7173 64.7788C24.1311 64.0684 24.6414 63.5374 25.2483 63.1856L33.8414 58.227C34.3863 57.9098 34.8552 57.827 35.2483 57.9856L35.3725 58.0477C35.7863 58.2822 35.9863 58.7512 35.9863 59.4477C35.9863 60.1443 35.7863 60.8546 35.3725 61.565C35.1449 61.9512 34.8897 62.2891 34.607 62.565C34.3725 62.7994 34.1173 62.9925 33.8414 63.1512L30.6759 64.9856C32.3932 66.9512 34.6552 68.027 37.469 68.2063C40.2759 68.3925 43.3656 67.5167 46.7242 65.5719C51.7725 62.6615 56.1173 58.2201 59.7449 52.2615C63.3794 46.3029 65.4483 40.365 65.9518 34.4546C66.0208 33.7512 66.269 33.0822 66.7034 32.4477C67.131 31.8063 67.6346 31.3236 68.207 30.9925C68.8139 30.6408 69.3311 30.5581 69.7587 30.7374C70.1932 30.9236 70.3725 31.3443 70.2966 31.9994Z" fill="#DF4E4E" fill-opacity="0.2" stroke="#DF4E4E" stroke-width="0.413793" stroke-linecap="round" stroke-linejoin="round"/>
<path d="M70.3516 10.0339V19.896C70.3516 20.5925 70.1447 21.296 69.7378 22.0063C69.324 22.7167 68.8137 23.2477 68.2068 23.5994L62.2964 27.0063L59.6137 28.5581C59.0068 28.9098 58.4964 28.9719 58.0826 28.7374C57.6688 28.5029 57.4688 28.0339 57.4688 27.3374C57.4688 26.6408 57.6688 25.9305 58.0826 25.2201C58.1309 25.1374 58.1792 25.0546 58.2344 24.9787C58.6206 24.3856 59.0757 23.9374 59.6137 23.627L62.7792 21.7994C61.1447 19.9305 59.0275 18.8684 56.4068 18.6132C56.2688 18.5994 56.124 18.5856 55.9861 18.5787C53.1792 18.3925 50.0895 19.2684 46.724 21.2132C46.1654 21.5305 45.6206 21.8753 45.0826 22.2339C44.5033 22.6132 43.9309 23.0201 43.3723 23.4546C43.324 23.4822 43.2757 23.5236 43.2275 23.565C41.793 24.6684 40.4275 25.9236 39.124 27.3167C39.1102 27.3305 39.0964 27.3443 39.0826 27.365C37.455 29.1029 35.9378 31.0546 34.5309 33.227C34.2482 33.6477 33.9792 34.0822 33.7102 34.5236C32.9792 35.7305 32.3033 36.9305 31.7033 38.1374C31.4206 38.6822 31.1585 39.227 30.9171 39.7719C29.9999 41.7787 29.2619 43.7788 28.7033 45.7719C28.6964 45.7925 28.6895 45.8132 28.6895 45.8339C28.1309 47.8408 27.7516 49.8408 27.5516 51.8408C27.5378 51.8339 27.524 51.8339 27.5102 51.827L27.5516 51.8477C27.5309 52.0063 27.5171 52.1718 27.5033 52.3305C27.4482 52.8684 27.2964 53.3787 27.0275 53.8753C26.9516 54.0339 26.855 54.1856 26.7516 54.3374C26.324 54.9787 25.8206 55.4615 25.2482 55.7925C24.6413 56.1443 24.124 56.227 23.6964 56.0408L23.5447 55.965C23.2206 55.7512 23.0895 55.3581 23.1585 54.7856C23.2206 53.8891 23.3102 52.9856 23.4413 52.0822C23.8275 49.3167 24.5171 46.5098 25.5171 43.6546C26.1654 41.7925 26.9102 39.9719 27.7585 38.1925C27.7654 38.1787 27.7723 38.1581 27.7792 38.1443C28.524 36.5719 29.3378 35.0339 30.2344 33.5305C30.3792 33.2822 30.524 33.0339 30.6757 32.7925C32.2068 30.2753 33.9102 27.9167 35.7792 25.7167C35.8068 25.6753 35.8413 25.6408 35.8757 25.6063C36.5447 24.8132 37.2344 24.0477 37.9516 23.296C38.4619 22.7581 38.9792 22.2408 39.5102 21.7443C39.5171 21.7305 39.524 21.7236 39.5378 21.7167C39.5792 21.6753 39.6206 21.6339 39.6619 21.5994C41.393 19.9581 43.193 18.5305 45.0688 17.3098C45.6137 16.9443 46.1654 16.6063 46.724 16.2822C47.5585 15.7994 48.3792 15.3787 49.1861 15.0063C51.7861 13.7925 54.2413 13.1374 56.5516 13.0408C56.9654 13.0201 57.3723 13.0201 57.7792 13.0408C59.6206 13.1236 61.2757 13.5167 62.7516 14.227L62.8344 14.2684C64.0275 14.8546 65.1033 15.6477 66.0482 16.6477V12.5167C66.0482 11.8201 66.2551 11.1167 66.6688 10.4063C67.0757 9.69599 67.5861 9.16495 68.1999 8.81323C68.7447 8.49599 69.2137 8.42013 69.5999 8.57875L69.7309 8.64082C70.1378 8.8753 70.3447 9.33737 70.3447 10.0339H70.3516Z" fill="#DF4E4E" fill-opacity="0.2" stroke="#DF4E4E" stroke-width="0.413793" stroke-linecap="round" stroke-linejoin="round"/>
<path d="M69.6086 8.57865C69.2224 8.42003 68.7534 8.49596 68.2086 8.8132C67.5948 9.16493 67.0844 9.69589 66.6775 10.4062C66.2637 11.1166 66.0568 11.82 66.0568 12.5166V16.6477C65.1119 15.6477 64.0362 14.8545 62.8431 14.2683L62.2224 13.958L52.2637 8.98562V5.62006C52.2637 4.92351 52.4706 4.22007 52.8844 3.50972C53.2913 2.79938 53.8017 2.26834 54.4155 1.91662C55.0224 1.5649 55.5327 1.50972 55.9465 1.74421L69.6086 8.57865Z" stroke="#DF4E4E" stroke-width="0.413793" stroke-linecap="round" stroke-linejoin="round"/>
<path d="M62.7586 14.227C61.2827 13.5167 59.6275 13.1236 57.7862 13.0408C57.3793 13.0201 56.9724 13.0201 56.5586 13.0408C54.2482 13.1373 51.7931 13.7925 49.1931 15.0063C48.3862 15.3787 47.5655 15.7994 46.731 16.2822C46.1724 16.6063 45.6206 16.9442 45.0758 17.3098C43.1999 18.5304 41.3999 19.958 39.6689 21.5994C39.6275 21.6339 39.5862 21.6753 39.5448 21.7167L39.4551 21.6753C39.4551 21.6753 39.5034 21.7236 39.5172 21.7442C38.9862 22.2408 38.4689 22.758 37.9586 23.296C37.2413 24.0477 36.5517 24.8132 35.8827 25.6063C35.8482 25.6408 35.8137 25.6753 35.7862 25.7167C33.9172 27.9167 32.2137 30.2753 30.6827 32.7925C30.531 33.0339 30.3862 33.2822 30.2413 33.5304C29.3448 35.0339 28.531 36.5718 27.7862 38.1442C27.7793 38.158 27.7724 38.1787 27.7655 38.1925C26.9172 39.9718 26.1724 41.7925 25.5241 43.6546C24.5241 46.5098 23.8344 49.3167 23.4482 52.0822C23.3172 52.9856 23.2275 53.8891 23.1655 54.7856C23.0965 55.358 23.2275 55.7511 23.5517 55.9649L21.4344 54.9098L17.3724 52.8753L9.91029 49.1442C9.47581 48.9649 9.29652 48.5442 9.37239 47.8891C9.62066 44.2477 10.4069 40.5442 11.731 36.758C13.0551 32.9718 14.7724 29.3511 16.8896 25.896C18.9999 22.4339 21.4275 19.2684 24.1655 16.3994C26.9034 13.5236 29.8275 11.1856 32.9379 9.38562C36.9517 7.07528 40.6344 5.99251 43.9999 6.14424C45.8413 6.22699 47.5103 6.627 48.9862 7.34424L49.2896 7.49597L52.2689 8.98562L62.2275 13.958L62.7655 14.227H62.7586Z" stroke="#DF4E4E" stroke-width="0.413793" stroke-linecap="round" stroke-linejoin="round"/>
<path d="M50.2758 32.8891L49.2344 32.3718L50.2758 32.8891Z" fill="#DF4E4E"/>
<path d="M50.2758 32.8891L49.2344 32.3718" stroke="#DF4E4E" stroke-width="0.413793" stroke-linecap="round" stroke-linejoin="round"/>
<path d="M47.9736 25.9374C47.6288 25.7925 47.2288 25.8477 46.7805 26.1098C46.284 26.3994 45.8426 26.8684 45.4702 27.5167C45.0909 28.1649 44.9047 28.7787 44.9047 29.3511V30.2753L39.084 27.3649C39.084 27.3649 39.1116 27.3305 39.1254 27.3167C40.4288 25.9236 41.7943 24.6684 43.2288 23.5649L47.9736 25.9374Z" stroke="#DF4E4E" stroke-width="0.413793" stroke-linecap="round" stroke-linejoin="round"/>
<path d="M52.132 27.8408C51.9389 27.7649 51.7388 27.696 51.5319 27.6477C50.656 27.4339 49.6975 27.5856 48.663 28.1029V27.1787C48.663 26.6063 48.4768 26.2132 48.0975 25.9994L47.9733 25.9373L43.2285 23.5649C43.2768 23.5236 43.3251 23.4822 43.3733 23.4546L52.132 27.8408Z" stroke="#DF4E4E" stroke-width="0.413793" stroke-linecap="round" stroke-linejoin="round"/>
<path d="M51.3458 47.0132C51.3458 48.365 50.9251 49.6063 50.0838 50.7305C49.2424 51.8477 48.2285 52.7512 47.0492 53.4339C46.1182 53.9719 45.27 54.2063 44.4976 54.1374C44.3251 54.1236 44.1596 54.0891 44.001 54.0339C43.4562 53.8615 42.9872 53.4684 42.5941 52.8615C42.4562 52.6684 42.2838 52.5374 42.0769 52.4615H42.0492L41.0838 51.9719L35.3665 49.1098L31.5527 47.1994C32.0907 47.1029 32.6561 46.8822 33.2561 46.5374C34.4354 45.8546 35.4493 44.9512 36.2907 43.8339C36.5458 43.496 36.7596 43.1443 36.932 42.7856L39.5872 44.1098L40.6907 44.6615C41.67 45.2822 43.2217 45.4201 45.332 45.0615C45.6355 45.0132 45.9251 44.9719 46.2079 44.9374C47.9941 44.6891 49.27 44.6753 50.0286 44.8753C50.1045 44.896 50.1734 44.9167 50.2355 44.9512C50.9734 45.2339 51.3458 45.9167 51.3458 47.0132Z" stroke="#DF4E4E" stroke-width="0.413793" stroke-linecap="round" stroke-linejoin="round"/>
<path d="M69.7585 30.7373C69.331 30.558 68.8137 30.6408 68.2068 30.9925C67.6344 31.3235 67.131 31.8063 66.7034 32.4477C66.2689 33.0821 66.0206 33.7511 65.9516 34.4546C65.4482 40.3649 63.3792 46.3028 59.7448 52.2615C56.1172 58.2201 51.7723 62.6615 46.7241 65.5718C43.3654 67.5166 40.2758 68.3925 37.4689 68.2063C34.6551 68.027 32.393 66.9511 30.6758 64.9856L33.8413 63.1511C34.1172 62.9925 34.3723 62.7994 34.6068 62.5649C34.8896 62.289 35.1447 61.9511 35.3723 61.5649C35.7861 60.8546 35.9861 60.1511 35.9861 59.4477C35.9861 58.7442 35.7861 58.2821 35.3723 58.0477L35.2482 57.9856L34.5792 57.6477C35.2068 57.2339 35.8275 56.7925 36.4344 56.3235L40.1241 58.1718L40.9516 58.5787L45.3585 60.7856C45.731 60.9994 46.1723 60.9649 46.6758 60.6753C47.1723 60.3856 47.6137 59.9166 47.9861 59.2684C48.3654 58.6201 48.5516 58.0063 48.5516 57.4339V56.5097C49.4482 55.7856 50.2896 55.0063 51.0758 54.158C51.862 53.3166 52.5516 52.3994 53.1448 51.427C53.731 50.4477 54.2068 49.4063 54.5654 48.2959C54.9241 47.1856 55.1034 46.0339 55.1034 44.8408C55.1034 43.1166 54.6758 41.7856 53.8137 40.8408C53.5861 40.5856 53.2896 40.3856 52.9379 40.2339L52.6344 40.0821L49.4482 38.489C50.1999 36.6615 50.7999 34.8408 51.2482 33.0201C51.7103 32.9166 52.1723 32.627 52.6344 32.158C53.1379 31.6615 53.4896 31.0959 53.7103 30.4615C53.9241 29.8201 53.9034 29.3511 53.6551 29.0408C53.2896 28.5511 52.8482 28.1856 52.3241 27.9373L52.131 27.8408C52.1447 27.7442 52.1516 27.6546 52.1585 27.558C52.2137 27.0201 52.3654 26.5097 52.6344 26.0132L56.2206 27.8063L58.0827 28.7373C58.4965 28.9718 59.0068 28.9097 59.6137 28.558L62.2965 27.0063L69.7585 30.7373Z" stroke="#DF4E4E" stroke-width="0.413793" stroke-linecap="round" stroke-linejoin="round"/>
<path d="M62.7805 21.7995L59.615 23.6271C59.0771 23.9374 58.6219 24.3857 58.2357 24.9788C58.1805 25.0547 58.1323 25.1374 58.084 25.2202C57.6702 25.9305 57.4702 26.634 57.4702 27.3374C57.4702 28.0409 57.6702 28.5029 58.084 28.7374L56.2219 27.8064L52.6357 26.0133L45.084 22.234C45.6219 21.8754 46.1667 21.5305 46.7254 21.2133C50.0909 19.2685 53.1805 18.3926 55.9874 18.5788C56.1254 18.5857 56.2702 18.5995 56.4081 18.6133L62.7805 21.7995Z" stroke="#DF4E4E" stroke-width="0.413793" stroke-linecap="round" stroke-linejoin="round"/>
</g>
</svg>
