<svg width="24" height="25" viewBox="0 0 24 25" fill="none" xmlns="http://www.w3.org/2000/svg">
<g id="radio_button_unchecked">
<path id="icon" d="M12 22.1995C10.6167 22.1995 9.31667 21.937 8.1 21.412C6.88333 20.887 5.825 20.1745 4.925 19.2745C4.025 18.3745 3.3125 17.3162 2.7875 16.0995C2.2625 14.8829 2 13.5829 2 12.1995C2 10.8162 2.2625 9.51619 2.7875 8.29952C3.3125 7.08286 4.025 6.02452 4.925 5.12452C5.825 4.22452 6.88333 3.51202 8.1 2.98702C9.31667 2.46202 10.6167 2.19952 12 2.19952C13.3833 2.19952 14.6833 2.46202 15.9 2.98702C17.1167 3.51202 18.175 4.22452 19.075 5.12452C19.975 6.02452 20.6875 7.08286 21.2125 8.29952C21.7375 9.51619 22 10.8162 22 12.1995C22 13.5829 21.7375 14.8829 21.2125 16.0995C20.6875 17.3162 19.975 18.3745 19.075 19.2745C18.175 20.1745 17.1167 20.887 15.9 21.412C14.6833 21.937 13.3833 22.1995 12 22.1995ZM12 20.1995C14.2333 20.1995 16.125 19.4245 17.675 17.8745C19.225 16.3245 20 14.4329 20 12.1995C20 9.96619 19.225 8.07452 17.675 6.52452C16.125 4.97452 14.2333 4.19952 12 4.19952C9.76667 4.19952 7.875 4.97452 6.325 6.52452C4.775 8.07452 4 9.96619 4 12.1995C4 14.4329 4.775 16.3245 6.325 17.8745C7.875 19.4245 9.76667 20.1995 12 20.1995Z" fill="#AEAEB2"/>
</g>
</svg>
