<?xml version="1.0" encoding="UTF-8"?>
<!DOCTYPE svg PUBLIC "-//W3C//DTD SVG 1.1//EN" "http://www.w3.org/Graphics/SVG/1.1/DTD/svg11.dtd">
<!-- Creator: CorelDRAW -->
<svg xmlns="http://www.w3.org/2000/svg" xml:space="preserve" width="18px" height="18px" version="1.1" style="shape-rendering:geometricPrecision; text-rendering:geometricPrecision; image-rendering:optimizeQuality; fill-rule:evenodd; clip-rule:evenodd"
viewBox="0 0 2.048 2.048"
 xmlns:xlink="http://www.w3.org/1999/xlink"
 xmlns:xodm="http://www.corel.com/coreldraw/odm/2003">
 <defs>
  <style type="text/css">
   <![CDATA[
    .str0 {stroke:#1A3951;stroke-width:0.032;stroke-miterlimit:2.61313}
    .fil0 {fill:none}
    .fil2 {fill:#1A3951}
    .fil1 {fill:#1A3951;fill-rule:nonzero}
   ]]>
  </style>
 </defs>
 <g id="Layer_x0020_1">
  <metadata id="CorelCorpID_0Corel-Layer"/>
  <g id="_1946290862496">
   <g>
    <path class="fil0 str0" d="M1.024 0.016c0.556,0 1.008,0.451 1.008,1.008 0,0.557 -0.452,1.008 -1.008,1.008 -0.557,0 -1.008,-0.451 -1.008,-1.008 0,-0.557 0.451,-1.008 1.008,-1.008z"/>
   </g>
   <g>
    <path class="fil1" d="M0.994 0.921c-0.024,0.011 -0.045,0.028 -0.061,0.049l-0.228 -0.147 0.289 0.098z"/>
    <path class="fil1" d="M1.408 0.824l-0.237 0.152c-0.013,-0.02 -0.031,-0.037 -0.051,-0.048l0.288 -0.104z"/>
    <path class="fil1" d="M1.194 1.058c0,-0.001 0,-0.003 0,-0.005 0,-0.011 -0.001,-0.023 -0.004,-0.033l0.417 0.038 -0.413 0z"/>
    <path class="fil1" d="M1.655 1.058l-0.003 0c-0.03,-0.295 -0.28,-0.525 -0.582,-0.525 -0.268,0 -0.493,0.179 -0.564,0.423l0.413 0.039c-0.008,0.018 -0.012,0.037 -0.012,0.058 0,0.002 0,0.004 0,0.005l-0.547 0c0,-0.357 0.29,-0.647 0.648,-0.647 0.179,0 0.341,0.072 0.458,0.189 0.117,0.118 0.189,0.279 0.189,0.458z"/>
    <path class="fil1" d="M1.099 0.917c-0.014,-0.005 -0.029,-0.007 -0.045,-0.007 -0.013,0 -0.024,0.001 -0.036,0.004l0.041 -0.305c0.013,0.103 0.027,0.205 0.04,0.308z"/>
    <path class="fil1" d="M1.654 1.396l-1.295 0c0.432,0.029 0.865,0.057 1.297,0.086l-0.002 -0.086z"/>
    <path class="fil2" d="M1.072 1.051c-0.007,-0.008 -0.007,-0.019 -0.008,-0.028 -0.003,0.011 -0.009,0.029 -0.024,0.03 -0.015,0.001 -0.024,-0.01 -0.03,-0.014 -0.002,0.014 0.014,0.039 0.028,0.046 -0.024,0 -0.038,-0.013 -0.044,-0.032 -0.007,-0.024 0.009,-0.046 0.002,-0.07 -0.002,-0.009 -0.005,-0.014 -0.01,-0.02 0.012,0.002 0.021,0.012 0.026,0.019 0.003,0.005 0.005,0.01 0.007,0.016 0.002,0.009 0.002,0.016 0.006,0.026 0,0.002 0.002,0.005 0.006,0.005 0.01,0.002 0.028,-0.024 0.018,-0.035 -0.004,-0.006 -0.01,-0.01 -0.021,-0.008 0.019,-0.009 0.034,0 0.039,0.009 0.002,-0.003 0.005,-0.008 0.007,-0.014 0.004,-0.013 0,-0.024 -0.002,-0.027 0.014,0.016 0.017,0.029 0.017,0.038 0,0.019 -0.011,0.035 -0.005,0.04 0.002,0.002 0.006,0.002 0.008,0 0.007,-0.003 0.002,-0.015 0.008,-0.024 0.003,-0.005 0.008,-0.009 0.02,-0.012 -0.004,0.004 -0.01,0.011 -0.011,0.021 -0.004,0.02 0.011,0.032 0.006,0.046 -0.002,0.007 -0.008,0.015 -0.032,0.021 0.009,-0.011 0.015,-0.019 0.013,-0.034 -0.004,0.001 -0.017,0.011 -0.024,0.001z"/>
    <path class="fil2" d="M1.115 1.063c-0.002,0.007 -0.008,0.015 -0.032,0.021 0.009,-0.011 0.015,-0.019 0.013,-0.034 -0.004,0.001 -0.017,0.011 -0.024,0.001 -0.007,-0.008 -0.007,-0.019 -0.008,-0.028 -0.003,0.011 -0.009,0.029 -0.024,0.03 -0.015,0.001 -0.024,-0.01 -0.03,-0.014 -0.002,0.014 0.014,0.039 0.028,0.046 -0.024,0 -0.038,-0.013 -0.044,-0.032 -0.007,-0.025 0.009,-0.046 0.002,-0.07 -0.002,-0.009 -0.005,-0.014 -0.01,-0.02 0.012,0.002 0.021,0.012 0.026,0.019 0.003,0.005 0.005,0.01 0.007,0.016 0.002,0.009 0.003,0.016 0.006,0.026 0,0.002 0.002,0.005 0.006,0.005 0.01,0.002 0.028,-0.024 0.018,-0.035 -0.004,-0.006 -0.01,-0.01 -0.021,-0.008 0.019,-0.009 0.034,0 0.039,0.009 0.002,-0.003 0.005,-0.008 0.007,-0.014 0.004,-0.013 0,-0.024 -0.002,-0.027 0.014,0.016 0.017,0.029 0.017,0.038 0,0.019 -0.011,0.035 -0.005,0.04 0.002,0.002 0.006,0.002 0.008,0 0.007,-0.003 0.002,-0.015 0.008,-0.024 0.003,-0.005 0.008,-0.009 0.02,-0.012 -0.004,0.004 -0.01,0.011 -0.011,0.021 -0.004,0.02 0.011,0.032 0.006,0.046z"/>
    <path class="fil1" d="M1.514 1.274c-0.033,0 -0.061,-0.006 -0.061,-0.04l0 -0.005c0,-0.034 0.028,-0.04 0.061,-0.041 0.028,0 0.051,0.005 0.059,0.025l0.083 0c-0.005,-0.07 -0.067,-0.091 -0.142,-0.091 -0.078,0.001 -0.142,0.023 -0.142,0.102l0 0.015c0,0.078 0.064,0.101 0.142,0.101 0.075,0 0.137,-0.021 0.142,-0.091l-0.083 0c-0.008,0.02 -0.031,0.025 -0.059,0.025zm-0.31 0c-0.033,0 -0.061,-0.006 -0.06,-0.04l0 -0.005c-0.001,-0.034 0.027,-0.04 0.06,-0.041 0.028,0 0.051,0.005 0.059,0.025l0.083 0c-0.005,-0.07 -0.067,-0.091 -0.142,-0.091 -0.01,0 -0.019,0.001 -0.028,0.002 -0.055,0.004 -0.099,0.024 -0.111,0.072l0 0c-0.002,0.008 -0.003,0.018 -0.003,0.028l0 0.015c0,0.078 0.064,0.101 0.142,0.101 0.075,0 0.137,-0.021 0.142,-0.091l-0.083 0c-0.008,0.02 -0.031,0.025 -0.059,0.025zm-0.302 -0.066c-0.033,-0.002 -0.058,-0.003 -0.058,-0.012 0,-0.017 0.031,-0.02 0.056,-0.02 0.026,0 0.047,0.003 0.056,0.02l0.085 0c-0.006,-0.058 -0.055,-0.071 -0.116,-0.073 -0.008,-0.001 -0.016,-0.001 -0.025,-0.001 -0.073,0 -0.141,0.015 -0.141,0.074 0,0.052 0.082,0.056 0.14,0.059 0.032,0.001 0.057,0.003 0.057,0.012 0,0.016 -0.03,0.02 -0.056,0.02 -0.025,0 -0.046,-0.004 -0.056,-0.02l-0.085 0c0.008,0.064 0.069,0.073 0.141,0.073 0.073,0 0.141,-0.014 0.141,-0.073 0,-0.052 -0.081,-0.056 -0.139,-0.059zm-0.278 -0.081l-0.081 0.104 -0.081 -0.104 -0.102 0 0 0.208 0.081 0 0 -0.111 0.082 0.111 0.04 0 0.081 -0.111 0 0.111 0.081 0 0 -0.208 -0.101 0z"/>
   </g>
  </g>
 </g>
</svg>
