<?xml version="1.0" encoding="UTF-8"?>
<!DOCTYPE svg PUBLIC "-//W3C//DTD SVG 1.1//EN" "http://www.w3.org/Graphics/SVG/1.1/DTD/svg11.dtd">
<!-- Creator: CorelDRAW -->
<svg xmlns="http://www.w3.org/2000/svg" xml:space="preserve" width="150px" height="207px" version="1.1" style="shape-rendering:geometricPrecision; text-rendering:geometricPrecision; image-rendering:optimizeQuality; fill-rule:evenodd; clip-rule:evenodd"
viewBox="0 0 41.398 57.118"
 xmlns:xlink="http://www.w3.org/1999/xlink"
 xmlns:xodm="http://www.corel.com/coreldraw/odm/2003">
 <defs>
  <style type="text/css">
   <![CDATA[
    .fil0 {fill:#FE6035}
   ]]>
  </style>
 </defs>
 <g id="Layer_x0020_1">
  <metadata id="CorelCorpID_0Corel-Layer"/>
  <path class="fil0" d="M24.105 50.83l-14.934 0c-7.197,0 -8.453,-6.474 -5.576,-9.769 0.827,-0.948 2.599,-2.021 4.265,-2.021l27.773 0 0 11.79 -2.358 0 0 -6.027 -9.17 0 0 6.027zm-21.485 -11.79c0,-3.133 -0.221,-29.569 0.096,-31.347 0.469,-2.634 2.694,-4.847 5.407,-5.073l0 34.323c-2.531,0 -3.997,1.088 -5.503,2.097zm17.031 -24.629l3.668 0 0 -3.93 3.93 0 0 3.93 3.668 0 0 3.667 -3.668 0 0 10.481 -3.93 0 0 -10.481 -3.668 0 0 -3.667zm-19.651 -4.716l0 34.322c0,2.612 0.767,4.355 1.937,5.924 0.859,1.155 3.258,2.722 5.137,2.722l17.031 0 0 4.455c1.192,-0.319 3.335,-2.656 4.454,-3.406 1.219,0.817 3.65,3.122 4.716,3.406l0 -4.455 8.123 0 0 -1.833 -3.407 0 0 -11.79 3.407 0 0 -39.04 -33.275 0c-4.741,0 -8.123,4.295 -8.123,9.695z"/>
 </g>
</svg>
