<?xml version="1.0" encoding="UTF-8"?>
<!DOCTYPE svg PUBLIC "-//W3C//DTD SVG 1.1//EN" "http://www.w3.org/Graphics/SVG/1.1/DTD/svg11.dtd">
<!-- Creator: CorelDRAW -->
<svg xmlns="http://www.w3.org/2000/svg" xml:space="preserve" width="258px" height="196px" version="1.1" style="shape-rendering:geometricPrecision; text-rendering:geometricPrecision; image-rendering:optimizeQuality; fill-rule:evenodd; clip-rule:evenodd"
viewBox="0 0 102.212 77.806"
 xmlns:xlink="http://www.w3.org/1999/xlink"
 xmlns:xodm="http://www.corel.com/coreldraw/odm/2003">
 <defs>
  <style type="text/css">
   <![CDATA[
    .fil0 {fill:#FE6035}
   ]]>
  </style>
 </defs>
 <g id="Layer_x0020_1">
  <metadata id="CorelCorpID_0Corel-Layer"/>
  <g id="_2471197752736">
   <path class="fil0" d="M38.316 54.398c0,0.616 0.124,1.201 0.61,1.608 0.345,0.289 0.787,0.52 1.258,0.65 1.006,0.279 2.005,0.574 2.991,0.825 1.017,0.259 1.983,0.548 3.01,0.806 4.205,1.057 6.769,1.633 11.093,2.264 1.301,0.189 2.28,0.203 3.479,0.337l1.9 0.059c1.045,0 2.792,-0.13 3.724,-0.35 0.987,-0.232 1.324,-0.439 2.173,-0.87 0.155,-0.078 0.186,-0.109 0.327,-0.188 0.127,-0.071 0.215,-0.103 0.342,-0.174 1.169,-0.655 1.775,-0.706 3.008,-1.066 3.408,-0.994 9.682,-2.787 12.97,-3.326 1.979,-0.325 2.464,-0.42 4.531,-0.42 2.046,0 5.042,0.408 6.643,1.453 0.419,0.274 1.145,0.939 1.195,1.538l-1.117 0.481c-1.816,0.872 -3.647,1.714 -5.466,2.631l-13.183 6.259c-0.383,0.163 -0.702,0.336 -1.098,0.5l-1.139 0.512c-1.247,0.582 -3.359,1.467 -4.555,1.942 -1.55,0.616 -3.109,1.217 -4.738,1.76 -2.018,0.672 -2.971,0.932 -5.04,1.458 -6.895,1.751 -18.343,-3.038 -24.384,-5.568l-5.687 -2.461c-2.629,-1.135 -5.259,-2.25 -7.819,-3.526 -0.598,-0.298 -0.963,-0.426 -0.963,-0.842 0,-1.179 0.762,-5.847 0.971,-7.332l1.174 -8.212c0.143,-1.032 -0.054,-1.549 1.136,-1.959 0.991,-0.342 2.284,-0.594 3.426,-0.751l2.752 -0.341c0.793,-0.11 4.142,-0.332 4.929,-0.332 3.176,0 8.763,3.171 11.847,4.399 3.753,1.494 4.631,1.54 8.511,2.37 1.45,0.31 2.945,0.671 4.338,1.076 0.693,0.202 1.372,0.424 2.024,0.658 0.704,0.253 1.276,0.519 1.902,0.832 0.313,0.156 0.561,0.287 0.856,0.484 0.752,0.503 1.774,1.355 1.774,2.352 0,1.62 0.111,1.865 -1.753,2.321 -3.957,0.968 -11.443,-0.46 -15.468,-1.293 -1.8,-0.373 -3.472,-0.928 -5.233,-1.368 -1.276,-0.319 -2.64,-0.738 -3.937,-1.014 -0.603,-0.128 -0.896,-0.245 -1.612,-0.245 -0.84,0 -1.702,1.187 -1.702,2.063zm-22.845 10.675l-11.242 0c0,-0.404 0.188,-0.759 0.154,-1.182 -0.085,-1.032 -0.209,-2.042 -0.054,-3.101 0.179,-1.228 -0.204,-1.345 -0.051,-3.249l0.057 -1.96c-0.136,-0.931 -0.133,-1.072 -0.057,-2.011l0.057 -1.96c-0.136,-0.934 -0.133,-1.121 -0.057,-2.062l0.063 -1.915c-0.144,-0.959 -0.142,-1.073 -0.063,-2.056l0.057 -1.96c-0.208,-1.429 -0.106,-4.715 -0.106,-6.34 0,-0.52 0.154,-0.694 0.154,-1.444l2.11 0.469c0.352,0.07 0.74,0.127 1.092,0.197l9.73 1.925c0.68,0.136 1.459,0.256 2.109,0.469 1.728,0.569 1.318,1.619 1.152,3.128 -0.389,3.545 -1.149,7.877 -1.659,11.491 -0.15,1.065 -0.314,2.131 -0.477,3.236 -0.162,1.097 -0.334,2.227 -0.437,3.327 -0.105,1.117 -0.253,2.285 -0.473,3.292 -0.24,1.099 -0.716,1.706 -2.059,1.706zm-15.471 -32.644l0 35.429c0,0.051 0.523,1.092 1.192,1.335 1.143,0.414 3.661,0.076 4.937,0.219 0.321,0.036 0.834,0.09 1.226,0.025 1.864,-0.313 3.873,-0.032 5.95,-0.032 2.192,0 3.764,0.133 5.56,-1.093 0.904,-0.616 1.384,-1.097 1.959,-1.96l0.526 -0.815c0.473,0.04 1.696,0.614 2.149,0.842 0.349,0.176 0.662,0.331 0.997,0.499l1.529 0.74c1.685,0.85 6.604,2.864 7.945,3.4 2.898,1.16 5.795,2.269 8.762,3.306 3.34,1.168 8.323,2.863 11.768,3.29 2.222,0.275 4.283,0.263 6.471,-0.097 1.171,-0.194 2.208,-0.405 3.275,-0.697 2.011,-0.55 4.033,-1.262 5.89,-2 2.201,-0.874 4.827,-1.889 6.944,-2.906 0.474,-0.227 0.918,-0.39 1.392,-0.618 1.237,-0.594 2.813,-1.217 4.109,-1.822 1.269,-0.594 2.832,-1.236 4.073,-1.857 0.889,-0.444 1.744,-0.843 2.63,-1.289l10.658 -5.174c0.432,-0.216 0.885,-0.41 1.28,-0.68 0.127,-0.086 0.151,-0.116 0.261,-0.204 0.457,-0.362 0.253,-0.264 0.509,-0.522 0.082,-0.082 0.22,-0.164 0.22,-0.296l0 -2.011c0,-0.147 -0.631,-1.466 -0.74,-1.685 -1.086,-2.19 -3.129,-3.515 -5.39,-4.357 -5.258,-1.958 -10.3,-1.184 -15.643,0.152l-6.93 1.837c-1.777,0.501 -0.932,0.289 -1.497,-1.331 -0.361,-1.036 -0.921,-1.731 -1.658,-2.468 -0.717,-0.717 -1.77,-1.428 -2.677,-1.912 -1.377,-0.734 -2.273,-1.241 -3.891,-1.782 -2.044,-0.683 -4.169,-1.307 -6.435,-1.764 -2.644,-0.534 -3.905,-0.833 -6.378,-1.822 -1.464,-0.586 -2.22,-0.994 -3.529,-1.576 -0.26,-0.116 -0.446,-0.198 -0.704,-0.328 -0.477,-0.238 -0.916,-0.432 -1.393,-0.67 -0.246,-0.123 -0.416,-0.191 -0.67,-0.309l-1.417 -0.647c-0.255,-0.105 -0.486,-0.175 -0.751,-0.28 -0.84,-0.332 -2.371,-0.689 -3.278,-0.847 -3.864,-0.674 -7.357,-0.167 -11.104,0.574 -0.601,0.12 -1.12,0.273 -1.676,0.387 -0.723,0.15 -1.07,0.314 -1.904,0.314 0,-1.205 -1.413,-2.659 -2.32,-3.3 -1.496,-1.056 -2.409,-1.096 -4.216,-1.457 -1.028,-0.206 -2.125,-0.394 -3.179,-0.637 -1.831,-0.423 -4.349,-0.889 -6.259,-1.271 -1.017,-0.204 -2.123,-0.433 -3.119,-0.645 -1.572,-0.334 -3.843,-1.32 -5.072,0.266 -0.082,0.108 -0.382,0.441 -0.382,0.546z"/>
   <path class="fil0" d="M43.319 12.833c0,-1.306 0.292,-2.661 0.704,-3.576 0.403,-0.897 0.807,-1.597 1.475,-2.289 0.129,-0.134 0.128,-0.188 0.266,-0.302 0.953,-0.797 1.263,-1.141 2.601,-1.679 2.728,-1.098 6.106,-0.884 8.327,0.919 0.97,0.787 1.779,1.836 2.406,2.286 1.223,0.878 2.426,0.451 3.219,-0.702 0.905,-1.316 2.275,-2.185 3.802,-2.696 2.03,-0.679 4.259,-0.596 6.227,0.207 0.778,0.317 1.865,1.005 2.47,1.604 0.728,0.72 1.233,1.457 1.696,2.377 0.756,1.499 0.791,2.765 0.791,4.418 0,1.636 -0.673,3.134 -1.487,4.237 -1.084,1.469 -1.966,2.285 -3.27,3.589l-0.619 0.567c-0.11,0.098 -0.174,0.185 -0.284,0.283 -0.1,0.09 -0.22,0.169 -0.322,0.246 -1.208,0.902 -2.751,2.54 -3.777,3.649l-2.579 2.629c-0.673,0.673 -1.071,1.04 -1.676,1.727 -0.421,0.478 -0.99,0.997 -1.469,1.419 -0.114,0.101 -0.2,0.199 -0.31,0.309 -0.325,0.325 -0.86,0.852 -1.225,1.096l-1.147 -1.173c-0.388,-0.388 -0.807,-0.741 -1.144,-1.177 -0.282,-0.366 -0.808,-0.824 -1.151,-1.169 -0.441,-0.444 -0.881,-0.671 -1.264,-1.057 -0.455,-0.457 -5.769,-5.83 -6.116,-6.106l-1.49 -1.398c-0.21,-0.21 -0.383,-0.383 -0.593,-0.593l-1.161 -1.212c-0.585,-0.572 -1.59,-2.006 -1.938,-2.703 -0.282,-0.566 -0.474,-0.988 -0.672,-1.648 -0.161,-0.538 -0.29,-1.415 -0.29,-2.082zm16.966 -9.644c-0.092,0 -1.413,-0.978 -1.649,-1.135 -1.663,-1.104 -4.146,-2.011 -6.344,-2.011 -1.677,0 -1.989,-0.001 -3.662,0.413 -1.379,0.341 -3.097,1.171 -4.192,1.996 -0.789,0.595 -0.952,0.75 -1.674,1.472 -0.27,0.271 -0.502,0.51 -0.742,0.805 -0.123,0.15 -0.21,0.277 -0.338,0.435l-0.91 1.411c-0.2,0.366 -0.35,0.618 -0.52,1.027 -0.295,0.709 -0.627,1.52 -0.79,2.304 -0.528,2.527 -0.619,4.977 0.355,7.406l0.439 1.006c0.512,1.052 1.816,2.89 2.66,3.734 0.151,0.15 0.242,0.198 0.388,0.334l2.14 2.14c0.967,0.967 1.896,1.896 2.862,2.862l8.586 8.484c0.841,0.84 2.097,2.488 3.236,2.488 1.499,0 2.692,-1.429 3.675,-2.411 0.984,-0.984 1.93,-1.93 2.913,-2.914 1.964,-1.963 3.89,-3.889 5.854,-5.853l1.106 -1.059c0.132,-0.111 0.24,-0.235 0.363,-0.359l2.218 -2.166c0.992,-0.873 2.71,-2.81 3.381,-3.941 0.818,-1.376 1.371,-2.536 1.699,-4.181 0.584,-2.931 0.388,-5.657 -1.08,-8.281 -0.942,-1.685 -2.297,-3.387 -3.854,-4.551 -0.164,-0.122 -0.292,-0.225 -0.443,-0.331 -3.669,-2.577 -7.672,-2.987 -11.868,-1.298 -0.947,0.381 -2.074,1 -2.889,1.599 -0.147,0.109 -0.748,0.575 -0.92,0.575z"/>
  </g>
 </g>
</svg>
