<?xml version="1.0" encoding="UTF-8"?>
<!DOCTYPE svg PUBLIC "-//W3C//DTD SVG 1.1//EN" "http://www.w3.org/Graphics/SVG/1.1/DTD/svg11.dtd">
<!-- Creator: CorelDRAW -->
<svg xmlns="http://www.w3.org/2000/svg" xml:space="preserve" width="181px" height="203px" version="1.1" style="shape-rendering:geometricPrecision; text-rendering:geometricPrecision; image-rendering:optimizeQuality; fill-rule:evenodd; clip-rule:evenodd"
viewBox="0 0 34.089 38.111"
 xmlns:xlink="http://www.w3.org/1999/xlink"
 xmlns:xodm="http://www.corel.com/coreldraw/odm/2003">
 <defs>
  <style type="text/css">
   <![CDATA[
    .fil0 {fill:#FE6035}
   ]]>
  </style>
 </defs>
 <g id="Layer_x0020_1">
  <metadata id="CorelCorpID_0Corel-Layer"/>
  <path class="fil0" d="M7.461 10.115c0.286,-0.192 0.553,-0.467 0.83,-0.674 1.212,-0.91 2.552,-1.648 3.995,-2.139 0.816,-0.277 1.58,-0.475 2.446,-0.621 0.44,-0.073 0.91,-0.126 1.369,-0.164 0,0.777 0,1.553 0,2.33 0,0.563 -0.035,1.025 0.418,1.322 0.444,0.292 1.042,0.147 1.323,-0.289 0.182,-0.284 0.146,-0.582 0.146,-1.033 0,-0.777 0,-1.553 0,-2.33 3.057,0.255 5.494,1.184 7.794,2.911 0.286,0.215 0.552,0.489 0.847,0.687 -0.141,0.21 -1.514,1.528 -1.807,1.821 -0.281,0.281 -0.464,0.464 -0.464,0.921 0,0.495 0.456,0.885 0.944,0.885 0.396,0 0.584,-0.216 0.789,-0.42 0.292,-0.293 1.661,-1.715 1.865,-1.851 0.144,0.097 0.241,0.25 0.35,0.387 0.455,0.575 0.904,1.159 1.262,1.805 0.371,0.668 0.4,0.711 0.786,1.514l0.437 1.097c0.125,0.38 0.251,0.757 0.355,1.178 0.212,0.851 0.407,1.733 0.407,2.66l-2.89 0c-0.428,0 -0.884,0.406 -0.884,0.825 0,0.346 0.05,0.63 0.336,0.844 0.19,0.142 0.406,0.218 0.725,0.218l2.713 0c0,0.917 -0.197,1.793 -0.407,2.63 -0.104,0.417 -0.218,0.812 -0.355,1.178l-0.316 0.835c-0.307,0.773 -0.72,1.552 -1.18,2.24l-0.969 1.332c-0.123,0.156 -0.235,0.267 -0.341,0.425 -0.202,-0.135 -1.497,-1.482 -1.703,-1.688 -0.285,-0.285 -0.538,-0.625 -1.05,-0.59 -0.554,0.037 -0.874,0.449 -0.874,0.981 0,0.392 0.232,0.571 0.435,0.774 0.295,0.295 1.694,1.639 1.836,1.85 -0.049,0.072 -0.304,0.273 -0.393,0.345l-1.329 0.97c-1.304,0.873 -2.729,1.461 -4.264,1.87 -0.772,0.206 -1.877,0.413 -2.655,0.413l0 -2.802c0,-1.322 -1.887,-1.322 -1.887,0l0 2.802c-0.794,0 -1.885,-0.213 -2.631,-0.407 -1.209,-0.313 -2.237,-0.751 -3.307,-1.293 -0.533,-0.271 -2.47,-1.551 -2.702,-1.898 0.136,-0.203 1.53,-1.545 1.821,-1.836 0.293,-0.292 0.449,-0.443 0.449,-0.936 0,-0.449 -0.426,-0.794 -0.849,-0.831 -0.53,-0.047 -0.786,0.299 -1.075,0.588 -0.215,0.215 -1.492,1.547 -1.703,1.688 -0.198,-0.296 -0.449,-0.549 -0.665,-0.838 -0.336,-0.449 -0.639,-0.897 -0.926,-1.375 -0.242,-0.405 -0.446,-0.834 -0.659,-1.257 -0.053,-0.104 -0.074,-0.148 -0.121,-0.263l-0.426 -1.078c-0.037,-0.11 -0.07,-0.17 -0.104,-0.28 -0.339,-1.095 -0.667,-2.385 -0.667,-3.549l2.713 0c0.32,0 0.536,-0.076 0.726,-0.218 0.285,-0.214 0.336,-0.498 0.336,-0.844 0,-0.419 -0.456,-0.825 -0.885,-0.825l-2.89 0c0,-0.48 0.072,-0.961 0.139,-1.366 0.202,-1.227 0.528,-2.431 1.051,-3.549 0.159,-0.341 0.316,-0.717 0.503,-1.03l0.281 -0.486c0.449,-0.786 0.896,-1.325 1.434,-2.016 0.072,-0.091 0.099,-0.133 0.19,-0.194 0.203,0.136 1.561,1.547 1.85,1.836 0.22,0.22 0.416,0.435 0.833,0.435 0.478,0 0.914,-0.413 0.914,-0.885 0,-0.447 -0.172,-0.63 -0.449,-0.907 -0.296,-0.295 -1.68,-1.624 -1.821,-1.835zm10.97 5.603l0.383 0 0 2.86 -0.383 0 0 0.619 1.799 0 0 -0.619 -0.413 0 0 -2.86 0.413 0 0 -0.62 -1.799 0 0 0.62zm-9.938 1.061c0,0.717 -0.037,1.225 0.325,1.857 0.659,1.151 2.153,0.587 2.182,-0.677 -0.136,-0.065 -0.632,-0.171 -0.767,-0.236 0,0.332 -0.053,0.826 -0.354,0.826 -0.242,0 -0.29,-0.349 -0.296,-0.589 -0.009,-0.322 -0.029,-0.559 -0.029,-0.886 0,-0.283 0.033,-0.487 0.03,-0.737 -0.004,-0.333 0.019,-0.59 0.265,-0.59 0.271,0 0.354,0.453 0.354,0.737l0.679 0 0 -1.386 -0.679 0 0 0.266c-0.33,-0.38 -0.707,-0.453 -1.125,-0.123 -0.362,0.284 -0.585,1.026 -0.585,1.538zm15.069 0.148c0,0.668 -0.006,1.156 0.325,1.709 0.568,0.949 2.166,0.875 2.384,-0.593 0.02,-0.14 0.035,-0.221 0.034,-0.379 -0.002,-0.178 0.026,-0.251 0.029,-0.383l-1.268 0 0 0.619 0.265 0c0,0.777 -0.526,0.818 -0.627,0.362 -0.078,-0.35 -0.079,-1.897 -0.006,-2.263 0.071,-0.354 0.478,-0.35 0.608,0.039 0.184,0.549 -0.255,0.476 0.733,0.476l0 -1.416 -0.678 0 0 0.266c-0.194,-0.142 -0.16,-0.325 -0.738,-0.325 -0.771,0 -1.061,1.22 -1.061,1.888zm-10.911 1.622c-0.352,0 -0.325,-0.535 -0.325,-0.797 0,-0.42 -0.03,-1.353 0.046,-1.723 0.056,-0.271 0.131,-0.282 0.338,-0.282 0.183,0 0.226,0.399 0.236,0.59 0.007,0.132 -0.01,0.28 0.001,0.411 0.038,0.459 0.038,0.347 0,0.8 -0.02,0.242 0.08,1.001 -0.296,1.001zm-1.416 -1.593c0,0.809 0.08,1.587 0.717,2.086 0.498,0.39 1.32,0.264 1.737,-0.398 0.474,-0.752 0.479,-2.216 0.011,-2.973 -0.312,-0.505 -0.606,-0.632 -1.167,-0.632 -0.858,0 -1.298,1.11 -1.298,1.917zm9.171 -1.327c0,0.115 0.076,0.089 0.266,0.089l0 2.86 -0.266 0c0,0.387 -0.056,0.619 0.089,0.619l1.032 0 0 -0.619 -0.206 0 -0.031 -1.149c-0.005,-0.175 0.007,-0.358 0.002,-0.533 -0.005,-0.169 -0.03,-0.289 -0.03,-0.5 0.024,0.028 0.01,-0.006 0.047,0.071l0.859 2.444c0.155,0.388 -0.049,0.316 0.892,0.316l0 -3.509 0.236 0 0 -0.62 -1.091 0 0 0.62 0.236 0 0 1.032c0,0.305 0.03,0.494 0.03,0.796 -0.048,-0.055 -0.044,-0.047 -0.071,-0.135 -0.018,-0.056 -0.031,-0.127 -0.041,-0.166 -0.129,-0.511 -0.429,-1.386 -0.629,-1.877 -0.152,-0.373 0.075,-0.27 -1.324,-0.27l0 0.531zm-6.074 0.089l0.265 0 0 2.86 -0.265 0 0 0.619 1.061 0 0 -0.619 -0.206 0 0.059 -2.919 0.577 3.079c0.027,0.152 0.072,0.315 0.072,0.459l0.354 0 0.707 -3.538 0 2.919 -0.236 0 0 0.619 1.475 0 0 -0.619 -0.266 0 0 -2.86 0.266 0 0 -0.62 -1.711 0c-0.004,0.185 -0.235,1.35 -0.235,1.593l-0.089 0c0,-0.259 -0.076,-0.577 -0.109,-0.805 -0.039,-0.267 -0.071,-0.547 -0.127,-0.788l-1.592 0 0 0.62zm-6.901 5.809c0,0.791 0.23,1.247 0.687,1.79 0.064,0.076 0.126,0.118 0.189,0.194 0.214,0.256 0.345,0.342 0.577,0.574 0.224,0.224 0.578,0.546 0.72,0.813 0.71,1.338 -0.914,1.978 -0.993,0.404 -0.028,-0.543 0.272,-0.443 -1.121,-0.443l0 2.33c0,0.068 0.021,0.088 0.089,0.088 1.226,0 1.032,0.106 1.032,-0.442 0.199,0.133 0.498,0.501 1.091,0.501 0.143,0 0.403,-0.049 0.506,-0.084 0.152,-0.052 0.279,-0.132 0.403,-0.216 0.808,-0.546 0.923,-1.782 0.549,-2.72 -0.244,-0.612 -0.796,-1.105 -1.259,-1.514 -0.369,-0.326 -0.907,-0.733 -0.907,-1.275 0,-0.693 0.822,-0.693 1,-0.145 0.069,0.212 0.091,0.486 0.091,0.764l1.121 0 0 -2.211 -1.121 0 0 0.442c-0.334,-0.224 -0.392,-0.501 -1.209,-0.501 -0.832,0 -1.445,0.808 -1.445,1.651zm11.825 4.6c-0.626,0 -0.589,-1.151 -0.589,-1.71 0,-0.826 -0.033,-1.854 0.063,-2.649 0.068,-0.561 0.206,-0.683 0.585,-0.683 0.522,0 0.502,1.302 0.502,1.71 0,0.716 0.033,2.007 -0.071,2.672 -0.049,0.314 -0.147,0.66 -0.49,0.66zm-0.088 1.239c1.469,0 2.147,-1.101 2.448,-2.388 0.052,-0.221 0.064,-0.412 0.101,-0.666l0.048 -0.751c-0.014,-0.396 -0.083,-1.044 -0.162,-1.402 -0.16,-0.731 -0.552,-1.553 -1.167,-1.959 -0.722,-0.477 -1.692,-0.515 -2.376,-0.017 -1.115,0.811 -1.238,2.114 -1.339,3.352l0.037 0.727c0.029,0.218 0.057,0.488 0.104,0.692 0.095,0.419 0.22,0.831 0.413,1.15 0.22,0.365 0.38,0.595 0.709,0.853 0.267,0.211 0.713,0.409 1.184,0.409zm-5.721 -3.067c0,-0.691 -0.056,-2.373 0.173,-2.953 0.106,-0.269 0.285,-0.261 0.476,-0.261 0.503,0 0.501,1.19 0.501,1.563 0,0.722 0.043,2.246 -0.08,2.898 -0.056,0.294 -0.152,0.581 -0.48,0.581 -0.386,0 -0.48,-0.357 -0.523,-0.686 -0.047,-0.358 -0.067,-0.755 -0.067,-1.142zm-1.917 -1.062c0,1.124 0.031,2.083 0.613,3.014 0.726,1.159 2.076,1.459 3.103,0.731 0.308,-0.218 0.524,-0.498 0.725,-0.837 0.963,-1.625 0.917,-6.067 -1.785,-6.302 -0.96,-0.084 -1.589,0.421 -1.978,1.006 -0.423,0.637 -0.678,1.554 -0.678,2.388zm10.38 -2.182l0.443 0 0 5.102 -0.443 0 0 1.12 1.888 0c0.068,0 0.088,-0.02 0.088,-0.088l0 -0.944c0,-0.128 -0.125,-0.088 -0.413,-0.088l0 -1.74c0,-0.399 -0.031,-0.723 -0.029,-1.091 0.002,-0.354 -0.059,-0.711 -0.059,-1.062l0.088 0c0.018,0.216 0.494,1.683 0.603,1.964 0.081,0.21 0.157,0.418 0.227,0.628 0.137,0.413 0.322,0.824 0.471,1.238 0.074,0.205 0.159,0.407 0.236,0.62 0.037,0.1 0.075,0.198 0.115,0.298 0.033,0.083 0.098,0.239 0.118,0.324l1.356 0 0 -6.281 0.413 0 0 -1.12 -1.946 0 0 1.032c0,0.131 0.137,0.088 0.442,0.088l0 1.386c0,0.654 0.059,1.233 0.059,1.858l-0.088 0c-0.004,-0.139 -0.108,-0.442 -0.142,-0.566 -0.206,-0.759 -0.441,-1.464 -0.688,-2.203 -0.058,-0.174 -0.136,-0.363 -0.199,-0.537 -0.063,-0.175 -0.139,-0.368 -0.205,-0.532 -0.069,-0.169 -0.17,-0.349 -0.211,-0.526l-2.124 0 0 1.12zm-9.141 -19.964c0,0.558 0.481,1.091 1.032,1.091l0.324 0 0 2.064c-0.26,0.061 -0.519,0.092 -0.784,0.16 -0.766,0.194 -1.481,0.397 -2.205,0.655 -0.711,0.254 -1.32,0.56 -1.974,0.886 -1.125,0.562 -2.183,1.304 -3.137,2.112 -0.052,0.044 -0.071,0.072 -0.123,0.114l-1.339 1.286c-0.1,0.098 -0.141,0.172 -0.235,0.265 -0.452,0.452 -0.897,1.047 -1.256,1.576 -0.39,0.576 -0.786,1.168 -1.096,1.793 -0.437,0.88 -0.83,1.746 -1.147,2.687 -0.503,1.496 -0.829,3.287 -0.829,4.921 0,0.958 0.047,1.708 0.147,2.625 0.069,0.624 0.211,1.181 0.332,1.762 0.17,0.815 0.47,1.611 0.776,2.379 0.572,1.434 1.374,2.753 2.3,3.981 0.527,0.699 1.13,1.323 1.745,1.941 0.742,0.746 2.096,1.735 2.981,2.269 1.01,0.609 2.103,1.133 3.231,1.517 1.13,0.385 2.223,0.629 3.422,0.795 3.027,0.419 6.366,-0.107 9.119,-1.384 0.893,-0.414 1.886,-0.938 2.669,-1.519l2.038 -1.648c1.174,-1.13 2.171,-2.401 3.009,-3.803 0.402,-0.671 0.75,-1.379 1.048,-2.107 0.103,-0.25 0.212,-0.515 0.296,-0.766l0.38 -1.211c0.442,-1.624 0.596,-3.119 0.596,-4.831 0,-2.154 -0.53,-4.38 -1.364,-6.332 -0.284,-0.664 -0.592,-1.288 -0.959,-1.901 -0.562,-0.936 -1.191,-1.841 -1.916,-2.655 -0.056,-0.062 -0.079,-0.072 -0.125,-0.141l1.216 -1.201c0.523,0.346 0.644,0.966 1.468,0.966 0.709,0 1.182,-0.991 0.568,-1.601l-2.905 -2.904c-0.586,-0.594 -1.615,-0.229 -1.615,0.671 0,0.682 0.826,1.05 1.15,1.533l-1.202 1.217 -0.424 -0.357c-0.444,-0.359 -0.858,-0.697 -1.34,-1.019 -0.632,-0.421 -1.277,-0.829 -1.958,-1.168 -1.288,-0.64 -2.64,-1.121 -4.053,-1.432 -0.231,-0.051 -0.448,-0.08 -0.666,-0.131l0 -2.064 0.325 0c0.536,0 1.032,-0.53 1.032,-1.061 0,-0.585 -0.486,-1.121 -1.062,-1.121l-6.429 0c-0.557,0 -1.061,0.531 -1.061,1.091z"/>
 </g>
</svg>
