<?xml version="1.0" encoding="UTF-8"?>
<!DOCTYPE svg PUBLIC "-//W3C//DTD SVG 1.1//EN" "http://www.w3.org/Graphics/SVG/1.1/DTD/svg11.dtd">
<!-- Creator: CorelDRAW -->
<svg xmlns="http://www.w3.org/2000/svg" xml:space="preserve" width="143px" height="183px" version="1.1" style="shape-rendering:geometricPrecision; text-rendering:geometricPrecision; image-rendering:optimizeQuality; fill-rule:evenodd; clip-rule:evenodd"
viewBox="0 0 26.872 34.413"
 xmlns:xlink="http://www.w3.org/1999/xlink"
 xmlns:xodm="http://www.corel.com/coreldraw/odm/2003">
 <defs>
  <style type="text/css">
   <![CDATA[
    .fil0 {fill:#FE6035}
   ]]>
  </style>
 </defs>
 <g id="Layer_x0020_1">
  <metadata id="CorelCorpID_0Corel-Layer"/>
  <polygon class="fil0" points="9.438,3.998 13.436,0 17.434,3.998 15.128,6.304 15.128,9.972 20.568,9.972 22.874,7.666 26.872,11.664 22.874,15.662 20.568,13.357 15.128,13.357 15.128,28.109 17.434,30.415 17.413,30.436 22.645,30.436 22.645,34.288 13.561,34.288 13.436,34.413 13.311,34.288 4.776,34.288 4.776,30.436 9.459,30.436 9.438,30.415 11.744,28.109 11.744,13.357 6.304,13.357 3.998,15.662 0,11.664 3.998,7.666 6.304,9.972 11.744,9.972 11.744,6.304 "/>
 </g>
</svg>
