<?xml version="1.0" encoding="UTF-8"?>
<!DOCTYPE svg PUBLIC "-//W3C//DTD SVG 1.1//EN" "http://www.w3.org/Graphics/SVG/1.1/DTD/svg11.dtd">
<!-- Creator: CorelDRAW -->
<svg xmlns="http://www.w3.org/2000/svg" xml:space="preserve" width="168px" height="157px" version="1.1" style="shape-rendering:geometricPrecision; text-rendering:geometricPrecision; image-rendering:optimizeQuality; fill-rule:evenodd; clip-rule:evenodd"
viewBox="0 0 31.897 29.913"
 xmlns:xlink="http://www.w3.org/1999/xlink"
 xmlns:xodm="http://www.corel.com/coreldraw/odm/2003">
 <defs>
  <style type="text/css">
   <![CDATA[
    .fil0 {fill:#FE6035}
   ]]>
  </style>
 </defs>
 <g id="Layer_x0020_1">
  <metadata id="CorelCorpID_0Corel-Layer"/>
  <g id="_2471322459504">
   <path class="fil0" d="M0.03 25.432c0,1.837 -0.564,2.169 3.206,3.583 8.112,3.041 18.625,-1.887 20.764,-11.065 -0.931,-0.624 -1.959,-1.654 -3.187,-1.94 -0.374,0.779 -0.16,1.787 -1.529,4.153 -2.531,4.375 -8.317,7.22 -13.411,5.937 -0.761,-0.191 -1.495,-0.494 -2.24,-0.668 0,-2.706 1.991,-6.449 3.741,-7.621 -0.324,-1.39 -0.416,-2.418 -0.416,-4.156 -3.439,1.82 -6.928,7.506 -6.928,11.777z"/>
   <path class="fil0" d="M11.807 11.3c-0.146,1.759 -0.277,1.423 -0.277,3.741 1.622,-0.037 5.802,-2.282 11.334,1.412 0.576,0.384 1.158,0.79 1.657,1.253 1.701,1.576 3.774,4.519 3.774,7.726 -0.735,0.171 -1.308,0.429 -2.131,0.64 -1.518,0.388 -3.3,0.435 -4.856,0.112 -1.459,-0.304 -1.063,-0.571 -1.807,0.007l-2.845 2.151c6.834,3.616 15.241,-0.127 15.241,-1.247 0,-3.23 -0.378,-5.679 -2.049,-8.342 -2.396,-3.819 -5.703,-6.36 -10.224,-7.512 -2.053,-0.523 -3.88,-0.612 -5.942,-0.283 -0.703,0.113 -1.261,0.328 -1.875,0.342z"/>
   <path class="fil0" d="M7.512 13.1c0,4.256 0.548,6.615 2.826,10.061 1.718,2.599 1.827,2.158 3.456,1.348l1.615 -0.878c-0.188,-0.705 -1.146,-1.279 -1.622,-1.842 -4.601,-5.435 -3.261,-14.192 2.177,-17.833 1.895,1.269 3.817,3.843 4.403,6.127 0.321,1.256 0.063,0.661 2.565,1.73 0.597,0.254 0.931,0.605 1.484,0.734 0,-2.663 -1.45,-5.761 -2.826,-7.843 -1.002,-1.516 -4.668,-5.017 -5.804,-4.681 -0.743,0.22 -2.617,1.599 -3.181,2.098 -2.762,2.44 -5.093,6.894 -5.093,10.979z"/>
   <path class="fil0" d="M24 22.522c0,0.522 0.091,0.262 0.138,0.832 -1.327,-0.889 -0.838,-0.576 -1.247,0.277l0.555 0c0.133,1.606 1.588,0.831 1.662,0.831 0.482,0 0.195,0.245 0.832,0.416 0.728,-0.692 0.343,-0.735 0.554,-1.247 -0.764,0.063 -0.547,0.378 -1.525,-0.139 0.197,-0.293 0.838,-0.911 0.278,-2.078 -0.208,0.139 -1.247,0.887 -1.247,1.108z"/>
   <path class="fil0" d="M15.964 7.281c0,1.532 -0.926,1.194 -1.3,0.745 -0.284,-0.341 -0.212,-0.206 -0.224,-0.745 -1.153,0.096 -0.159,-0.108 0.416,2.356 0.804,0.018 0.496,0.293 1.975,0.035 0.618,-0.107 0.515,0.032 0.725,-0.521 0.131,-0.345 0.152,-0.615 0.29,-0.957 0.207,-0.516 0.301,-0.299 0.473,-0.774 -0.253,-0.125 -0.173,-0.107 -0.554,-0.139 -0.018,0.807 -0.689,1.487 -1.171,1.046 -0.537,-0.491 -0.276,-1.156 -0.191,-1.734 -0.986,0.076 -0.439,0.258 -0.439,0.688z"/>
   <polygon class="fil0" points="7.235,22.107 6.404,22.107 6.404,22.661 7.235,22.661 7.235,25.432 7.927,25.432 7.927,22.661 8.759,22.661 8.759,22.107 7.927,22.107 7.927,21.137 7.235,21.137 "/>
  </g>
 </g>
</svg>
