<?xml version="1.0" encoding="UTF-8"?>
<!DOCTYPE svg PUBLIC "-//W3C//DTD SVG 1.1//EN" "http://www.w3.org/Graphics/SVG/1.1/DTD/svg11.dtd">
<!-- Creator: CorelDRAW -->
<svg xmlns="http://www.w3.org/2000/svg" xml:space="preserve" width="227px" height="195px" version="1.1" style="shape-rendering:geometricPrecision; text-rendering:geometricPrecision; image-rendering:optimizeQuality; fill-rule:evenodd; clip-rule:evenodd"
viewBox="0 0 100.498 86.482"
 xmlns:xlink="http://www.w3.org/1999/xlink"
 xmlns:xodm="http://www.corel.com/coreldraw/odm/2003">
 <defs>
  <style type="text/css">
   <![CDATA[
    .fil0 {fill:#FE6035}
   ]]>
  </style>
 </defs>
 <g id="Layer_x0020_1">
  <metadata id="CorelCorpID_0Corel-Layer"/>
  <path class="fil0" d="M9.266 82.973l0 -30.081c0,-0.183 0.04,-0.205 0.053,-0.371l3.402 -0.107c0.578,0 1.033,0.064 1.541,0.107 0.005,0.24 0.053,0.211 0.053,0.478l0 30.24c0,0.124 -0.088,0.212 -0.212,0.212l-4.571 0c-0.208,0 -0.266,-0.263 -0.266,-0.478zm8.025 -29.868c0,-0.357 0.053,-0.369 0.053,-0.638 0.325,-0.027 0.232,-0.106 0.798,-0.106 1.229,0 2.394,0.993 2.393,2.23 -0.001,1.574 0.051,2.985 0.051,4.573l-0.053 18.867c-0.003,0.372 0.055,0.506 0.055,0.848 0.001,0.915 0.021,1.893 -0.122,2.751 -0.064,0.383 -0.068,0.354 -0.262,0.642 -0.609,0.902 -0.775,0.738 -1.371,1.02 -0.502,0.236 -0.127,0.159 -1.17,0.159 -0.143,0 -0.146,-0.025 -0.265,-0.053 -0.141,-0.603 0.026,-1.428 -0.068,-2.111 -0.085,-0.621 -0.039,-1.482 -0.039,-2.194l0 -18.707c0,-1.26 0.053,-2.407 0.053,-3.614 0,-1.229 -0.053,-2.388 -0.053,-3.667zm-11.373 30.399c-1.818,0 -2.87,-0.899 -2.87,-2.763l0 -25.723c0,-0.825 0.2,-1.449 0.624,-1.874 0.201,-0.202 0.444,-0.396 0.705,-0.517 0.358,-0.168 1.89,-0.631 1.916,0.157l0.05 1.969c0.001,0.394 -0.045,0.639 -0.054,0.954 -0.04,1.32 0.001,2.713 0.001,4.041 0,1.257 0.082,23.269 -0.046,23.55 -0.059,0.128 -0.157,0.206 -0.326,0.206zm39.965 -23.49c0,0.593 0.106,1.442 0.234,1.946 0.282,1.114 0.714,2.062 1.507,2.85 0.433,0.431 0.648,0.652 1.199,0.98 1.461,0.87 3.513,1.188 5.351,1.186 0.312,0 0.788,0.06 0.985,0.033 0.883,-0.123 2.208,0.018 3.206,-0.094l2.027 -0.152c0.647,-0.02 1.377,-0.118 1.982,-0.197l3.872 -0.486c1.818,-0.307 3.766,-0.59 5.52,-1.017 0.59,-0.143 1.137,-0.29 1.723,-0.455 1.097,-0.311 2.182,-0.684 3.217,-1.141l1.1 -0.495c0.153,-0.075 0.254,-0.102 0.408,-0.176l4.393 -2.144c0.492,-0.247 0.946,-0.5 1.435,-0.744 0.249,-0.125 0.436,-0.224 0.721,-0.342l3.584 -1.89c0.134,-0.066 0.205,-0.11 0.341,-0.191 0.132,-0.079 0.227,-0.114 0.347,-0.184 0.243,-0.14 0.453,-0.249 0.729,-0.387 0.268,-0.134 0.44,-0.231 0.691,-0.371l3.578 -1.897c1.438,-0.717 1.653,-0.914 2.293,-0.113 0.373,0.466 0.691,0.963 0.913,1.532 0.144,0.37 0.249,0.876 0.249,1.292 0,0.451 -1.224,1.621 -1.555,1.953 -0.979,0.982 -2.099,1.848 -3.159,2.74 -1.934,1.628 -3.931,3.157 -5.953,4.676l-2.028 1.48c-0.452,0.342 -0.889,0.64 -1.358,0.98l-1.753 1.223c-0.142,0.098 -0.197,0.15 -0.339,0.245 -1.585,1.061 -5.071,3.561 -6.541,4.089 -0.564,0.202 -1.167,0.388 -1.754,0.584 -2.396,0.798 -4.819,1.442 -7.214,2.246 -1.785,0.598 -3.618,1.077 -5.409,1.66l-5.526 1.595c-1.248,0.364 -2.503,0.652 -3.764,0.965 -3.081,0.766 -4.665,1.098 -7.93,0.351 -4.629,-1.06 -9.042,-3.736 -13.521,-4.283 -0.864,-0.105 -5.352,-0.631 -6.122,-1 0,-0.683 -0.053,-1.172 -0.053,-1.86l-0.001 -9.09c0,-0.319 0.053,-0.385 0.057,-0.687l-0.003 -4.253c0,-0.531 0.054,-0.851 0.054,-1.382 1.245,-0.29 2.643,-0.335 3.875,-0.589 0.599,-0.123 1.213,-0.312 1.769,-0.463 0.581,-0.158 1.183,-0.315 1.707,-0.578 0.991,-0.497 1.7,-1.232 2.467,-1.997 0.096,-0.096 0.177,-0.166 0.264,-0.268l1.038 -1.194c0.722,-0.772 1.404,-1.627 2.1,-2.418l1.088 -1.144c0.513,-0.507 1.575,-1.389 2.188,-1.798 2.883,-1.922 5.15,-1.934 8.482,-1.934 1.252,0 3.702,0.229 4.903,0.465 1.944,0.38 3.845,0.353 4.913,2.262 0.13,0.233 0.209,0.321 0.291,0.612l0.15 0.966c0,0.217 -0.074,0.41 -0.182,0.562 -0.007,0.009 -0.017,0.021 -0.023,0.03 -0.034,0.046 -0.033,0.045 -0.07,0.09 -0.098,0.121 -0.037,0.082 -0.19,0.182 -0.228,0.148 -0.685,0.208 -0.889,0.361 -0.101,0.076 -0.152,0.14 -0.392,0.217l-3.686 1.098c-0.713,0.199 -1.458,0.366 -2.122,0.588 -0.352,0.118 -0.635,0.213 -0.979,0.35 -0.424,0.168 -0.503,0.16 -0.944,0.384 -0.726,0.37 -0.744,0.189 -1.811,0.899 -0.549,0.366 -1.032,0.769 -1.326,1.385 -0.336,0.702 -0.232,1.034 -0.308,1.712 -0.024,0.216 -0.046,0.351 -0.046,0.645zm32.951 -36.564c0.362,0 0.763,0.799 0.946,1.074 0.287,0.431 0.535,0.814 0.818,1.254 0.538,0.839 1.081,1.621 1.627,2.465 0.273,0.424 0.495,0.818 0.776,1.244 0.281,0.427 0.519,0.864 0.778,1.294 1.434,2.382 3.178,6.023 3.714,8.616 0.488,2.362 0.269,5.116 0.269,7.862 0,1.845 0.219,5.316 0.064,6.866 -0.051,0.511 -0.034,0.456 -1.021,0.947l-4.753 2.474c-0.85,0.481 -1.73,0.906 -2.616,1.316l-1.364 0.656c-1.72,0.862 -3.785,1.761 -5.638,2.228 -2.162,0.545 -4.372,1.015 -6.584,1.334 -2.651,0.384 -6.941,0.867 -9.656,0.867 -2.854,0 -6.818,0.379 -7.268,-3.256 -0.023,-0.186 -0.075,-0.696 -0.066,-0.832 0.057,-0.865 0.25,-1.103 0.902,-1.388 1.682,-0.735 3.447,-1.242 5.203,-1.758 1.05,-0.309 3.99,-1.057 4.886,-1.599 0.376,-0.227 0.768,-0.466 1.087,-0.772 0.405,-0.388 0.942,-1.278 0.942,-1.875 0,-1.519 0.087,-2.118 -0.602,-3.596 -0.128,-0.275 -0.278,-0.593 -0.438,-0.837 -0.875,-1.331 -2.1,-2.228 -3.753,-2.678 -0.68,-0.184 -1.371,-0.345 -2.067,-0.484 -0.695,-0.139 -1.478,-0.282 -2.184,-0.367 -0.525,-0.063 -1.205,-0.167 -1.742,-0.171 -0.823,-0.006 -1.572,-0.113 -2.394,-0.158 -1.114,-0.06 -2.178,0.053 -3.295,0.107 -0.682,0.033 -1.474,0.173 -2.139,0.306 -0.499,0.1 -1.042,0.225 -1.581,0.225 0,-1.465 0.192,-2.963 0.425,-4.358 0.248,-1.488 0.712,-2.379 1.293,-3.542 1.847,-3.693 3.312,-5.789 5.692,-8.818 0.179,-0.228 0.366,-0.406 0.539,-0.629 0.121,-0.156 0.143,-0.177 0.276,-0.309 0.139,-0.139 0.164,-0.21 0.291,-0.347 0.41,-0.443 0.774,-0.819 1.197,-1.247 0.392,-0.396 0.736,-0.869 1.174,-1.218 0.455,-0.364 0.823,-0.809 1.275,-1.17 0.549,-0.437 1.369,-1.403 2.068,-1.549 0.468,-0.098 2.236,0.638 2.765,0.771 0.626,0.158 1.182,0.391 1.858,0.534 1.525,0.323 3.051,0.745 4.638,0.783 0.544,0.013 1.157,0.113 1.7,0.107 0.95,-0.01 2.78,0.142 4.041,0.157 0.287,0.004 0.313,0.049 0.581,0.057 0.351,0.011 0.928,-0.064 1.141,-0.029 0.452,0.072 0.494,0.215 0.585,0.642 0.406,1.917 1.241,3.274 2.793,4.434l1.636 1.393c0.127,0.127 0.153,0.191 0.265,0.32l0.818 0.989c0.679,0.899 1.06,2.66 1.032,3.775 -0.016,0.639 -0.137,1.334 -0.137,2.027 0,1.62 2.261,1.836 2.871,0.426 0.217,-0.502 0.264,-1.579 0.264,-2.286 0,-2.767 -0.79,-4.986 -2.456,-6.897 -0.131,-0.151 -0.17,-0.223 -0.32,-0.372l-1.815 -1.532c-0.807,-0.533 -1.511,-1.265 -1.847,-2.193 -0.132,-0.364 -0.303,-0.753 0.198,-0.88l2.308 -0.403zm-20.461 -20.408c1.592,0 2.274,0.274 3.53,1.147 1.401,0.975 1.613,2.437 4.585,3.599 2.757,1.078 6.113,0.519 8.983,0.023 0.855,-0.148 2.545,-0.599 3.521,-0.837 1.959,-0.476 1.649,-0.392 1.649,2.02 0,3.071 -0.534,6.552 -1.202,9.481 -0.089,0.389 -0.331,1.521 -0.599,1.793 -0.411,0.416 -4.428,0.79 -5.215,0.79l-1.275 -0.053c-0.204,-0.011 -0.433,0.005 -0.64,0.002 -0.295,-0.003 -0.338,-0.053 -0.633,-0.057 -0.922,-0.011 -1.684,-0.048 -2.608,-0.049 -0.293,-0.001 -0.342,-0.042 -0.583,-0.055 -0.223,-0.013 -0.468,0.008 -0.693,0.002l-3.62 -0.366c-1.518,-0.251 -2.9,-0.628 -4.278,-1.037 -0.715,-0.212 -1.327,-0.419 -1.979,-0.678 -0.635,-0.253 -0.634,-0.849 -0.93,-1.728l-0.796 -2.498c-0.053,-0.193 -0.089,-0.403 -0.129,-0.562 -0.391,-1.547 -0.748,-2.63 -1.07,-4.245 -0.568,-2.846 -1.577,-4.607 1.82,-6.196 0.447,-0.21 1.533,-0.496 2.162,-0.496zm-7.653 3.189c0,1.318 0.98,5.311 1.349,6.782 0.135,0.535 0.253,1.074 0.398,1.568 0.16,0.544 0.305,1.007 0.466,1.554 0.152,0.519 0.314,0.965 0.466,1.5 0.155,0.542 0.329,1.019 0.456,1.563 -0.303,0.453 -0.985,0.846 -1.436,1.169l-1.403 1.2c-0.152,0.117 -0.152,0.101 -0.273,0.258 -0.154,0.2 -0.802,0.731 -1.314,1.344 -0.544,0.651 -1.53,1.587 -2.012,2.186 -0.637,0.791 -1.298,1.482 -1.863,2.336 -0.696,1.051 -1.475,1.964 -2.132,3.076l-2.339 3.986c-0.133,0.238 -0.239,0.476 -0.355,0.708 -1.336,2.672 -1.48,3.448 -1.875,6.521 -0.121,0.94 -0.161,1.938 -0.259,2.877 -0.239,2.286 -0.021,1.496 -1.439,2.76 -0.199,0.178 -0.37,0.313 -0.558,0.504 -0.423,0.429 -0.935,0.809 -1.327,1.278 -0.557,0.666 -1.158,1.261 -1.783,1.883l-2.764 3.029c-0.103,0.099 -0.164,0.166 -0.265,0.267 -0.897,0.897 -1.491,0.755 -2.532,1.135 -0.127,0.046 -0.244,0.138 -0.354,0.178 -0.319,0.116 -1.427,0.246 -1.835,0.29 -0.677,0.074 -1.407,0.384 -2.121,0.217 -0.18,-0.375 -0.107,-1.108 -0.107,-1.647 0.001,-0.646 -0.033,-1.11 -0.181,-1.627 -0.494,-1.73 -1.84,-3.005 -3.558,-3.563 -0.486,-0.158 -0.999,-0.179 -1.63,-0.177 -0.362,0.002 -0.485,-0.057 -0.847,-0.056 -2.534,0.011 -5.069,0.011 -7.603,0 -0.405,-0.001 -0.704,0.055 -1.168,0.055 -2.65,-0.001 -4.867,-0.401 -6.937,1.513 -1.26,1.165 -1.423,2.804 -1.563,4.495 -0.07,0.843 0.05,2.009 0.05,2.974l0 21.258c0,2.422 0.031,4.069 1.926,5.621 0.952,0.78 1.985,1.234 3.389,1.234l10.469 0c0.591,0 1.198,0.012 1.709,-0.045 1.625,-0.182 1.455,0.239 3.322,-0.664 0.489,-0.236 0.393,-0.181 0.846,-0.536l1.21 -1.447c0.052,-0.126 0.059,-0.19 0.1,-0.325 0.189,-0.615 0.472,-1.048 0.467,-1.818 -0.002,-0.339 0.004,-0.606 0.038,-0.866 0.111,-0.873 -0.138,-0.786 1.806,-0.501 0.472,0.069 1.009,0.178 1.506,0.247l3.08 0.428c0.522,0.087 0.983,0.178 1.441,0.313 2.606,0.766 5.169,1.863 7.708,2.815 0.438,0.165 0.894,0.279 1.327,0.426 0.865,0.293 1.811,0.536 2.779,0.729 3.859,0.772 6.181,0.106 9.916,-0.828l8.988 -2.545c4.266,-1.319 8.531,-2.559 12.769,-3.972 0.617,-0.206 1.27,-0.428 1.84,-0.711l3.232 -1.923c0.268,-0.173 0.499,-0.333 0.764,-0.511 1.281,-0.859 2.582,-1.69 3.824,-2.607l11.218 -8.606c0.139,-0.121 0.242,-0.192 0.373,-0.317l1.019 -0.894c0.757,-0.585 2.356,-2.271 2.805,-2.988 0.734,-1.171 0.651,-2.69 0.262,-3.951 -0.183,-0.592 -0.402,-1.048 -0.681,-1.55 -0.49,-0.88 -1.313,-1.837 -2.121,-2.397 -1.211,-0.841 -1.963,-0.818 -3.352,-0.174 -3.28,1.521 -3.125,2.191 -3.206,0.621l-0.054 -1.116c0,-1.368 -0.083,-6.408 0.046,-7.555 0.068,-0.606 -0.032,-1.386 -0.047,-1.957 -0.053,-1.911 -0.492,-3.364 -1.107,-5.005 -0.553,-1.474 -1.136,-2.939 -1.832,-4.333 -0.122,-0.244 -0.236,-0.414 -0.355,-0.655l-3.061 -5.123c-0.812,-1.217 -1.533,-2.524 -2.42,-3.691 -0.68,-0.894 -0.245,-1.21 0.094,-2.206 0.534,-1.565 0.752,-3.22 0.999,-4.9 0.348,-2.361 1.097,-8.277 0.12,-10.37 -0.185,-0.397 -0.474,-0.752 -0.85,-0.957 -1.176,-0.643 -2.876,-0.227 -4.054,0.006l-2.381 0.541c-1.508,0.383 -3.472,0.818 -5.028,0.818 -1.496,0 -3.006,-0.112 -4.177,-0.818 -1.583,-0.955 -2.002,-2.45 -4.521,-3.717 -2.563,-1.288 -5.549,-1.042 -8.007,0.32 -0.56,0.311 -1.451,1.007 -1.91,1.491 -0.927,0.973 -1.58,2.035 -1.58,3.575z"/>
 </g>
</svg>
