<?xml version="1.0" encoding="UTF-8"?>
<!DOCTYPE svg PUBLIC "-//W3C//DTD SVG 1.1//EN" "http://www.w3.org/Graphics/SVG/1.1/DTD/svg11.dtd">
<!-- Creator: CorelDRAW -->
<svg xmlns="http://www.w3.org/2000/svg" xml:space="preserve" width="228px" height="189px" version="1.1" style="shape-rendering:geometricPrecision; text-rendering:geometricPrecision; image-rendering:optimizeQuality; fill-rule:evenodd; clip-rule:evenodd"
viewBox="0 0 47.535 39.321"
 xmlns:xlink="http://www.w3.org/1999/xlink"
 xmlns:xodm="http://www.corel.com/coreldraw/odm/2003">
 <defs>
  <style type="text/css">
   <![CDATA[
    .fil0 {fill:#FE6035}
   ]]>
  </style>
 </defs>
 <g id="Layer_x0020_1">
  <metadata id="CorelCorpID_0Corel-Layer"/>
  <g id="_2473908952928">
   <path class="fil0" d="M10.293 39.321c1.842,0 3.31,-0.692 4.744,-1.594 0.728,-0.457 1.392,-0.959 2.025,-1.517 0.544,-0.48 1.436,-1.304 1.826,-1.809 0.131,-0.17 0.249,-0.243 0.38,-0.413 0.458,-0.592 0.973,-1.143 1.425,-1.744 0.684,-0.913 1.333,-1.848 1.931,-2.823 0.258,-0.422 1.098,-1.601 1.138,-2.078 -0.241,-0.02 -1.298,-0.61 -1.536,-0.748 -0.381,-0.22 -1.126,-0.636 -1.587,-0.743 -0.079,0.338 -0.254,0.743 -0.403,1.041 -0.48,0.955 -1.072,1.847 -1.657,2.725 -0.202,0.303 -0.386,0.557 -0.587,0.858 -0.584,0.877 -1.255,1.701 -1.88,2.547 -0.301,0.408 -0.728,0.704 -1.052,1.092 -0.142,0.17 -0.194,0.237 -0.352,0.394 -0.24,0.24 -0.474,0.503 -0.722,0.722 -0.136,0.12 -0.272,0.212 -0.416,0.33 -0.163,0.133 -0.275,0.198 -0.434,0.311 -2.502,1.777 -4.86,2.404 -7.365,0.467 -0.239,-0.185 -1.435,-1.35 -1.659,-1.651 -0.176,-0.236 -0.289,-0.426 -0.447,-0.671 -2.241,-3.462 -2.364,-9.313 -0.573,-12.895 0.051,-0.102 0.093,-0.164 0.147,-0.272 0.103,-0.206 0.186,-0.352 0.304,-0.536 0.917,-1.428 1.905,-1.873 3.627,-1.873 2.251,0 4.302,0.804 6.318,1.605 1.026,0.408 2.654,1.159 3.61,1.657 0.164,0.086 0.245,0.155 0.425,0.228 0.466,0.187 0.899,0.437 1.345,0.658l7.053 3.527c2.635,1.317 4.535,2.324 7.447,3.179 3.88,1.14 7.932,1.026 11.181,-1.485l0.452 -0.387c0.451,-0.373 1.099,-1.363 1.35,-1.866 0.202,-0.405 0.309,-0.659 0.464,-1.121 0.289,-0.862 0.462,-1.686 0.597,-2.618 0.054,-0.371 0.154,-1.158 0.113,-1.505 -0.154,-1.317 -0.34,-3.916 -0.852,-5.162 -0.057,-0.138 -0.086,-0.153 -0.12,-0.298l-0.093 0c0,0.547 0.139,1.122 0.139,1.677 0,2.571 -0.177,4.987 -1.593,7.076 -2.686,3.963 -8.269,2.616 -11.917,1.121 -0.622,-0.255 -1.222,-0.531 -1.839,-0.817l-4.955 -2.269c-1.329,-0.669 -2.731,-1.191 -4.055,-1.864 -0.3,-0.152 -0.602,-0.271 -0.901,-0.404 -0.297,-0.132 -0.604,-0.298 -0.919,-0.433 -0.186,-0.079 -0.275,-0.117 -0.448,-0.204l-3.171 -1.444c-0.296,-0.142 -0.583,-0.29 -0.889,-0.416 -0.192,-0.079 -0.283,-0.126 -0.445,-0.207 -0.151,-0.074 -0.288,-0.118 -0.452,-0.201 -0.592,-0.298 -1.273,-0.526 -1.908,-0.748 -2.173,-0.76 -4.955,-1.353 -7.282,-0.488 -0.615,0.229 -1.214,0.578 -1.739,0.965 -2.368,1.748 -3.389,3.837 -3.894,6.825 -0.509,3.008 0.037,6.443 1.132,9.189l0.626 1.33c0.387,0.74 0.819,1.415 1.318,2.085l0.906 1.052c0.142,0.141 0.237,0.186 0.375,0.324 0.433,0.431 1.011,0.836 1.546,1.157 1.032,0.618 2.545,1.162 4.198,1.162z"/>
   <path class="fil0" d="M5.259 25.992c0,1.571 0.263,2.598 1.165,3.868 0.158,0.223 0.298,0.425 0.477,0.642 0.091,0.11 0.158,0.194 0.248,0.31 0.291,0.372 0.71,0.895 1.056,1.182 0.278,0.231 0.301,0.196 0.689,0.196 0.565,0 3.372,-1.567 4.016,-2.043 0.62,-0.458 1.854,-1.599 2.177,-2.39 0.252,-0.616 0.239,-1.087 0.239,-1.765 0,-0.659 -0.562,-1.574 -0.848,-1.996 -0.329,-0.485 -1.05,-1.22 -1.669,-1.22 -0.654,0 -1.025,0.116 -1.527,0.663 -0.199,0.218 -0.688,0.858 -0.757,1.154 -0.164,-0.044 -0.238,-0.159 -0.327,-0.278 -0.088,-0.118 -0.161,-0.217 -0.259,-0.347 -0.416,-0.556 -1.246,-1.705 -2.07,-1.705 -0.436,0 -0.446,-0.02 -0.841,0.185 -0.973,0.505 -1.769,2.488 -1.769,3.544z"/>
   <path class="fil0" d="M23.249 18.581c0.28,0.065 0.524,0.199 0.821,0.297 1.07,0.353 1.423,0.516 2.442,1.055 0.062,-0.266 1.549,-3.518 1.786,-3.993 1.02,-2.04 2.239,-3.98 3.66,-5.755 0.118,-0.148 0.238,-0.226 0.36,-0.386 0.409,-0.534 1.913,-1.533 2.505,-1.829 2.023,-1.011 3.923,-0.737 5.614,0.648 0.705,0.578 0.88,0.768 1.443,1.399 1.577,1.769 2.809,5.191 2.809,8.051 0,1.269 -0.355,3.093 -0.964,4.163 -0.11,0.192 -0.195,0.261 -0.202,0.545 0.334,-0.224 0.588,-0.537 0.791,-0.887 0.22,-0.38 0.345,-0.716 0.497,-1.181 0.44,-1.339 0.437,-2.644 0.437,-4.084 0,-2.997 -1.355,-5.754 -3.202,-7.938 -0.712,-0.842 -2.201,-1.947 -3.216,-2.377 -0.158,-0.067 -0.339,-0.117 -0.486,-0.166 -1.549,-0.522 -3.633,-0.415 -5.121,0.18 -0.498,0.199 -1.364,0.616 -1.845,0.905 -0.661,0.397 -1.037,0.702 -1.631,1.166 -1.15,0.898 -2.427,2.717 -3.275,3.856 -0.13,0.175 -0.19,0.289 -0.314,0.478 -0.118,0.18 -0.197,0.301 -0.308,0.484 -0.106,0.176 -0.19,0.313 -0.297,0.495l-0.564 1.021c-0.422,0.844 -1.674,3.057 -1.74,3.853z"/>
   <path class="fil0" d="M24.554 7.768c1.207,0 2.142,-0.254 2.932,-1.076 1.433,-1.494 1.566,-3.991 -0.007,-5.577 -1.108,-1.117 -2.789,-1.417 -4.317,-0.798 -0.66,0.267 -1.214,0.75 -1.631,1.305 -0.136,0.181 -0.276,0.396 -0.38,0.599 -0.494,0.962 -0.512,2.085 -0.059,3.137 0.099,0.232 0.22,0.428 0.348,0.63 0.651,1.02 1.648,1.78 3.114,1.78z"/>
   <path class="fil0" d="M8.102 8.001c0,0.849 -0.066,1.59 0.335,2.322 0.208,0.379 0.41,0.592 0.695,0.889 0.007,0.007 0.016,0.017 0.023,0.024l0.54 0.485c1.626,1.09 3.594,0.948 4.99,-0.446 0.649,-0.648 1.107,-1.63 1.107,-2.575 0,-0.76 -0.01,-1.356 -0.41,-2.013 -0.365,-0.602 -0.364,-0.553 -0.836,-1.028 -0.287,-0.289 -0.728,-0.555 -1.144,-0.721 -1.257,-0.501 -2.417,-0.448 -3.549,0.294 -0.113,0.074 -0.172,0.114 -0.271,0.195 -0.658,0.543 -1.48,1.489 -1.48,2.574z"/>
   <path class="fil0" d="M37.371 14.247c0,0.558 -0.169,0.998 -0.419,1.352 -0.882,1.246 -2.277,0.794 -1.65,-0.998 0.09,-0.258 0.242,-0.535 0.298,-0.774 -0.589,0.137 -1.491,0.837 -1.491,1.538 0,1.156 0.475,1.585 0.155,1.973 -0.404,0.488 -1.134,0.27 -1.134,-1.367 -0.315,0.084 -0.47,0.829 -0.586,1.092 -0.16,0.36 -0.253,1.012 -0.253,1.425 0,1.012 0.633,2.048 1.445,2.237 0,-0.663 -0.511,-1.165 -0.326,-1.957 0.28,0.074 1.222,1.21 1.919,0.194 0.16,-0.234 0.191,-0.467 0.318,-0.707 0.387,0.26 0.681,0.558 1.214,0.282 0.309,-0.16 0.751,-0.616 0.836,-0.981l0.094 0c0.138,0.593 0.359,1.984 1.259,1.729 0.292,-0.083 0.41,-0.25 0.652,-0.378l0.932 1.585 0.18 -0.892c0.201,-1.173 0.12,-2.254 -0.326,-3.343 -0.054,-0.132 -0.172,-0.444 -0.274,-0.519 0,0.452 -0.009,2.004 -0.606,2.004 -0.914,0 -0.798,-2.415 -1.071,-3.449 -0.175,-0.663 -0.37,-0.998 -0.827,-1.457 -0.302,-0.302 -0.993,-0.721 -1.551,-0.733 0.161,0.24 0.533,0.442 0.803,0.875 0.217,0.349 0.409,0.721 0.409,1.269z"/>
  </g>
 </g>
</svg>
