<?xml version="1.0" encoding="UTF-8"?>
<!DOCTYPE svg PUBLIC "-//W3C//DTD SVG 1.1//EN" "http://www.w3.org/Graphics/SVG/1.1/DTD/svg11.dtd">
<!-- Creator: CorelDRAW -->
<svg xmlns="http://www.w3.org/2000/svg" xml:space="preserve" width="217px" height="209px" version="1.1" style="shape-rendering:geometricPrecision; text-rendering:geometricPrecision; image-rendering:optimizeQuality; fill-rule:evenodd; clip-rule:evenodd"
viewBox="0 0 32.051 30.868"
 xmlns:xlink="http://www.w3.org/1999/xlink"
 xmlns:xodm="http://www.corel.com/coreldraw/odm/2003">
 <defs>
  <style type="text/css">
   <![CDATA[
    .fil0 {fill:#FE6035}
   ]]>
  </style>
 </defs>
 <g id="Layer_x0020_1">
  <metadata id="CorelCorpID_0Corel-Layer"/>
  <g id="_2473119698448">
   <path class="fil0" d="M22.142 29.72l0 1.077c0.181,0 0.323,0.036 0.556,0.035l8.24 0.036c0.228,0 0.334,-0.038 0.589,-0.036 0.67,0.005 0.438,0.046 0.492,-0.447 0.011,-0.095 0.039,-0.145 0.03,-0.28 -0.01,-0.13 -0.031,-0.118 -0.036,-0.28 -0.049,-1.763 -0.883,-2.749 -2.592,-3.317 -1.999,-0.663 -5.397,-0.453 -6.673,1.315l-0.369 0.569c-0.029,0.068 -0.237,1.126 -0.237,1.328z"/>
   <path class="fil0" d="M0.035 30.693l0 0.104c0.792,0 1.466,0.035 2.259,0.035l7.613 0c0,-1.134 0.038,-2.419 -0.825,-3.276 -0.186,-0.185 -0.369,-0.38 -0.593,-0.52 -0.929,-0.581 -2.085,-0.862 -3.553,-0.862 -1.42,0 -2.948,0.367 -3.709,1.019 -0.455,0.39 -0.765,0.758 -0.988,1.375 -0.233,0.643 -0.177,1.015 -0.235,1.541 -0.018,0.163 0.031,0.366 0.031,0.584z"/>
   <path class="fil0" d="M11.089 30.033c0,0.48 -0.073,0.799 0.104,0.799l9.768 0c0,-0.726 0.031,-1.113 -0.113,-1.834 -0.029,-0.145 -0.069,-0.302 -0.092,-0.463 -0.026,-0.177 0.009,-0.084 -0.077,-0.202 -0.388,-0.538 -0.572,-0.968 -1.167,-1.336 -1.479,-0.914 -3.832,-0.999 -5.559,-0.566 -0.839,0.211 -1.555,0.512 -2.09,1.144 -0.518,0.613 -0.774,1.583 -0.774,2.458z"/>
   <path class="fil0" d="M8.169 1.773c0,0.795 0.437,1.581 0.827,2.162 0.097,0.144 0.178,0.278 0.28,0.415 0.103,0.141 0.19,0.252 0.298,0.397 0.058,0.077 0.093,0.126 0.151,0.197 0.746,0.908 1.816,1.852 2.87,2.379 0.092,0.046 0.149,0.058 0.244,0.104 0.244,0.118 0.503,0.215 0.718,0.359 0,0.513 -0.007,0.82 0.034,1.321l5.388 0c0.634,0 1.145,0.035 1.773,0.035 0,-0.545 -0.092,-0.988 -0.324,-1.449 -0.138,-0.274 -0.245,-0.478 -0.436,-0.711 -0.038,-0.048 -0.057,-0.061 -0.098,-0.111l-0.189 -0.193c-0.049,-0.039 -0.061,-0.056 -0.111,-0.098 -0.565,-0.48 -1.326,-0.671 -2.109,-0.671 -0.136,0 -0.474,0.435 -0.567,0.546 -0.172,0.206 -0.362,0.386 -0.58,0.532l-1.64 -1.663c-0.402,-0.263 -1.202,-0.383 -2.199,-1.103 -0.31,-0.225 -0.873,-0.697 -1.083,-0.968 -0.206,-0.266 -0.299,-0.323 -0.55,-0.702 -0.323,-0.488 -0.373,-0.656 -0.604,-1.029 -0.324,-0.52 -0.535,-0.688 -1.155,-0.688 -0.43,0 -0.938,0.49 -0.938,0.939z"/>
   <path class="fil0" d="M9.49 10.741c0,0.291 0.387,1.698 0.479,2.093 0.063,0.271 0.049,0.355 0.298,0.501 0.007,0.004 0.015,0.01 0.022,0.014 0.162,0.082 0.54,0.01 0.734,0.03 0.141,0.015 0.133,0.027 0.14,0.173 0.004,0.096 -0.009,0.217 -0.006,0.318 0.005,0.17 0.033,0.161 0.036,0.312 0.181,0.042 0.349,0.091 0.522,0.139 0.18,0.05 0.345,0.139 0.556,0.139l0 -1.981 8.238 0 0 1.773c0.362,0 0.97,-0.149 1.077,-0.105l0 -0.73c1.321,0 1.029,0.049 1.529,-1.842 0.093,-0.351 0.351,-0.951 -0.011,-1.101 -0.107,-0.044 -0.269,-0.081 -0.405,-0.081l-12.584 0c-0.289,0 -0.625,0.065 -0.625,0.348z"/>
   <path class="fil0" d="M18.701 17.867c0,0.704 -0.005,0.816 0.283,1.525 0.554,1.367 2.526,2.012 3.865,1.337 0.242,-0.122 0.624,-0.362 0.797,-0.559 0.999,-1.139 1.121,-2.512 0.263,-3.792 -0.495,-0.739 -1.848,-1.451 -2.953,-1.088 -0.198,0.065 -0.336,0.085 -0.527,0.168 -0.406,0.176 -0.92,0.562 -1.151,0.9 -0.296,0.431 -0.577,0.922 -0.577,1.509z"/>
   <path class="fil0" d="M2.051 22.386c0,0.693 0.172,1.212 0.498,1.762 0.405,0.685 1.4,1.296 2.283,1.296 0.959,0 1.56,-0.227 2.216,-0.877 1.768,-1.753 0.41,-4.893 -1.903,-4.893 -0.627,0 -0.861,0.011 -1.43,0.274 -0.374,0.173 -0.684,0.414 -0.945,0.723 -0.34,0.404 -0.449,0.62 -0.59,1.148 -0.044,0.166 -0.129,0.337 -0.129,0.567z"/>
   <path class="fil0" d="M10.428 20.995c0.985,0 1.582,-0.207 2.234,-0.86 0.827,-0.827 1.081,-2.219 0.559,-3.253 -0.177,-0.351 -0.291,-0.528 -0.559,-0.797 -0.468,-0.468 -1.156,-0.86 -1.886,-0.86 -0.568,0 -0.968,0.012 -1.484,0.289 -1.779,0.956 -2.008,3.175 -0.974,4.394l0.55 0.527c0.397,0.295 1.013,0.56 1.56,0.56z"/>
   <path class="fil0" d="M13.105 22.455c0,0.8 0.407,1.674 0.807,2.078 0.274,0.276 0.442,0.425 0.815,0.611 1.128,0.563 2.455,0.344 3.358,-0.559 1.204,-1.205 1.1,-3.274 -0.342,-4.37 -0.162,-0.123 -0.25,-0.174 -0.432,-0.263 -1.132,-0.556 -2.424,-0.282 -3.362,0.566 -0.294,0.266 -0.506,0.728 -0.65,1.088 -0.117,0.293 -0.194,0.429 -0.194,0.849z"/>
   <path class="fil0" d="M24.193 22.629c0,0.829 0.347,1.474 0.878,2.007 1.072,1.075 2.783,1.058 4.013,0.034 0.175,-0.146 0.487,-0.579 0.59,-0.801 0.288,-0.619 0.289,-0.902 0.289,-1.553 0,-1.049 -0.861,-2.098 -1.82,-2.421 -0.405,-0.136 -1.38,-0.309 -1.811,-0.133 -0.182,0.074 -0.345,0.13 -0.517,0.213 -0.169,0.081 -0.306,0.146 -0.446,0.25 -0.071,0.053 -0.124,0.095 -0.195,0.152 -0.078,0.064 -0.14,0.098 -0.207,0.176 -0.051,0.06 -0.103,0.139 -0.148,0.199 -0.166,0.221 -0.452,0.657 -0.498,0.928 -0.013,0.077 -0.039,0.205 -0.054,0.293 -0.037,0.221 -0.074,0.406 -0.074,0.656z"/>
   <path class="fil0" d="M13.904 2.294l0 0.348c0,0.869 0.687,1.805 1.489,2.126 0.246,0.098 0.724,0.228 1.003,0.195 0.699,-0.084 1.205,-0.239 1.707,-0.73 0.671,-0.657 0.963,-1.835 0.529,-2.704 -0.137,-0.275 -0.286,-0.545 -0.495,-0.756 -0.426,-0.432 -0.965,-0.773 -1.765,-0.773 -0.632,0 -1.373,0.35 -1.695,0.669 -0.229,0.226 -0.353,0.366 -0.506,0.675 -0.132,0.264 -0.267,0.574 -0.267,0.95z"/>
   <path class="fil0" d="M19.953 21.899c0,0.654 0.109,0.723 -0.066,1.568 -0.253,1.214 -1.044,1.743 -1.116,2.012 0.18,0.042 0.224,0.127 0.396,0.195 0.171,0.068 0.265,0.083 0.427,0.164 1.339,0.668 1.425,1.335 1.958,1.692 0.304,-0.161 0.338,-0.391 0.564,-0.618 0.468,-0.471 0.624,-0.633 1.172,-0.948 0.072,-0.041 0.104,-0.069 0.197,-0.115 0.312,-0.154 0.528,-0.156 0.847,-0.37 -0.067,-0.251 -0.55,-0.505 -0.899,-1.36 -0.286,-0.702 -0.225,-0.74 -0.309,-1.362l0.026 -0.823c0,-0.142 -0.177,-0.109 -0.471,-0.154 -0.825,-0.127 -0.624,-0.001 -1.163,-0.019 -0.499,-0.017 -0.499,-0.077 -1.103,0.007 -0.155,0.022 -0.304,0.094 -0.46,0.131z"/>
   <path class="fil0" d="M8.899 21.899c0,0.982 0.197,1.132 -0.362,2.384 -0.276,0.618 -0.769,1.006 -0.82,1.196 0.734,0.388 0.783,0.242 1.569,0.829 0.774,0.578 0.841,0.997 1.177,1.222 0.176,-0.041 0.224,-0.147 0.318,-0.273 0.505,-0.681 0.88,-1.003 1.663,-1.395 0.27,-0.136 0.571,-0.243 0.835,-0.383 -0.032,-0.117 -0.168,-0.255 -0.253,-0.339 -0.105,-0.103 -0.179,-0.205 -0.262,-0.328 -0.18,-0.265 -0.3,-0.478 -0.424,-0.792 -0.361,-0.91 -0.243,-1.192 -0.243,-2.086 0,-0.19 -1.731,-0.209 -1.982,-0.209 -0.493,0 -0.825,0.083 -1.216,0.174z"/>
   <path class="fil0" d="M13.348 14.704c0.654,0 1.187,0.034 1.842,0.034l4.137 0c0.166,0 0.104,-0.232 0.104,-0.66 0,-0.08 -0.024,-0.104 -0.104,-0.104l-5.944 0c0,0.287 -0.035,0.435 -0.035,0.73z"/>
   <path class="fil0" d="M14.53 17.415l2.398 0c0.305,0 0.496,-0.035 0.765,-0.035 0.006,-0.263 0.154,-0.489 0.174,-0.73l-2.677 0c-0.332,0.001 -0.53,-0.035 -0.869,-0.035 0,0.242 0.156,0.574 0.209,0.8z"/>
  </g>
 </g>
</svg>
