<?xml version="1.0" encoding="UTF-8"?>
<!DOCTYPE svg PUBLIC "-//W3C//DTD SVG 1.1//EN" "http://www.w3.org/Graphics/SVG/1.1/DTD/svg11.dtd">
<!-- Creator: CorelDRAW -->
<svg xmlns="http://www.w3.org/2000/svg" xml:space="preserve" width="227px" height="199px" version="1.1" style="shape-rendering:geometricPrecision; text-rendering:geometricPrecision; image-rendering:optimizeQuality; fill-rule:evenodd; clip-rule:evenodd"
viewBox="0 0 74.219 65.123"
 xmlns:xlink="http://www.w3.org/1999/xlink"
 xmlns:xodm="http://www.corel.com/coreldraw/odm/2003">
 <defs>
  <style type="text/css">
   <![CDATA[
    .fil0 {fill:#FE6035}
   ]]>
  </style>
 </defs>
 <g id="Layer_x0020_1">
  <metadata id="CorelCorpID_0Corel-Layer"/>
  <path class="fil0" d="M54.976 43.901c1.339,0.312 2.706,0.655 4.06,0.971 0,0.559 0.267,1.346 0.374,1.921 0.071,0.386 -0.011,0.163 -0.021,0.638 -0.585,-0.136 -0.486,-0.216 -1.168,-0.774 -0.395,-0.324 -0.729,-0.569 -1.162,-0.867 -0.726,-0.499 -1.607,-1.178 -2.083,-1.889zm-16.854 -0.882c1.576,0 2.911,0.088 4.412,0.088 0.837,1.582 1.982,2.551 2.559,5.03 -0.269,-0.142 -0.647,-0.41 -0.896,-0.605l-2.527 -1.973c-0.622,-0.416 -1.188,-0.758 -1.818,-1.182 -0.334,-0.224 -0.609,-0.344 -0.91,-0.59 -0.314,-0.257 -0.604,-0.446 -0.82,-0.768zm-17.561 -1.236l7.236 0.353c-0.011,0.515 -0.252,0.879 -0.262,1.327 -0.019,0.807 0.474,3.578 0.65,4.286 0.485,1.956 1.256,2.86 2.26,4.359 -0.94,0.497 -1.501,1.303 -1.501,2.471 2.276,0 3.09,-0.883 5.207,-0.883 1.699,0 4.056,2.071 4.867,3.075 0.957,1.184 1.57,2.674 1.752,4.25 0.126,1.097 0.259,0.898 -0.81,1.044 -5.349,0.727 -10.252,0.985 -16.134,0.985 -1.488,0 -2.736,-0.091 -4.148,-0.088 -2.001,0.005 -8.153,-0.524 -9.833,-0.756 -0.648,-0.09 -1.35,-0.214 -1.991,-0.214 0,-1.351 0.192,-2.286 0.763,-3.473 0.542,-1.124 0.724,-1.335 1.442,-2.264 0.927,-1.201 2.857,-2.559 4.943,-2.559 0.747,0 1.607,0.292 2.257,0.479 3.119,0.896 3.782,1.286 7.538,1.286 0.509,0 1.652,-0.032 2.069,-0.137 0.606,-0.153 0.793,-0.757 0.843,-1.363 -0.874,-0.462 -3.345,-0.691 -4.669,-0.802l-5.038 -0.521c0.099,-0.372 0.676,-1.206 0.882,-1.589 1.52,-2.815 2.393,-3.973 1.918,-7.741 -0.053,-0.418 -0.228,-1.064 -0.241,-1.525zm0.088 -9.265c1.223,0 2.309,0.088 3.618,0.088 1.236,0 2.471,0 3.707,0 -0.167,2.011 -0.525,2.368 0.005,4.936 0.073,0.351 0.167,0.717 0.259,1.065 0.09,0.341 0.233,0.675 0.265,1.058l-1.661 0.281c-2.093,0.3 -3.439,0.172 -5.524,-0.243 -0.378,-0.076 -0.693,-0.187 -1.022,-0.214 0.062,-0.744 0.706,-2.604 0.706,-3.971 0,-0.486 -0.235,-2.738 -0.353,-3zm-13.589 -15.09l34.503 0c-0.483,2.074 -0.981,3.624 -2.065,5.435 -0.557,0.929 -1.994,2.823 -2.965,3.566 -0.216,0.165 -0.308,0.286 -0.515,0.455 -2.855,2.326 -7.152,3.957 -11.133,3.957 -3.644,0 -5.697,-0.411 -8.738,-1.763 -0.467,-0.208 -0.798,-0.393 -1.235,-0.618 -3.57,-1.846 -6.342,-5.523 -7.462,-9.481 -0.111,-0.39 -0.267,-1.295 -0.39,-1.551zm34.768 -2.03l-35.033 0 0 -3.706 35.121 0 0 2.736c0,0.489 -0.088,0.523 -0.088,0.97zm-38.475 -13.237c14.069,0 27.861,0.089 41.916,0.089l-0.617 0.441c-0.215,0.143 -0.404,0.27 -0.635,0.423 -1.668,1.109 -2.101,1.74 -2.101,4.519l0 2.117 -35.121 0c0,-3.077 0.163,-5.102 -1.816,-6.478l-1.431 -0.952c-0.101,-0.075 -0.121,-0.095 -0.195,-0.159zm-3 -1.588c0,0.821 -0.187,2.374 -0.353,3.089 1.302,0.624 3.975,0.765 4.404,1.861 1.46,3.721 -1.992,13.505 5.324,21.414 3.282,3.548 7.853,4.505 8.642,5.565 0.609,0.818 0.691,2.216 0.691,3.369 0,1.964 -1.853,3.328 -1.853,4.324 0,0.839 1.853,2.445 1.853,3.795 0,1.497 -0.195,2.479 -0.651,3.849 -1.643,4.936 -4.592,3.002 -8.564,5.996 -2.769,2.086 -4.525,4.99 -4.009,8.585 0.16,1.117 0.24,0.996 2.457,1.514 2.178,0.509 4.639,0.618 6.897,0.868l7.576 0.278c1.341,0 4.967,0.124 6.126,-0.051l5.874 -0.304c0.306,-0.015 0.835,-0.073 1.199,-0.124 2.124,-0.297 4.323,-0.435 6.284,-1.217 0.444,-0.177 0.409,-0.2 0.501,-0.735 0.44,-2.582 -0.463,-4.861 -1.881,-6.759 -1.671,-2.238 -3.9,-3.49 -6.612,-4.242 -2.859,-0.792 -3.646,-1.749 -4.306,-4.784 -0.103,-0.474 -0.292,-1.098 -0.302,-1.551 0.282,-0.023 0.732,-0.181 0.981,-0.254 4.376,-1.289 7.448,-0.203 10.993,2.665 0.253,0.204 0.44,0.342 0.667,0.568 0.263,0.262 0.439,0.347 0.707,0.616 0.46,0.462 0.902,0.84 1.289,1.358 0.2,0.268 0.353,0.504 0.553,0.771 0.657,0.881 1.318,1.246 2.459,1.512 0.054,-0.643 0.353,-1.211 0.353,-2.029 0,-3.398 -2.403,-6.41 -2.647,-7.325 1.962,0 3.644,0.098 5.384,0.793 2.899,1.159 5.235,2.995 7.521,5.01 0.957,0.844 4.038,4.164 4.038,1.786 0,-1.026 -0.113,-2.087 -0.265,-3 -0.131,-0.792 -0.266,-1.629 -0.441,-2.383 0.188,0.09 0.643,0.16 0.918,0.23 0.951,0.239 1.922,0.515 2.826,0.879 2.849,1.15 7.286,3.857 7.286,7.451 0,1.794 -1.25,3.047 -2.734,3.707 -1.233,0.548 -3.992,0.705 -5.825,0.705 -2.965,0 -13.244,-0.589 -15.053,-0.315 -0.473,0.071 -0.88,0.012 -1.348,0.063l-2.484 0.429c0,1.993 1.557,1.843 2.925,1.689 1.71,-0.192 9.11,0.166 10.93,0.164 1.215,-0.002 2.309,0.13 3.621,0.091l1.764 -0.089c0.506,0.002 1.205,-0.069 1.713,-0.14 2.834,-0.399 5.938,-0.944 7.569,-3.55 1.429,-2.284 1.027,-5.305 -0.705,-7.274l-1.845 -1.772c-1.007,-0.847 -2.103,-1.482 -3.222,-2.162 -3.016,-1.834 -7.538,-2.875 -10.937,-3.447l-8.195 -0.718c-0.724,0.002 -1.113,-0.092 -1.762,-0.09 -0.678,0.002 -1.119,0.087 -1.675,0.094 -0.618,0.007 -1.244,-0.015 -1.861,-0.007 -0.426,0.005 -0.461,0.059 -0.795,0.087l-5.77 0.496 -4.65 0.732c-0.518,0.086 -1.09,0.277 -1.577,0.277 -0.073,-0.313 -0.219,-0.455 -0.353,-0.706 2.547,-2.931 1.493,-1.902 0.302,-3.92 -0.324,-0.549 -0.691,-1.455 -0.854,-2.147 -0.675,-2.858 1.519,-4.116 3.46,-5.233 3.924,-2.26 5.669,-3.129 8.159,-6.931 1.49,-2.275 2.403,-5.155 2.687,-7.903l0.104 -1.396c0.028,-0.96 0.013,-2.109 -0.079,-2.928 -0.097,-0.865 -0.012,-2.246 -0.012,-3.164 0,-2.652 0.505,-3.772 2.806,-4.341 0.299,-0.075 0.654,-0.162 0.978,-0.258 0.25,-0.073 0.699,-0.231 0.981,-0.254 0,-0.447 0.088,-0.481 0.088,-0.971 0,-2.973 0.133,-2.644 -4.765,-2.647 -0.736,-0.001 -1.229,0.09 -1.85,0.091 -2.262,0.003 -4.54,0.068 -6.801,0 -0.436,-0.013 -0.441,-0.081 -0.877,-0.094 -2.526,-0.075 -5.32,0.194 -7.693,-0.072 -1.061,-0.12 -15.608,-0.013 -16.93,-0.013 -1.729,0 -3.172,0.093 -4.856,0.086 -0.54,-0.002 -0.683,0.08 -1.142,0.093 -0.456,0.013 -0.749,-0.016 -1.187,0.048 -0.764,0.112 -1.498,0.146 -2.169,0.302z"/>
 </g>
</svg>
