<?xml version="1.0" encoding="UTF-8"?>
<!DOCTYPE svg PUBLIC "-//W3C//DTD SVG 1.1//EN" "http://www.w3.org/Graphics/SVG/1.1/DTD/svg11.dtd">
<!-- Creator: CorelDRAW -->
<svg xmlns="http://www.w3.org/2000/svg" xml:space="preserve" width="210px" height="200px" version="1.1" style="shape-rendering:geometricPrecision; text-rendering:geometricPrecision; image-rendering:optimizeQuality; fill-rule:evenodd; clip-rule:evenodd"
viewBox="0 0 32.504 31.051"
 xmlns:xlink="http://www.w3.org/1999/xlink"
 xmlns:xodm="http://www.corel.com/coreldraw/odm/2003">
 <defs>
  <style type="text/css">
   <![CDATA[
    .fil0 {fill:#FE6035}
   ]]>
  </style>
 </defs>
 <g id="Layer_x0020_1">
  <metadata id="CorelCorpID_0Corel-Layer"/>
  <path class="fil0" d="M12.313 3.938c0,1.744 0.958,3.246 2.431,3.772l0.648 0.257c-2.247,0.187 -4.391,1.131 -5.99,2.431 -1.354,1.1 -2.233,2.343 -3.035,3.936 -0.283,0.562 -0.84,2.264 -0.881,2.94 -0.033,0.545 0.124,0.047 1.604,0.626 0.747,0.292 1.34,0.684 2.001,1.077 0.436,0.259 1.705,0.759 2.356,0.626 1.735,-0.357 3.575,-3.095 6.814,-1.467 1.951,0.981 2.41,1.947 4.337,1.202 1.452,-0.561 2.59,-1.773 4.474,-1.773 0,-0.547 -0.262,-1.558 -0.418,-2.027 -1.152,-3.481 -3.922,-6.221 -7.477,-7.19 -0.878,-0.24 -1.637,-0.253 -2.003,-0.436 -0.014,-0.007 -0.041,-0.023 -0.062,-0.035 1.232,-0.028 2.53,-1.425 2.887,-2.364 0.553,-1.457 0.199,-3.207 -0.669,-4.065 -0.453,-0.456 -0.515,-0.593 -1.043,-0.889 -0.017,-0.01 -0.04,-0.023 -0.058,-0.032 -0.581,-0.323 -1.164,-0.527 -1.978,-0.527l-0.316 0c-0.273,0.023 -0.715,0.12 -0.961,0.216 -0.315,0.125 -0.586,0.181 -0.759,0.417 -0.264,0.071 -0.25,0.114 -0.498,0.272 -0.178,0.176 -0.348,0.327 -0.512,0.537l-0.562 0.894c-0.279,0.581 -0.33,0.874 -0.33,1.602zm-8.058 24.311c0,0.361 0.126,0.653 0.495,0.772 0.336,0.109 0.754,0.005 1.115,0.063 1.76,0.286 4.029,3.443 7.949,1.119 2.5,-1.482 2.292,-1.559 4.819,-0.035 3.728,2.25 5.971,-0.458 7.72,-1.008 0.834,-0.261 1.624,0.161 1.624,-1.093 0,-0.343 -0.423,-0.633 -0.905,-0.633 -2.42,0 -2.973,1.992 -5.976,1.992 -1.337,0 -3.151,-1.992 -4.799,-1.992 -2.207,0 -2.836,1.992 -5.432,1.992 -1.936,0 -3.27,-1.992 -5.433,-1.992 -0.651,0 -1.177,0.169 -1.177,0.815zm-2.626 -3.26c0,0.404 0.367,0.815 0.725,0.815 0.808,0 1.377,-1.268 3.259,-1.268 0.821,0 2.012,0.857 2.624,1.179 4.575,2.404 5.723,-1.179 8.15,-1.179 1.736,0 3.392,3.475 7.819,1.21 1.186,-0.607 1.655,-1.21 3.047,-1.21 1.121,0 2.343,1.268 2.807,1.268 0.586,0 1.388,-0.868 0.255,-1.614 -2.479,-1.631 -3.595,-1.781 -6.226,-0.191 -2.333,1.409 -3.322,1.06 -5.308,-0.136 -2.086,-1.255 -2.897,-1.305 -5.002,-0.034 -2.01,1.215 -2.998,1.599 -5.364,0.17 -2.6,-1.571 -3.712,-1.451 -6.171,0.156 -0.305,0.199 -0.615,0.36 -0.615,0.834zm-1.629 -3.802c0,1.175 1.275,0.802 1.933,0.485 0.212,-0.102 0.356,-0.163 0.526,-0.29 3.049,-2.274 3.24,-1.545 5.659,-0.346 4.95,2.453 5.948,-1.117 8.179,-1.117 1.965,0 3.234,3.529 8.028,1.147 2.237,-1.111 2.488,-1.879 5.156,-0.116 0.453,0.3 2.01,1.562 2.811,0.839 0.201,-0.182 0.212,-0.306 0.212,-0.602 0,-0.711 -0.573,-0.68 -1.113,-0.88 -0.268,-0.098 -0.431,-0.2 -0.63,-0.365 -1.214,-1.008 -2.383,-1.653 -4.052,-1.653 -1.484,0 -2.902,1.819 -5.224,2.021 -0.967,0.084 -1.82,-0.513 -2.545,-0.951 -0.418,-0.253 -0.704,-0.415 -1.163,-0.648 -3.869,-1.968 -4.421,3.684 -9.374,0.682 -2.452,-1.485 -3.585,-1.531 -6.031,0.091 -0.475,0.315 -0.793,0.635 -1.194,0.798 -0.515,0.209 -1.178,0.176 -1.178,0.905z"/>
 </g>
</svg>
