<?xml version="1.0" encoding="UTF-8"?>
<!DOCTYPE svg PUBLIC "-//W3C//DTD SVG 1.1//EN" "http://www.w3.org/Graphics/SVG/1.1/DTD/svg11.dtd">
<!-- Creator: CorelDRAW -->
<svg xmlns="http://www.w3.org/2000/svg" xml:space="preserve" width="155px" height="210px" version="1.1" style="shape-rendering:geometricPrecision; text-rendering:geometricPrecision; image-rendering:optimizeQuality; fill-rule:evenodd; clip-rule:evenodd"
viewBox="0 0 26.497 35.812"
 xmlns:xlink="http://www.w3.org/1999/xlink"
 xmlns:xodm="http://www.corel.com/coreldraw/odm/2003">
 <defs>
  <style type="text/css">
   <![CDATA[
    .fil0 {fill:#FE6035}
   ]]>
  </style>
 </defs>
 <g id="Layer_x0020_1">
  <metadata id="CorelCorpID_0Corel-Layer"/>
  <path class="fil0" d="M23.722 31.002zm0.117 -0.117l-0.117 0.117zm0.117 -0.117l-0.117 0.117 0.117 -0.117zm-15.267 -9.63l2.35 0 0 -2.466 3.522 0 0 2.466 2.349 0 0 3.289c-1.495,0 -2.349,-0.218 -2.349,0.352l0 5.754 -3.522 0 0 -5.754c0,-0.57 -0.855,-0.352 -2.35,-0.352l0 -3.289zm15.267 9.63c0.54,-0.806 0.94,-0.817 1.724,-2.504 1.004,-2.158 1.246,-4.87 0.495,-7.23 -0.404,-1.271 -1.235,-2.253 -1.397,-2.949l-0.352 0c0.118,1.425 0.376,1.47 -0.074,2.98 -0.84,2.821 -2.884,3.967 -3.411,2.737 -0.756,-1.768 -0.193,-4.887 -0.153,-6.536 0.048,-2.041 0.359,-4.784 -0.249,-6.685 -0.257,-0.801 -0.774,-1.809 -1.75,-1.89 0.127,0.265 0.33,1.923 0.353,2.348 0.265,5.031 -3.601,8.433 -2.852,2.904 0.059,-0.427 0.004,-0.821 0.05,-1.242 0.247,-2.255 0.334,-4.499 -0.085,-6.762 -0.348,-1.885 -1.166,-3.628 -2.868,-4.529 0.026,1.187 0.403,1.534 0.111,2.929 -0.181,0.869 -0.43,1.804 -1.285,2.003 -1.744,-3.295 -1.918,-2.165 -2.899,-4.011l-0.324 -0.753c-0.497,-1.251 -0.331,-1.638 -1.005,-1.695 -0.352,1.512 -1.572,1.881 -0.268,5.082 0.691,1.693 0.736,3.819 -0.084,5.37 -0.884,-0.206 -2.033,-0.955 -3.529,-1.286 -1.182,-0.262 -3.368,-0.38 -3.987,0.464 1.251,0.6 2.319,0.538 3.945,2.631 2.132,2.746 3.78,6.334 0.604,8.964 -2.078,1.722 -2.735,-1.576 -3.492,-2.083 -0.031,0.374 -0.155,0.829 -0.237,1.173 -0.638,2.677 -0.23,5.803 1.245,8.035 1.423,2.154 2.437,2.807 4.393,4.18 1.778,1.249 3.449,2.412 5.805,2.768 3.43,0.519 3.194,0.766 6.279,0.155 2.506,-0.495 0.582,0.003 2.942,-1.404 0.84,-0.502 1.928,-0.962 2.243,-1.985l0.211 -0.834c-0.017,-0.582 0.028,-0.144 -0.099,-0.345z"/>
 </g>
</svg>
