<?xml version="1.0" encoding="UTF-8"?>
<!DOCTYPE svg PUBLIC "-//W3C//DTD SVG 1.1//EN" "http://www.w3.org/Graphics/SVG/1.1/DTD/svg11.dtd">
<!-- Creator: CorelDRAW -->
<svg xmlns="http://www.w3.org/2000/svg" xml:space="preserve" width="190px" height="212px" version="1.1" style="shape-rendering:geometricPrecision; text-rendering:geometricPrecision; image-rendering:optimizeQuality; fill-rule:evenodd; clip-rule:evenodd"
viewBox="0 0 23.54 26.317"
 xmlns:xlink="http://www.w3.org/1999/xlink"
 xmlns:xodm="http://www.corel.com/coreldraw/odm/2003">
 <defs>
  <style type="text/css">
   <![CDATA[
    .fil0 {fill:#FE6035}
   ]]>
  </style>
 </defs>
 <g id="Layer_x0020_1">
  <metadata id="CorelCorpID_0Corel-Layer"/>
  <g id="_2473904458352">
   <path class="fil0" d="M11.699 7.97l0.168 0c0.148,0.636 0.828,1.903 0.841,2.524 -1.269,0.34 -0.187,3.759 -0.27,4.695 -0.05,0.564 -0.451,0.936 -0.571,1.449 -1.691,-1.132 0.674,-5.694 -1.01,-6.144 0.047,-0.564 0.803,-2.064 0.842,-2.524zm-9.174 13.466c0.631,0.725 1.33,0.235 2.828,-0.118 0.262,-0.062 0.361,-0.077 0.484,-0.274 0.443,-0.711 -0.397,-3.102 0.927,-6.815l3.251 -7.438c0.596,-1.535 1.179,-0.751 1.179,-0.673 0,0.963 -1.287,3.405 -1.347,4.124 -1.087,0.09 -1.256,1.214 -1.482,2.221 -0.343,1.532 -1.195,3.476 -0.202,3.474 0.611,-0.002 0.699,-1.059 0.878,-1.872 0.122,-0.554 0.485,-2.813 0.974,-2.813 0.983,0 0.169,1.547 0.169,3.451 0,1.881 0.182,1.089 0.77,2.68 0.453,1.225 0.067,3.095 -0.443,4.296 -1.415,3.334 -7.512,3.314 -7.87,3.836 -0.171,0.249 0.016,0.802 0.305,0.802 2.001,0 4.974,-0.996 6.649,-2.104 2.218,-1.467 1.675,-2.593 2.272,-3.03 0.068,0.822 0.725,1.781 1.198,2.252 1.66,1.656 5.379,2.882 7.471,2.882 0.321,0 0.505,-0.249 0.505,-0.589 0,-0.802 -3.143,-0.386 -5.675,-1.9 -1.011,-0.604 -1.406,-0.737 -2.053,-1.734 -0.615,-0.947 -0.857,-2.434 -0.857,-3.688 0,-1.238 1.01,-2.325 1.01,-3.114 0,-1.912 -0.873,-4.04 0.084,-4.04 0.528,0 0.725,1.724 0.943,2.592 0.355,1.414 0.352,2.422 1.33,1.953 0.154,-0.647 0.051,-0.838 -0.167,-1.685 -0.257,-0.997 -0.643,-3.154 -1.199,-3.598 -0.914,-0.73 -0.251,0.745 -1.279,-1.92 -0.46,-1.192 -1.313,-2.729 -0.385,-2.729 0.574,0 0.608,0.626 1.009,1.432 0.937,1.885 3.293,7.144 3.61,8.93 0.264,1.491 0.134,2.235 0.175,3.612 0.014,0.446 0.087,0.636 0.087,1.176 0.345,0.23 0.101,0.178 0.619,0.306 0.591,0.146 1.965,0.526 2.411,0.535 0.162,-0.241 0.804,-0.776 -0.323,-1.107 -0.507,-0.149 -1.152,-0.281 -1.697,-0.408 0,-1.314 -0.084,-3.571 -0.356,-4.861 -0.293,-1.386 -0.941,-2.593 -1.46,-3.843 -0.529,-1.274 -1.068,-2.425 -1.61,-3.692 -0.261,-0.608 -0.544,-1.182 -0.838,-1.771 -0.49,-0.983 -0.611,-1.319 -1.796,-1.319 -0.402,0 -0.504,0.247 -0.841,0.337 -0.298,-0.034 -1.663,-1.336 -2.73,1.226 -0.157,0.378 -0.3,0.717 -0.468,1.047 -0.639,1.252 -1.84,4.088 -2.368,5.375 -1.099,2.68 -1.261,3.38 -1.251,6.407 0.004,1.307 0.224,1.09 -1.566,1.465 -0.575,0.12 -0.749,0.184 -0.875,0.724z"/>
   <path class="fil0" d="M0 12.178c0,0.741 1.575,0.505 2.693,0.505 0.946,0 1.361,-1.052 -0.237,-1.072 -0.804,-0.01 -2.456,-0.23 -2.456,0.567z"/>
   <path class="fil0" d="M20.199 11.757c-0.268,1.148 0.159,0.926 2.609,0.926 0.305,0 0.47,-0.071 0.673,-0.169 0.171,-0.734 0.07,-0.926 -1.683,-0.926 -0.977,0 -0.679,-0.045 -1.599,0.169z"/>
   <path class="fil0" d="M5.218 2.246c0,0.23 0.552,1.028 0.69,1.247 0.237,0.376 0.431,0.942 0.993,0.942 0.197,0 0.421,-0.225 0.421,-0.421 0,-0.248 -1.088,-2.272 -1.599,-2.272 -0.272,0 -0.505,0.232 -0.505,0.504z"/>
   <path class="fil0" d="M18.937 7.633c0,1.384 1.602,-0.001 2.058,-0.299 0.174,-0.113 0.213,-0.101 0.364,-0.226 0.535,-0.446 0.106,-1.18 -0.528,-0.873l-1.342 0.857c-0.216,0.128 -0.552,0.254 -0.552,0.541z"/>
   <path class="fil0" d="M11.362 0.395c0,1.558 -0.257,2.609 0.589,2.609 0.605,0 0.421,-1.623 0.421,-2.357 0,-0.851 -1.01,-0.784 -1.01,-0.252z"/>
   <path class="fil0" d="M16.833 4.435c0.28,0 0.713,-0.733 0.875,-0.976 0.249,-0.374 0.64,-0.861 0.64,-1.297 0,-0.033 -0.323,-1.027 -1.112,0.152 -0.342,0.511 -1.686,2.121 -0.403,2.121z"/>
   <path class="fil0" d="M2.441 7.212c0.186,0.162 1.416,1.027 1.764,1.008 0.377,-0.022 0.372,-0.245 0.508,-0.503 -0.282,-0.532 -0.689,-0.682 -1.178,-1.01 -0.14,0.191 -0.281,0.201 -0.54,0.302 -0.243,0.095 -0.33,0.151 -0.554,0.203z"/>
   <path class="fil0" d="M2.441 7.212c0.224,-0.052 0.311,-0.108 0.554,-0.203 0.259,-0.101 0.4,-0.111 0.54,-0.302 -0.22,-0.147 -0.601,-0.439 -0.866,-0.493 -0.678,-0.137 -0.649,0.191 -0.649,0.746 0.167,0.112 0.233,0.153 0.421,0.252z"/>
  </g>
 </g>
</svg>
