<svg width="281" height="232" viewBox="0 0 281 232" fill="none" xmlns="http://www.w3.org/2000/svg">
<path d="M137.393 110.586C132.087 112.854 127.549 116.548 124.242 121.199L74.7369 89.418L137.393 110.586Z" fill="white"/>
<path d="M227.082 89.4353L175.727 122.388C172.94 118.044 169.097 114.447 164.559 111.948L227.082 89.4353Z" fill="white"/>
<path d="M180.651 140.251C180.67 139.905 180.67 139.539 180.67 139.195C180.67 136.675 180.362 134.234 179.804 131.887L270.107 140.251H180.651Z" fill="white"/>
<path d="M280.566 140.251H279.914C273.281 76.4024 219.293 26.6467 153.735 26.6467C95.9032 26.6467 47.1456 65.3301 31.843 118.219L121.225 126.468C119.476 130.35 118.493 134.657 118.493 139.195C118.493 139.539 118.493 139.905 118.512 140.251H0.237335C0.237335 62.8289 63.0085 0.0577545 140.431 0.0577545C179.112 0.0577545 214.18 15.7451 239.557 41.122C264.879 66.5013 280.566 101.512 280.566 140.251Z" fill="white"/>
<path d="M160.186 109.72C157.091 108.664 153.765 108.106 150.304 108.106C147.649 108.106 145.075 108.433 142.632 109.068L151.456 43.0285C154.359 65.214 157.302 87.4765 160.186 109.72Z" fill="white"/>
<path d="M280.341 213.369H0C93.5327 219.581 187.068 225.79 280.598 232L280.341 213.369Z" fill="white"/>
<path fill-rule="evenodd" clip-rule="evenodd" d="M154.178 138.674C152.812 137.039 152.718 134.636 152.526 132.696C151.795 135.079 150.679 138.924 147.256 139.134C144.2 139.326 142.064 137.022 140.797 136.039C140.506 139.134 143.873 144.538 147.006 146.115C141.797 146.074 138.779 143.309 137.471 139.059C135.835 133.812 139.258 129.254 137.875 123.891C137.394 122.003 136.699 120.928 135.588 119.62C138.183 120.084 140.22 122.14 141.297 123.85C141.91 124.812 142.41 126.022 142.738 127.198C143.257 129.081 143.334 130.772 143.988 132.811C144.161 133.292 144.604 133.886 145.296 133.982C147.564 134.29 151.35 128.677 149.351 126.255C148.331 124.985 147.179 124.235 144.7 124.62C148.947 122.734 152.006 124.504 153.12 126.486C153.637 125.871 154.293 124.909 154.697 123.583C155.541 120.794 154.678 118.41 154.349 117.602C157.388 121.178 157.985 124.062 158.004 126.003C158.023 129.985 155.599 133.424 156.927 134.54C157.369 134.923 158.156 134.944 158.675 134.675C160.08 133.963 159.118 131.407 160.426 129.293C160.984 128.388 162.097 127.33 164.598 126.734C163.749 127.657 162.559 129.233 162.174 131.387C161.385 135.714 164.598 138.29 163.653 141.269C163.213 142.693 161.734 144.557 156.638 145.827C158.62 143.479 159.849 141.632 159.406 138.482C158.656 138.771 155.888 140.75 154.178 138.674Z" fill="white"/>
<path fill-rule="evenodd" clip-rule="evenodd" d="M163.655 141.269C163.212 142.693 161.733 144.557 156.639 145.827C158.619 143.479 159.85 141.632 159.405 138.482C158.657 138.771 155.889 140.75 154.179 138.674C152.811 137.039 152.717 134.636 152.524 132.696C151.793 135.079 150.677 138.922 147.258 139.134C144.199 139.326 142.063 137.02 140.796 136.039C140.507 139.134 143.872 144.538 147.005 146.115C141.796 146.074 138.778 143.309 137.47 139.059C135.837 133.809 139.256 129.254 137.874 123.889C137.393 122.003 136.7 120.928 135.587 119.62C138.181 120.082 140.221 122.14 141.296 123.85C141.911 124.812 142.412 126.022 142.739 127.196C143.258 129.081 143.335 130.772 143.987 132.809C144.163 133.292 144.603 133.886 145.295 133.982C147.565 134.29 151.351 128.677 149.352 126.255C148.333 124.985 147.178 124.235 144.699 124.62C148.948 122.734 152.005 124.504 153.118 126.486C153.638 125.871 154.292 124.909 154.696 123.583C155.543 120.794 154.679 118.41 154.35 117.602C157.39 121.178 157.986 124.062 158.003 126.003C158.022 129.985 155.598 133.424 156.925 134.54C157.37 134.923 158.157 134.944 158.676 134.675C160.081 133.963 159.116 131.404 160.425 129.293C160.985 128.388 162.099 127.33 164.6 126.734C163.751 127.657 162.56 129.233 162.175 131.387C161.387 135.711 164.6 138.29 163.655 141.269Z" fill="#FF0004"/>
<path d="M249.978 187.008C242.826 186.912 236.732 185.565 236.847 178.24V177.143C236.732 169.743 242.826 168.454 249.978 168.377C255.995 168.377 260.995 169.397 262.631 173.819H280.605C279.489 158.69 266.185 154.152 249.978 154.111C233.117 154.19 219.217 159.053 219.275 176.03V179.317C219.217 196.332 233.117 201.214 249.978 201.255C266.185 201.255 279.489 196.698 280.605 181.53H262.631C261.034 185.952 255.995 187.008 249.978 187.008ZM182.9 187.008C175.75 186.912 169.654 185.565 169.75 178.24V177.143C169.654 169.743 175.75 168.454 182.9 168.377C188.917 168.377 193.914 169.397 195.55 173.819H213.507C212.413 158.69 199.088 154.152 182.9 154.111C180.786 154.13 178.708 154.207 176.71 154.383C164.81 155.419 155.313 159.65 152.831 170.109V170.125C152.41 171.895 152.177 173.877 152.199 176.03V179.317C152.122 196.332 166.041 201.214 182.9 201.255C199.088 201.255 212.413 196.698 213.507 181.53H195.55C193.936 185.952 188.917 187.008 182.9 187.008ZM117.495 172.629C110.439 172.28 104.978 172.013 104.978 170.012C104.978 166.436 111.668 165.628 117.111 165.628C122.608 165.647 127.262 166.475 129.26 170.012H147.62C146.16 157.593 135.701 154.787 122.361 154.226C120.648 154.152 118.897 154.13 117.111 154.111C101.344 154.111 86.6184 157.189 86.6184 170.012C86.5799 181.258 104.21 182.124 116.745 182.759C123.801 183.086 129.26 183.393 129.26 185.356C129.26 188.833 122.57 189.738 117.111 189.738C111.632 189.738 106.998 188.833 104.978 185.356H86.6184C88.2922 199.312 101.363 201.214 117.111 201.255C132.913 201.255 147.62 198.215 147.62 185.356C147.66 174.127 130.03 173.261 117.495 172.629ZM57.2999 155.208L39.727 177.723L22.1926 155.208H0.254822V200.235H17.7892V176.222L35.3428 200.235H44.1088L61.6816 176.222V200.235H79.216V155.208H57.2999Z" fill="white"/>
</svg>
