<svg width="904" height="214" viewBox="0 0 904 214" fill="none" xmlns="http://www.w3.org/2000/svg">
<path d="M124.082 99.5674C119.308 101.608 115.225 104.932 112.249 109.117L67.7033 80.5199L124.082 99.5674Z" fill="white"/>
<path d="M204.786 80.5383L158.576 110.189C156.068 106.281 152.61 103.044 148.527 100.796L204.786 80.5383Z" fill="white"/>
<path d="M163.007 126.262C163.024 125.95 163.024 125.621 163.024 125.312C163.024 123.044 162.747 120.847 162.245 118.735L243.501 126.262H163.007Z" fill="white"/>
<path d="M252.912 126.262H252.326C246.357 68.8096 197.778 24.0386 138.787 24.0386C86.7493 24.0386 42.8764 58.8466 29.1068 106.437L109.534 113.86C107.961 117.353 107.076 121.228 107.076 125.312C107.076 125.621 107.076 125.95 107.093 126.262H0.66748C0.66748 56.596 57.1501 0.11338 126.816 0.11338C161.622 0.11338 193.177 14.2292 216.012 37.0637C238.796 59.9004 252.912 91.404 252.912 126.262Z" fill="white"/>
<path d="M144.592 98.7881C141.807 97.8381 138.814 97.336 135.7 97.336C133.311 97.336 130.995 97.6303 128.797 98.2016L136.736 38.7781C139.348 58.7411 141.997 78.7732 144.592 98.7881Z" fill="white"/>
<path d="M252.709 192.055H0.453796C84.6162 197.644 168.781 203.232 252.941 208.819L252.709 192.055Z" fill="white"/>
<path fill-rule="evenodd" clip-rule="evenodd" d="M139.186 124.844C137.956 123.372 137.872 121.21 137.699 119.464C137.041 121.608 136.037 125.069 132.958 125.257C130.207 125.43 128.285 123.357 127.145 122.472C126.883 125.257 129.913 130.119 132.733 131.539C128.045 131.502 125.329 129.014 124.152 125.19C122.681 120.468 125.76 116.367 124.516 111.542C124.083 109.843 123.458 108.875 122.458 107.698C124.793 108.116 126.626 109.966 127.595 111.505C128.147 112.37 128.597 113.459 128.891 114.517C129.359 116.211 129.428 117.733 130.017 119.568C130.172 120.001 130.571 120.535 131.194 120.622C133.235 120.899 136.641 115.848 134.842 113.669C133.925 112.526 132.888 111.851 130.657 112.197C134.479 110.501 137.231 112.093 138.233 113.876C138.699 113.322 139.289 112.457 139.653 111.265C140.413 108.754 139.636 106.61 139.339 105.883C142.075 109.101 142.611 111.695 142.628 113.442C142.646 117.025 140.464 120.12 141.659 121.124C142.057 121.468 142.765 121.487 143.232 121.245C144.496 120.604 143.63 118.304 144.808 116.402C145.31 115.588 146.312 114.636 148.562 114.099C147.798 114.93 146.727 116.348 146.381 118.287C145.671 122.18 148.562 124.497 147.712 127.179C147.316 128.46 145.985 130.137 141.399 131.279C143.182 129.167 144.288 127.505 143.89 124.671C143.215 124.93 140.724 126.711 139.186 124.844Z" fill="white"/>
<path fill-rule="evenodd" clip-rule="evenodd" d="M147.713 127.179C147.315 128.46 145.984 130.137 141.401 131.279C143.181 129.167 144.289 127.505 143.889 124.671C143.216 124.93 140.725 126.711 139.187 124.844C137.955 123.372 137.871 121.21 137.698 119.464C137.04 121.608 136.036 125.067 132.959 125.257C130.206 125.43 128.285 123.355 127.144 122.472C126.884 125.257 129.912 130.119 132.732 131.539C128.044 131.502 125.328 129.014 124.151 125.19C122.682 120.466 125.759 116.367 124.515 111.539C124.082 109.843 123.459 108.875 122.457 107.698C124.792 108.114 126.627 109.966 127.594 111.505C128.148 112.37 128.598 113.459 128.893 114.515C129.36 116.211 129.429 117.733 130.016 119.566C130.174 120.001 130.57 120.535 131.193 120.622C133.236 120.899 136.642 115.848 134.844 113.669C133.926 112.526 132.887 111.851 130.656 112.197C134.48 110.501 137.23 112.093 138.232 113.876C138.7 113.322 139.288 112.457 139.652 111.265C140.414 108.754 139.637 106.61 139.34 105.883C142.076 109.101 142.612 111.695 142.628 113.442C142.645 117.025 140.464 120.12 141.658 121.124C142.058 121.468 142.766 121.487 143.233 121.245C144.497 120.604 143.629 118.302 144.807 116.402C145.311 115.588 146.313 114.636 148.563 114.099C147.799 114.93 146.728 116.348 146.382 118.287C145.672 122.178 148.563 124.497 147.713 127.179Z" fill="#ED3634"/>
<path d="M225.389 168.337C218.953 168.25 213.469 167.038 213.573 160.447V159.46C213.469 152.801 218.953 151.641 225.389 151.572C230.803 151.572 235.302 152.49 236.774 156.469H252.947C251.943 142.856 239.972 138.772 225.389 138.735C210.217 138.807 197.709 143.182 197.761 158.458V161.416C197.709 176.727 210.217 181.119 225.389 181.156C239.972 181.156 251.943 177.055 252.947 163.407H236.774C235.337 167.387 230.803 168.337 225.389 168.337ZM165.03 168.337C158.597 168.25 153.111 167.038 153.198 160.447V159.46C153.111 152.801 158.597 151.641 165.03 151.572C170.445 151.572 174.941 152.49 176.413 156.469H192.572C191.587 142.856 179.596 138.772 165.03 138.735C163.128 138.753 161.258 138.822 159.46 138.98C148.753 139.913 140.207 143.719 137.974 153.13V153.145C137.595 154.738 137.385 156.521 137.405 158.458V161.416C137.335 176.727 149.861 181.119 165.03 181.156C179.596 181.156 191.587 177.055 192.572 163.407H176.413C174.961 167.387 170.445 168.337 165.03 168.337ZM106.178 155.398C99.829 155.084 94.9145 154.844 94.9145 153.044C94.9145 149.826 100.935 149.099 105.832 149.099C110.779 149.116 114.966 149.86 116.764 153.044H133.284C131.971 141.869 122.56 139.343 110.556 138.839C109.015 138.772 107.44 138.753 105.832 138.735C91.6447 138.735 78.3945 141.505 78.3945 153.044C78.3599 163.163 94.2242 163.942 105.503 164.513C111.852 164.807 116.764 165.084 116.764 166.85C116.764 169.979 110.744 170.793 105.832 170.793C100.902 170.793 96.7323 169.979 94.9145 166.85H78.3945C79.9007 179.408 91.662 181.119 105.832 181.156C120.052 181.156 133.284 178.421 133.284 166.85C133.321 156.746 117.457 155.967 106.178 155.398ZM52.0132 139.722L36.2008 159.981L20.4231 139.722H0.683044V180.239H16.4608V158.631L32.2558 180.239H40.1436L55.956 158.631V180.239H71.7337V139.722H52.0132Z" fill="white"/>
<rect x="274.947" y="15.2686" width="3.36763" height="197.848" rx="1.68382" fill="white"/>
<path d="M302.689 72.5899V18.1992H321.374L333.804 46.1466C334.172 46.9917 334.661 48.165 335.268 49.6704C335.874 51.1745 336.507 52.7587 337.167 54.4205C337.826 56.0835 338.421 57.6006 338.949 58.9729H339.504C339.979 57.7595 340.532 56.3601 341.167 54.7771C341.8 53.1942 342.433 51.6371 343.066 50.1059C343.699 48.5759 344.227 47.3083 344.649 46.3056L357.08 18.1992H375.368V72.5899H363.334V39.3381C363.334 38.4413 363.347 37.4386 363.374 36.3299C363.4 35.2212 363.44 34.1267 363.493 33.0439C363.545 31.9623 363.598 31.0255 363.652 30.2334H363.019C362.754 31.0255 362.412 31.9752 361.99 33.0839C361.568 34.1926 361.145 35.3013 360.724 36.4087C360.301 37.5174 359.905 38.4943 359.536 39.3381L344.732 72.5899H333.014L318.13 39.3381C317.654 38.2824 317.192 37.1879 316.744 36.0521C316.295 34.9175 315.899 33.8347 315.557 32.8061C315.213 31.7762 314.91 30.9195 314.646 30.2334H314.013C314.064 30.8665 314.105 31.6974 314.132 32.7273C314.157 33.7571 314.183 34.8387 314.21 35.9732C314.236 37.1091 314.251 38.2294 314.251 39.3381V72.5899H302.689Z" fill="white"/>
<path d="M410.443 73.5428C405.111 73.5428 400.533 72.7236 396.707 71.089C392.879 69.4531 389.95 67.0121 387.919 63.7662C385.886 60.5202 384.87 56.4963 384.87 51.692C384.87 46.8876 385.886 42.7991 387.919 39.579C389.95 36.3602 392.879 33.9451 396.707 32.335C400.533 30.725 405.111 29.9199 410.443 29.9199C415.774 29.9199 420.351 30.725 424.179 32.335C428.005 33.9451 430.934 36.3602 432.967 39.579C434.998 42.7991 436.015 46.8372 436.015 51.692C436.015 56.5467 434.998 60.5202 432.967 63.7662C430.934 67.0121 428.005 69.4544 424.179 71.089C420.351 72.7249 415.773 73.5428 410.443 73.5428ZM410.443 65.0713C413.398 65.0713 415.945 64.5841 418.083 63.6072C420.221 62.6316 421.857 61.2063 422.992 59.3314C424.127 57.459 424.694 55.1744 424.694 52.4828V50.8999C424.694 48.1565 424.127 45.8603 422.992 44.0125C421.857 42.166 420.222 40.7665 418.083 39.8168C415.945 38.867 413.399 38.3915 410.443 38.3915C407.486 38.3915 404.941 38.867 402.803 39.8168C400.666 40.7665 399.029 42.166 397.894 44.0125C396.758 45.8603 396.192 48.1565 396.192 50.8999V52.4828C396.192 55.1744 396.758 57.4577 397.894 59.3314C399.029 61.205 400.665 62.6303 402.803 63.6072C404.941 64.5841 407.487 65.0713 410.443 65.0713Z" fill="white"/>
<path d="M443.458 72.5911V30.8677H452.247L453.039 38.2306H453.672C454.252 36.7536 455.097 35.38 456.206 34.1137C457.315 32.8474 458.7 31.8317 460.363 31.0654C462.026 30.3005 463.913 29.918 466.024 29.918C466.974 29.918 467.911 29.9852 468.834 30.1157C469.757 30.2475 470.589 30.4465 471.328 30.7101V40.2903H465.865C463.754 40.2903 461.972 40.647 460.521 41.359C459.068 42.071 457.895 43.035 456.998 44.2483C456.1 45.463 455.441 46.7952 455.018 48.2463C454.596 49.6988 454.385 51.1899 454.385 52.7199V72.5924H443.46L443.458 72.5911Z" fill="white"/>
<path d="M475.997 72.5911V30.8677H484.785L485.577 37.9928H486.289C487.819 35.9344 489.561 34.3243 491.515 33.1639C493.467 32.0036 495.538 31.1727 497.73 30.67C499.92 30.1687 502.045 29.918 504.103 29.918C508.008 29.918 511.268 30.5253 513.881 31.7387C516.494 32.9533 518.459 34.7998 519.78 37.2808C521.099 39.7618 521.759 42.929 521.759 46.781V72.5911H510.834V48.6818C510.834 46.8883 510.583 45.3699 510.082 44.1294C509.579 42.8902 508.867 41.9004 507.945 41.16C507.021 40.4209 505.912 39.8936 504.62 39.5771C503.326 39.2605 501.888 39.1015 500.305 39.1015C497.982 39.1015 495.805 39.5771 493.773 40.5268C491.741 41.4766 490.092 42.7972 488.826 44.4861C487.559 46.1763 486.925 48.1546 486.925 50.4237V72.5924H475.999L475.997 72.5911Z" fill="white"/>
<path d="M530.542 24.0567V15.2686H541.468V24.0567H530.542ZM530.542 72.5886V30.8652H541.468V72.5886H530.542Z" fill="white"/>
<path d="M550.574 72.5911V30.8677H559.363L560.155 37.9928H560.867C562.397 35.9344 564.139 34.3243 566.092 33.1639C568.045 32.0036 570.116 31.1727 572.308 30.67C574.497 30.1687 576.622 29.918 578.681 29.918C582.586 29.918 585.846 30.5253 588.459 31.7387C591.072 32.9533 593.037 34.7998 594.358 37.2808C595.677 39.7618 596.337 42.929 596.337 46.781V72.5911H585.412V48.6818C585.412 46.8883 585.161 45.3699 584.66 44.1294C584.157 42.8902 583.445 41.9004 582.522 41.16C581.599 40.4209 580.49 39.8936 579.198 39.5771C577.904 39.2605 576.466 39.1015 574.883 39.1015C572.56 39.1015 570.382 39.5771 568.351 40.5268C566.318 41.4766 564.67 42.7972 563.403 44.4861C562.137 46.1763 561.502 48.1546 561.502 50.4237V72.5924H550.577L550.574 72.5911Z" fill="white"/>
<path d="M614.545 88.2624C612.117 88.2624 609.86 87.9458 607.775 87.3126C605.689 86.6795 604.015 85.6225 602.747 84.1455C601.481 82.6672 600.846 80.6618 600.846 78.1291C600.846 76.1223 601.571 74.3288 603.024 72.7458C604.475 71.1629 606.335 70.0025 608.606 69.2621C606.969 68.4183 605.768 67.2967 605.003 65.8972C604.237 64.4991 603.856 62.9821 603.856 61.3449C603.856 59.2347 604.581 57.3869 606.033 55.8027C607.484 54.2197 609.477 53.2429 612.011 52.8733C609.899 51.7129 608.236 50.2876 607.023 48.5974C605.808 46.9086 605.202 45.0879 605.202 43.1341C605.202 39.9669 606.085 37.4071 607.855 35.4546C609.623 33.5021 612.236 32.0898 615.693 31.2188C619.15 30.3479 623.413 29.9124 628.48 29.9124C630.432 29.9124 632.28 30.0055 634.022 30.189C635.764 30.375 637.398 30.6244 638.931 30.941C641.465 29.8853 643.404 28.6848 644.75 27.3384C646.095 25.9919 646.9 24.7398 647.165 23.5781H657.378C657.325 25.4776 656.875 27.1407 656.032 28.566C655.187 29.9912 654.013 31.1788 652.508 32.1285C651.004 33.0783 649.169 33.7916 647.006 34.2658C648.536 35.3228 649.71 36.5892 650.528 38.0661C651.346 39.5444 651.756 41.2333 651.756 43.1328C651.756 46.0893 650.964 48.5432 649.381 50.4957C647.798 52.4495 645.461 53.9006 642.374 54.8503C639.286 55.8001 635.447 56.2756 630.855 56.2756H619.849C618.318 56.2756 617.13 56.5521 616.287 57.1065C615.441 57.6608 615.02 58.44 615.02 59.4415C615.02 60.4429 615.441 61.2505 616.287 61.8566C617.13 62.4639 618.45 62.7676 620.246 62.7676H644.393C648.404 62.7676 651.479 63.9292 653.616 66.2513C655.754 68.5746 656.822 71.504 656.822 75.0395C656.822 77.6781 656.136 79.9872 654.764 81.9669C653.39 83.9465 651.57 85.4907 649.301 86.5981C647.03 87.7068 644.498 88.2611 641.7 88.2611H614.543L614.545 88.2624ZM616.444 80.5829H641.146C641.989 80.5829 642.769 80.4111 643.481 80.0686C644.193 79.7249 644.76 79.2106 645.182 78.5245C645.604 77.8383 645.816 77.0462 645.816 76.1495C645.816 74.7759 645.353 73.7214 644.43 72.9823C643.506 72.2432 642.412 71.8736 641.144 71.8736H616.838C615.413 71.8736 614.225 72.2302 613.276 72.9422C612.326 73.6542 611.85 74.697 611.85 76.0693C611.85 77.4416 612.286 78.5361 613.157 79.3554C614.028 80.1733 615.122 80.5829 616.443 80.5829H616.444ZM628.478 48.7551C632.226 48.7551 635.208 48.3597 637.425 47.5676C639.643 46.7755 640.75 45.2985 640.75 43.1341C640.75 40.9697 639.642 39.4798 637.425 38.6605C635.208 37.8426 632.226 37.433 628.478 37.433C624.731 37.433 621.749 37.8426 619.533 38.6605C617.315 39.4798 616.208 40.9697 616.208 43.1341C616.208 44.6653 616.709 45.8399 617.712 46.6566C618.713 47.4758 620.139 48.0302 621.986 48.3196C623.833 48.6104 625.997 48.7551 628.478 48.7551Z" fill="white"/>
<path d="M689.282 73.5324C685.165 73.5324 681.311 73.2817 677.723 72.7803C674.133 72.279 670.993 71.3822 668.302 70.0887C665.61 68.7965 663.511 66.9887 662.007 64.6654C660.503 62.3433 659.751 59.361 659.751 55.7196V55.3242C659.751 55.1652 659.777 55.0347 659.83 54.9288H671.706C671.654 55.1407 671.613 55.3914 671.588 55.6808C671.56 55.9716 671.548 56.3024 671.548 56.6706C671.548 58.3078 672.26 59.6401 673.685 60.6687C675.11 61.6972 677.141 62.4506 679.781 62.9248C682.42 63.4003 685.508 63.6368 689.045 63.6368C690.575 63.6368 692.119 63.5709 693.676 63.4391C695.232 63.3086 696.725 63.1096 698.15 62.8447C699.575 62.5811 700.854 62.2115 701.99 61.736C703.125 61.2605 704.022 60.6674 704.682 59.9541C705.341 59.2421 705.672 58.4099 705.672 57.4602C705.672 56.0879 705.05 54.9934 703.811 54.1741C702.57 53.3562 700.894 52.6829 698.783 52.1557C696.672 51.6285 694.297 51.1801 691.658 50.8093C689.018 50.441 686.286 50.0314 683.464 49.5817C680.639 49.1333 677.909 48.526 675.27 47.761C672.63 46.996 670.255 46.0062 668.145 44.7916C666.034 43.5782 664.358 42.0082 663.117 40.0803C661.877 38.1536 661.257 35.7928 661.257 32.9939C661.257 30.4599 661.863 28.218 663.077 26.2642C664.291 24.3117 666.086 22.6616 668.461 21.3164C670.836 19.97 673.752 18.9543 677.209 18.2682C680.665 17.5833 684.637 17.2383 689.124 17.2383C693.61 17.2383 697.621 17.6078 701 18.347C704.377 19.0861 707.176 20.1418 709.393 21.5141C711.611 22.8877 713.259 24.5365 714.341 26.4619C715.422 28.3898 715.964 30.5388 715.964 32.9151V34.1814H704.246V33.1528C704.246 31.9925 703.613 30.9626 702.347 30.0645C701.08 29.1677 699.364 28.4545 697.2 27.9272C695.036 27.4 692.58 27.1351 689.837 27.1351C686.037 27.1351 682.95 27.3729 680.573 27.8471C678.198 28.3227 676.457 28.9687 675.348 29.7867C674.239 30.6059 673.685 31.5156 673.685 32.5184C673.685 33.733 674.305 34.7086 675.546 35.4478C676.785 36.1882 678.461 36.7813 680.573 37.2297C682.684 37.6794 685.059 38.0877 687.699 38.4573C690.337 38.8268 693.069 39.2494 695.892 39.7236C698.716 40.1991 701.446 40.8065 704.086 41.5443C706.725 42.2847 709.1 43.2732 711.211 44.5137C713.321 45.7542 714.997 47.3126 716.239 49.185C717.478 51.0587 718.1 53.3691 718.1 56.1124C718.1 60.3353 716.885 63.726 714.458 66.2858C712.03 68.8469 708.651 70.6934 704.325 71.828C699.996 72.9625 694.983 73.5298 689.283 73.5298L689.282 73.5324Z" fill="white"/>
<path d="M742.96 73.544C739.899 73.544 737.418 73.1214 735.519 72.2776C733.618 71.4338 732.233 70.0215 731.362 68.0418C730.491 66.0622 730.055 63.359 730.055 59.9269V39.3424H722.059V30.8708H730.372L732.589 18.6777H740.982V30.8708H752.304V39.3424H740.982V59.1348C740.982 61.0886 741.339 62.5668 742.051 63.5683C742.763 64.571 744.359 65.0724 746.841 65.0724H752.304V72.1975C751.565 72.4624 750.628 72.6989 749.494 72.9095C748.358 73.1201 747.21 73.2778 746.05 73.385C744.888 73.4897 743.86 73.544 742.963 73.544H742.96Z" fill="white"/>
<path d="M775.025 73.5428C772.544 73.5428 770.235 73.3451 768.098 72.9484C765.961 72.5517 764.086 71.8927 762.477 70.9688C760.867 70.0462 759.613 68.7915 758.717 67.2085C757.818 65.6256 757.37 63.646 757.37 61.2709C757.37 57.8932 758.293 55.2532 760.141 53.3537C761.987 51.4542 764.6 50.0819 767.979 49.2368C771.357 48.393 775.302 47.8645 779.815 47.6539C784.328 47.4433 789.224 47.3373 794.502 47.3373V45.5954C794.502 43.8019 794.067 42.3766 793.196 41.3196C792.325 40.2639 790.979 39.5118 789.158 39.0634C787.337 38.615 784.948 38.3902 781.993 38.3902C779.618 38.3902 777.532 38.5491 775.739 38.8657C773.944 39.1823 772.544 39.6578 771.543 40.291C770.54 40.9242 770.039 41.7163 770.039 42.666V43.6158H759.113C759.06 43.4052 759.02 43.1946 758.994 42.9826C758.967 42.772 758.954 42.5342 758.954 42.2706C758.954 39.7909 759.851 37.6265 761.646 35.7787C763.439 33.9322 766.105 32.4927 769.642 31.4641C773.177 30.4342 777.585 29.9199 782.864 29.9199C787.773 29.9199 791.901 30.3696 795.254 31.2664C798.605 32.1644 801.139 33.6414 802.855 35.6999C804.57 37.7583 805.428 40.5288 805.428 44.0125V61.9842C805.428 62.987 805.626 63.7532 806.022 64.2804C806.418 64.809 807.117 65.0726 808.121 65.0726H812.159V72.1977C811.63 72.4096 810.666 72.6848 809.269 73.0285C807.87 73.371 806.327 73.5428 804.638 73.5428C802.315 73.5428 800.508 73.2521 799.215 72.6719C797.921 72.0917 796.998 71.2996 796.445 70.2969C795.89 69.2954 795.506 68.1867 795.297 66.9721H794.664C793.186 68.3457 791.418 69.5332 789.359 70.5346C787.301 71.5374 785.056 72.2894 782.63 72.7908C780.202 73.2922 777.668 73.5428 775.029 73.5428H775.025ZM777.717 65.0713C779.406 65.0713 781.212 64.8865 783.14 64.5169C785.067 64.1486 786.9 63.6059 788.642 62.8939C790.384 62.1819 791.795 61.2839 792.878 60.2023C793.96 59.1207 794.501 57.8673 794.501 56.442V54.3048C788.589 54.3048 783.695 54.5025 779.814 54.8992C775.935 55.2946 773.044 55.9678 771.145 56.9176C769.245 57.8673 768.294 59.2138 768.294 60.9557C768.294 62.1173 768.756 62.9883 769.679 63.5685C770.602 64.1499 771.79 64.5454 773.242 64.756C774.693 64.9679 776.184 65.0726 777.716 65.0726L777.717 65.0713Z" fill="white"/>
<path d="M815.639 72.5911V30.8677H824.427L825.219 38.2306H825.853C826.433 36.7536 827.278 35.38 828.387 34.1137C829.495 32.8474 830.88 31.8317 832.544 31.0654C834.207 30.3005 836.093 29.918 838.205 29.918C839.154 29.918 840.091 29.9852 841.015 30.1157C841.938 30.2475 842.77 30.4465 843.509 30.7101V40.2903H838.046C835.934 40.2903 834.152 40.647 832.701 41.359C831.249 42.071 830.075 43.035 829.177 44.2483C828.279 45.463 827.62 46.7952 827.198 48.2463C826.775 49.6988 826.565 51.1899 826.565 52.7199V72.5924H815.639V72.5911Z" fill="white"/>
<path d="M333.647 143.237C326.31 143.237 320.16 142.168 315.2 140.031C310.238 137.893 306.516 134.726 304.036 130.53C301.554 126.333 300.315 121.175 300.315 115.051C300.315 106.078 303.166 99.151 308.865 94.2691C314.565 89.3872 322.799 86.9463 333.567 86.9463C339.689 86.9463 345.087 87.8172 349.758 89.5591C354.429 91.301 358.071 93.8078 360.683 97.0809C363.296 100.354 364.603 104.313 364.603 108.956H352.806C352.806 106.317 351.987 104.114 350.352 102.345C348.715 100.578 346.446 99.2453 343.544 98.3473C340.64 97.4505 337.237 97.0008 333.33 97.0008C329.107 97.0008 325.453 97.674 322.365 99.0192C319.276 100.366 316.889 102.305 315.2 104.838C313.509 107.372 312.666 110.433 312.666 114.021V116.001C312.666 119.642 313.509 122.744 315.2 125.304C316.889 127.865 319.289 129.816 322.405 131.162C325.519 132.509 329.186 133.181 333.41 133.181C337.635 133.181 340.971 132.745 343.9 131.874C346.83 131.003 349.099 129.685 350.709 127.916C352.319 126.149 353.124 123.971 353.124 121.384H364.683C364.683 125.924 363.389 129.83 360.803 133.102C358.217 136.375 354.601 138.882 349.957 140.624C345.311 142.366 339.875 143.237 333.647 143.237Z" fill="white"/>
<path d="M397.299 143.246C391.968 143.246 387.39 142.427 383.563 140.792C379.736 139.156 376.807 136.715 374.775 133.469C372.743 130.223 371.727 126.199 371.727 121.395C371.727 116.591 372.743 112.502 374.775 109.282C376.807 106.063 379.736 103.648 383.563 102.038C387.39 100.428 391.968 99.623 397.299 99.623C402.631 99.623 407.208 100.428 411.035 102.038C414.861 103.648 417.791 106.063 419.823 109.282C421.855 112.502 422.872 116.54 422.872 121.395C422.872 126.25 421.855 130.223 419.823 133.469C417.791 136.715 414.861 139.157 411.035 140.792C407.208 142.428 402.63 143.246 397.299 143.246ZM397.299 134.774C400.255 134.774 402.802 134.287 404.94 133.31C407.077 132.335 408.713 130.909 409.849 129.034C410.984 127.162 411.551 124.878 411.551 122.186V120.603C411.551 117.86 410.984 115.563 409.849 113.716C408.713 111.869 407.079 110.47 404.94 109.52C402.803 108.57 400.256 108.095 397.299 108.095C394.343 108.095 391.797 108.57 389.66 109.52C387.523 110.47 385.886 111.869 384.751 113.716C383.615 115.563 383.049 117.86 383.049 120.603V122.186C383.049 124.878 383.615 127.161 384.751 129.034C385.886 130.908 387.521 132.333 389.66 133.31C391.797 134.287 394.343 134.774 397.299 134.774Z" fill="white"/>
<path d="M444.883 142.284L425.091 100.561H436.887L446.071 120.828C446.439 121.621 446.888 122.649 447.417 123.917C447.944 125.183 448.486 126.478 449.04 127.796C449.594 129.115 450.081 130.304 450.504 131.359H451.137C451.558 130.303 452.02 129.115 452.522 127.796C453.024 126.477 453.524 125.183 454.027 123.917C454.528 122.65 454.963 121.621 455.333 120.828L464.516 100.561H475.996L456.204 142.284H444.882H444.883Z" fill="white"/>
<path d="M504.262 143.245C498.879 143.245 494.246 142.466 490.367 140.91C486.488 139.355 483.491 136.965 481.381 133.745C479.27 130.526 478.214 126.435 478.214 121.473C478.214 116.511 479.244 112.566 481.302 109.32C483.361 106.074 486.316 103.648 490.169 102.036C494.021 100.426 498.588 99.6211 503.866 99.6211C509.409 99.6211 514.066 100.426 517.84 102.036C521.613 103.646 524.451 105.994 526.352 109.082C528.252 112.171 529.202 115.931 529.202 120.365V124.165H489.695C489.854 126.752 490.552 128.823 491.793 130.38C493.033 131.937 494.749 133.06 496.94 133.745C499.13 134.431 501.677 134.775 504.581 134.775C505.741 134.775 507.048 134.645 508.5 134.38C509.951 134.116 511.351 133.721 512.696 133.192C514.042 132.665 515.19 131.965 516.14 131.094C517.089 130.223 517.644 129.154 517.803 127.888H528.887C528.887 129.999 528.346 131.992 527.264 133.865C526.181 135.739 524.584 137.376 522.474 138.774C520.362 140.174 517.775 141.268 514.716 142.06C511.654 142.852 508.171 143.248 504.264 143.248L504.262 143.245ZM489.695 116.881H517.642C517.642 115.351 517.286 114.03 516.574 112.922C515.862 111.813 514.872 110.903 513.604 110.19C512.338 109.478 510.885 108.951 509.25 108.607C507.612 108.265 505.872 108.093 504.024 108.093C501.332 108.093 498.943 108.423 496.859 109.082C494.773 109.743 493.124 110.733 491.911 112.052C490.696 113.371 489.957 114.981 489.694 116.881H489.695Z" fill="white"/>
<path d="M536.643 142.296V100.573H545.431L546.223 107.698H546.936C548.466 105.639 550.208 104.029 552.162 102.869C554.114 101.709 556.186 100.878 558.377 100.375C560.566 99.8737 562.692 99.623 564.75 99.623C568.655 99.623 571.916 100.23 574.528 101.444C577.141 102.658 579.107 104.505 580.426 106.986C581.745 109.467 582.406 112.634 582.406 116.486V142.296H571.48V118.387C571.48 116.593 571.229 115.075 570.728 113.835C570.225 112.595 569.513 111.605 568.591 110.865C567.667 110.126 566.558 109.599 565.266 109.282C563.973 108.966 562.534 108.807 560.951 108.807C558.628 108.807 556.451 109.282 554.419 110.232C552.387 111.182 550.738 112.502 549.472 114.191C548.205 115.881 547.571 117.86 547.571 120.129V142.298H536.645L536.643 142.296Z" fill="white"/>
<path d="M606.947 143.246C604.466 143.246 602.157 143.048 600.02 142.652C597.882 142.255 596.007 141.596 594.399 140.672C592.789 139.749 591.535 138.495 590.638 136.912C589.74 135.329 589.292 133.349 589.292 130.974C589.292 127.596 590.215 124.956 592.062 123.057C593.909 121.157 596.522 119.785 599.901 118.94C603.279 118.096 607.224 117.568 611.737 117.357C616.25 117.146 621.146 117.04 626.424 117.04V115.299C626.424 113.505 625.989 112.08 625.118 111.023C624.247 109.967 622.9 109.215 621.08 108.767C619.259 108.318 616.87 108.093 613.915 108.093C611.54 108.093 609.454 108.252 607.66 108.569C605.866 108.885 604.466 109.361 603.465 109.994C602.462 110.627 601.961 111.419 601.961 112.369V113.319H591.035C590.982 113.108 590.942 112.898 590.916 112.686C590.889 112.475 590.876 112.237 590.876 111.974C590.876 109.494 591.773 107.33 593.568 105.482C595.361 103.635 598.027 102.196 601.564 101.167C605.099 100.137 609.507 99.623 614.786 99.623C619.695 99.623 623.823 100.073 627.176 100.97C630.527 101.868 633.061 103.345 634.777 105.403C636.492 107.461 637.35 110.232 637.35 113.716V131.687C637.35 132.69 637.547 133.456 637.944 133.984C638.34 134.512 639.039 134.776 640.043 134.776H644.081V141.901C643.552 142.113 642.588 142.388 641.191 142.732C639.792 143.074 638.249 143.246 636.56 143.246C634.237 143.246 632.43 142.955 631.137 142.375C629.843 141.795 628.919 141.003 628.366 140C627.812 138.999 627.428 137.89 627.219 136.675H626.586C625.108 138.049 623.34 139.236 621.281 140.238C619.223 141.24 616.978 141.993 614.552 142.494C612.124 142.995 609.59 143.246 606.951 143.246H606.947ZM609.639 134.774C611.328 134.774 613.134 134.59 615.062 134.22C616.989 133.852 618.822 133.309 620.564 132.597C622.306 131.885 623.717 130.987 624.8 129.905C625.882 128.824 626.423 127.57 626.423 126.145V124.008C620.511 124.008 615.616 124.206 611.736 124.602C607.857 124.998 604.966 125.671 603.067 126.621C601.167 127.57 600.216 128.917 600.216 130.659C600.216 131.82 600.677 132.691 601.601 133.272C602.524 133.853 603.711 134.248 605.164 134.459C606.615 134.671 608.106 134.776 609.637 134.776L609.639 134.774Z" fill="white"/>
<path d="M647.561 142.296V100.573H656.349L657.141 107.698H657.853C659.383 105.639 661.125 104.029 663.079 102.869C665.031 101.709 667.103 100.878 669.294 100.375C671.483 99.8737 673.609 99.623 675.667 99.623C679.572 99.623 682.833 100.23 685.445 101.444C688.058 102.658 690.024 104.505 691.344 106.986C692.664 109.467 693.324 112.634 693.324 116.486V142.296H682.398V118.387C682.398 116.593 682.148 115.075 681.646 113.835C681.144 112.595 680.432 111.605 679.509 110.865C678.585 110.126 677.476 109.599 676.184 109.282C674.891 108.966 673.453 108.807 671.87 108.807C669.546 108.807 667.369 109.282 665.338 110.232C663.305 111.182 661.656 112.502 660.39 114.191C659.124 115.881 658.489 117.86 658.489 120.129V142.298H647.564L647.561 142.296Z" fill="white"/>
<path d="M719.208 143.248C716.147 143.248 713.666 142.826 711.767 141.982C709.866 141.138 708.481 139.726 707.61 137.746C706.739 135.766 706.303 133.063 706.303 129.631V109.046H698.307V100.575H706.62L708.837 88.3818H717.23V100.575H728.552V109.046H717.23V128.839C717.23 130.793 717.587 132.271 718.299 133.272C719.011 134.275 720.607 134.776 723.089 134.776H728.552V141.902C727.813 142.167 726.876 142.403 725.742 142.614C724.606 142.824 723.458 142.982 722.298 143.089C721.136 143.194 720.108 143.248 719.211 143.248H719.208Z" fill="white"/>
<path d="M760.775 142.295V87.9043H772.809V142.295H760.775Z" fill="white"/>
<path d="M783.97 142.296V100.573H792.758L793.551 107.698H794.262C795.792 105.639 797.534 104.029 799.488 102.869C801.441 101.709 803.512 100.878 805.704 100.375C807.892 99.8737 810.018 99.623 812.077 99.623C815.982 99.623 819.242 100.23 821.855 101.444C824.467 102.658 826.433 104.505 827.753 106.986C829.073 109.467 829.733 112.634 829.733 116.486V142.296H818.808V118.387C818.808 116.593 818.557 115.075 818.056 113.835C817.553 112.595 816.841 111.605 815.918 110.865C814.994 110.126 813.886 109.599 812.593 109.282C811.3 108.966 809.862 108.807 808.279 108.807C805.955 108.807 803.778 109.282 801.747 110.232C799.714 111.182 798.065 112.502 796.799 114.191C795.533 115.881 794.898 117.86 794.898 120.129V142.298H783.973L783.97 142.296Z" fill="white"/>
<path d="M855.62 143.248C852.559 143.248 850.078 142.826 848.178 141.982C846.278 141.138 844.892 139.726 844.021 137.746C843.15 135.766 842.715 133.063 842.715 129.631V109.046H834.719V100.575H843.032L845.249 88.3818H853.642V100.575H864.964V109.046H853.642V128.839C853.642 130.793 853.998 132.271 854.71 133.272C855.422 134.275 857.018 134.776 859.501 134.776H864.964V141.902C864.225 142.167 863.288 142.403 862.153 142.614C861.018 142.824 859.87 142.982 858.71 143.089C857.548 143.194 856.519 143.248 855.623 143.248H855.62Z" fill="white"/>
<path d="M870.819 113V107.774C871.928 107.615 872.929 107.179 873.827 106.468C874.724 105.756 875.437 104.804 875.964 103.617C876.492 102.429 876.756 101.018 876.756 99.3811H871.531V87.9014H883.406V98.036C883.406 101.573 882.773 104.409 881.505 106.546C880.239 108.684 878.642 110.242 876.715 111.218C874.787 112.194 872.822 112.789 870.816 113H870.819Z" fill="white"/>
<path d="M892.196 142.294V84.9736H903.121V142.294H892.196Z" fill="white"/>
<path d="M333.647 209.534C326.31 209.534 320.16 208.465 315.2 206.328C310.238 204.191 306.516 201.024 304.036 196.828C301.555 192.632 300.315 187.474 300.315 181.35C300.315 172.377 303.166 165.45 308.865 160.568C314.565 155.686 322.799 153.245 333.567 153.245C339.689 153.245 345.087 154.116 349.758 155.858C354.429 157.6 358.071 160.107 360.683 163.38C363.296 166.653 364.603 170.612 364.603 175.255H352.806C352.806 172.616 351.987 170.413 350.352 168.644C348.715 166.876 346.446 165.544 343.544 164.646C340.64 163.749 337.237 163.3 333.33 163.3C329.107 163.3 325.453 163.973 322.365 165.318C319.276 166.664 316.889 168.604 315.2 171.137C313.509 173.671 312.666 176.732 312.666 180.32V182.3C312.666 185.941 313.509 189.043 315.2 191.602C316.889 194.163 319.289 196.115 322.405 197.461C325.519 198.808 329.186 199.48 333.41 199.48C337.635 199.48 340.971 199.044 343.9 198.173C346.83 197.302 349.099 195.984 350.709 194.215C352.319 192.447 353.124 190.27 353.124 187.683H364.683C364.683 192.223 363.389 196.129 360.803 199.401C358.217 202.674 354.601 205.181 349.957 206.923C345.311 208.664 339.875 209.535 333.647 209.535V209.534Z" fill="white"/>
<path d="M373.391 208.592V151.271H384.316V172.648H384.87C386.347 170.906 388.01 169.548 389.858 168.571C391.705 167.596 393.631 166.908 395.638 166.513C397.644 166.117 399.596 165.918 401.497 165.918C405.402 165.918 408.662 166.526 411.275 167.739C413.888 168.954 415.853 170.8 417.174 173.281C418.493 175.762 419.153 178.929 419.153 182.781V208.592H408.228V184.682C408.228 182.889 407.977 181.37 407.476 180.13C406.973 178.891 406.261 177.901 405.339 177.16C404.415 176.421 403.306 175.894 402.014 175.578C400.72 175.261 399.282 175.102 397.699 175.102C395.376 175.102 393.198 175.578 391.167 176.527C389.135 177.477 387.486 178.798 386.219 180.485C384.953 182.175 384.319 184.155 384.319 186.423V208.592H373.393H373.391Z" fill="white"/>
<path d="M445.277 209.553C439.47 209.553 435.077 208.181 432.096 205.436C429.113 202.693 427.622 198.443 427.622 192.69V166.88H438.548V190.789C438.548 192.584 438.797 194.102 439.3 195.342C439.801 196.582 440.513 197.572 441.437 198.311C442.36 199.05 443.468 199.577 444.762 199.894C446.054 200.211 447.494 200.369 449.076 200.369C451.399 200.369 453.576 199.894 455.608 198.944C457.64 197.994 459.29 196.675 460.556 194.986C461.823 193.297 462.457 191.318 462.457 189.049V166.88H473.383V208.603H464.594L463.802 201.478H463.09C461.612 203.537 459.884 205.147 457.905 206.307C455.925 207.469 453.854 208.3 451.689 208.801C449.525 209.302 447.386 209.553 445.276 209.553H445.277Z" fill="white"/>
<path d="M482.488 208.594V166.871H491.276L492.068 174.234H492.702C493.282 172.757 494.127 171.383 495.236 170.117C496.344 168.85 497.729 167.835 499.393 167.068C501.056 166.303 502.942 165.921 505.054 165.921C506.003 165.921 506.94 165.988 507.864 166.119C508.787 166.25 509.619 166.449 510.358 166.713V176.293H504.895C502.783 176.293 501.001 176.65 499.55 177.362C498.098 178.074 496.924 179.038 496.026 180.251C495.128 181.466 494.469 182.798 494.047 184.249C493.624 185.702 493.414 187.193 493.414 188.723V208.595H482.488V208.594Z" fill="white"/>
<path d="M537.75 209.545C532.367 209.545 527.762 208.74 523.934 207.13C520.107 205.52 517.192 203.092 515.186 199.846C513.179 196.6 512.178 192.55 512.178 187.693C512.178 182.836 513.179 178.8 515.186 175.58C517.192 172.361 520.107 169.946 523.934 168.336C527.76 166.726 532.366 165.921 537.75 165.921C541.075 165.921 544.189 166.278 547.093 166.99C549.995 167.702 552.542 168.784 554.732 170.236C556.922 171.688 558.624 173.481 559.839 175.619C561.052 177.756 561.66 180.25 561.66 183.101H550.655C550.655 181.2 550.061 179.605 548.873 178.31C547.686 177.018 546.115 176.041 544.162 175.381C542.208 174.722 540.071 174.391 537.749 174.391C534.792 174.391 532.247 174.867 530.11 175.816C527.972 176.766 526.335 178.166 525.2 180.012C524.065 181.86 523.499 184.156 523.499 186.9V188.482C523.499 191.174 524.079 193.457 525.241 195.331C526.401 197.205 528.077 198.63 530.268 199.607C532.459 200.584 535.084 201.071 538.146 201.071C540.415 201.071 542.526 200.714 544.48 200.002C546.432 199.29 548.015 198.275 549.23 196.954C550.443 195.635 551.051 194.078 551.051 192.283H561.66C561.66 195.186 561.039 197.72 559.799 199.883C558.558 202.048 556.855 203.841 554.692 205.267C552.528 206.692 549.994 207.761 547.091 208.473C544.188 209.185 541.075 209.541 537.749 209.541L537.75 209.545Z" fill="white"/>
<path d="M569.099 208.592V151.271H580.024V172.648H580.578C582.055 170.906 583.718 169.548 585.566 168.571C587.413 167.596 589.339 166.908 591.346 166.513C593.352 166.117 595.304 165.918 597.205 165.918C601.11 165.918 604.37 166.526 606.983 167.739C609.596 168.954 611.561 170.8 612.882 173.281C614.201 175.762 614.861 178.929 614.861 182.781V208.592H603.936V184.682C603.936 182.889 603.685 181.37 603.184 180.13C602.681 178.891 601.969 177.901 601.047 177.16C600.123 176.421 599.014 175.894 597.722 175.578C596.428 175.261 594.99 175.102 593.407 175.102C591.084 175.102 588.907 175.578 586.875 176.527C584.843 177.477 583.194 178.798 581.927 180.485C580.661 182.175 580.027 184.155 580.027 186.423V208.592H569.101H569.099Z" fill="white"/>
</svg>
