<?xml version="1.0" encoding="UTF-8"?>
<!DOCTYPE svg PUBLIC "-//W3C//DTD SVG 1.1//EN" "http://www.w3.org/Graphics/SVG/1.1/DTD/svg11.dtd">
<!-- Creator: CorelDRAW -->
<svg xmlns="http://www.w3.org/2000/svg" xml:space="preserve" width="460px" height="84px" version="1.1" style="shape-rendering:geometricPrecision; text-rendering:geometricPrecision; image-rendering:optimizeQuality; fill-rule:evenodd; clip-rule:evenodd"
viewBox="0 0 62.667 11.497"
 xmlns:xlink="http://www.w3.org/1999/xlink"
 xmlns:xodm="http://www.corel.com/coreldraw/odm/2003">
 <defs>
  <style type="text/css">
   <![CDATA[
    .fil0 {fill:black;fill-rule:nonzero}
   ]]>
  </style>
 </defs>
 <g id="Layer_x0020_1">
  <metadata id="CorelCorpID_0Corel-Layer"/>
  <g id="_2471209364816">
   <path class="fil0" d="M6.469 6.756c0.021,-0.053 0.043,-0.108 0.061,-0.161 0.019,-0.055 0.034,-0.111 0.047,-0.17l0 -0.009c0,-0.019 -0.013,-0.031 -0.031,-0.037l-0.006 0c-0.016,0 -0.034,0.012 -0.041,0.031 -0.009,0.052 -0.027,0.105 -0.046,0.157 -0.018,0.053 -0.037,0.105 -0.059,0.158 -0.043,0.105 -0.089,0.207 -0.139,0.309 -0.099,0.204 -0.207,0.402 -0.324,0.6 -0.229,0.389 -0.485,0.763 -0.77,1.115 -0.284,0.353 -0.593,0.683 -0.936,0.977 -0.346,0.29 -0.723,0.541 -1.134,0.714 -0.356,0.148 -0.733,0.232 -1.11,0.232 -0.065,0 -0.127,0 -0.192,-0.007 -0.055,-0.003 -0.111,-0.012 -0.166,-0.018 -0.056,-0.009 -0.109,-0.016 -0.164,-0.028 -0.053,-0.012 -0.108,-0.025 -0.161,-0.04 -0.056,-0.012 -0.105,-0.028 -0.158,-0.046 -0.2,-0.075 -0.38,-0.201 -0.519,-0.368 -0.136,-0.164 -0.235,-0.362 -0.303,-0.572 -0.065,-0.21 -0.105,-0.43 -0.123,-0.652 -0.013,-0.13 -0.019,-0.263 -0.019,-0.396 0,-0.312 0.031,-0.63 0.077,-0.942 0.065,-0.445 0.17,-0.887 0.297,-1.32 0.127,-0.433 0.278,-0.859 0.448,-1.276 0.173,-0.418 0.368,-0.825 0.581,-1.224 0.217,-0.396 0.451,-0.779 0.714,-1.147 0.263,-0.361 0.553,-0.707 0.878,-1.01 0.164,-0.149 0.337,-0.288 0.519,-0.405 0.186,-0.118 0.38,-0.214 0.581,-0.272 0.102,-0.028 0.207,-0.047 0.312,-0.056 0.037,-0.003 0.074,-0.006 0.112,-0.006 0.064,0 0.129,0.006 0.194,0.019 0.195,0.03 0.368,0.132 0.473,0.287 0.093,0.139 0.139,0.318 0.139,0.494 0,0.025 -0.003,0.047 -0.003,0.068 -0.009,0.204 -0.071,0.405 -0.173,0.585l0 0.003c-0.012,0.021 -0.018,0.046 -0.018,0.071 0,0.055 0.027,0.108 0.08,0.133 0.021,0.012 0.049,0.018 0.074,0.018 0.053,0 0.102,-0.028 0.13,-0.077 0.12,-0.223 0.191,-0.467 0.201,-0.717 0,-0.022 0.003,-0.043 0.003,-0.065 0,-0.105 -0.016,-0.213 -0.04,-0.315 -0.031,-0.127 -0.084,-0.251 -0.158,-0.359 -0.077,-0.111 -0.179,-0.204 -0.294,-0.272 -0.117,-0.068 -0.244,-0.108 -0.37,-0.126 -0.072,-0.013 -0.143,-0.019 -0.214,-0.019 -0.055,0 -0.108,0.003 -0.16,0.009 -0.121,0.01 -0.245,0.034 -0.362,0.068 -0.235,0.071 -0.448,0.18 -0.649,0.309 -0.198,0.13 -0.38,0.282 -0.55,0.439 -0.34,0.322 -0.634,0.683 -0.9,1.057 -0.265,0.377 -0.503,0.773 -0.717,1.181 -0.216,0.405 -0.407,0.822 -0.577,1.248 -0.174,0.427 -0.322,0.86 -0.449,1.301 -0.123,0.442 -0.222,0.894 -0.287,1.348 -0.04,0.306 -0.068,0.612 -0.068,0.921 0,0.154 0.006,0.309 0.022,0.463 0.024,0.229 0.065,0.461 0.139,0.687 0.074,0.222 0.185,0.438 0.34,0.621 0.154,0.185 0.361,0.327 0.587,0.408 0.059,0.021 0.114,0.037 0.17,0.049 0.059,0.019 0.114,0.028 0.173,0.04 0.056,0.013 0.114,0.019 0.173,0.028 0.059,0.006 0.114,0.016 0.173,0.019 0.059,0.003 0.117,0.006 0.176,0.006 0.411,0 0.816,-0.093 1.187,-0.254 0.427,-0.185 0.813,-0.448 1.159,-0.747 0.349,-0.303 0.661,-0.64 0.946,-1.002 0.281,-0.358 0.537,-0.738 0.766,-1.137 0.114,-0.198 0.223,-0.399 0.318,-0.606 0.05,-0.105 0.096,-0.207 0.14,-0.315zm0.917 -1.471l0.306 -0.85 0.3 -0.856c0.099,-0.284 0.201,-0.569 0.291,-0.862 0.012,-0.038 0.021,-0.071 0.031,-0.115 0,-0.006 0.003,-0.012 0.003,-0.018l0 -0.034c0,-0.006 0,-0.01 -0.006,-0.025 -0.004,-0.009 -0.031,-0.046 -0.068,-0.046 -0.028,0 -0.041,0.012 -0.047,0.015 -0.009,0.006 -0.009,0.006 -0.012,0.009 -0.013,0.01 -0.016,0.016 -0.019,0.022 -0.015,0.022 -0.024,0.037 -0.034,0.056 -0.037,0.068 -0.074,0.132 -0.108,0.2 -0.071,0.136 -0.139,0.272 -0.201,0.412 -0.127,0.278 -0.241,0.559 -0.346,0.843 -0.105,0.285 -0.204,0.572 -0.297,0.859 -0.185,0.578 -0.349,1.162 -0.491,1.75 -0.071,0.296 -0.139,0.59 -0.195,0.89 -0.015,0.077 -0.028,0.151 -0.04,0.228 -0.006,0.038 -0.009,0.075 -0.015,0.115 0,0.021 -0.003,0.043 -0.003,0.065 0,0.012 0,0.024 0.003,0.043 0,0.006 0,0.009 0.003,0.019 0,0.003 0,0.006 0.003,0.012 0.003,0.006 0.003,0.012 0.009,0.022 0.012,0.015 0.012,0.021 0.04,0.037 0.019,0.009 0.034,0.012 0.05,0.012 0.009,0 0.018,0 0.028,-0.003 0.018,-0.006 0.015,-0.006 0.021,-0.009 0.006,-0.003 0.009,-0.003 0.013,-0.007 0.024,-0.015 0.03,-0.027 0.04,-0.04 0.009,-0.009 0.018,-0.018 0.024,-0.028 0.013,-0.018 0.022,-0.037 0.034,-0.052l0.056 -0.099c0.04,-0.065 0.074,-0.13 0.114,-0.192 0.078,-0.126 0.161,-0.247 0.254,-0.355 0.049,-0.056 0.099,-0.108 0.151,-0.161 0.025,-0.024 0.053,-0.046 0.081,-0.071 0.015,-0.012 0.027,-0.021 0.043,-0.034 0.003,-0.003 0.006,-0.006 0.012,-0.009l0 0.025c0,0.021 0,0.046 -0.003,0.071 -0.003,0.071 -0.012,0.148 -0.018,0.222 -0.007,0.077 -0.013,0.155 -0.013,0.235 0.006,0.077 0.013,0.161 0.059,0.241 0.022,0.037 0.059,0.074 0.102,0.09 0.034,0.015 0.071,0.018 0.102,0.018l0.028 0c0.086,-0.006 0.16,-0.04 0.228,-0.074 0.14,-0.074 0.263,-0.164 0.381,-0.256 0.238,-0.192 0.46,-0.396 0.673,-0.609 0.003,-0.003 0.007,-0.006 0.007,-0.009 0,-0.004 -0.004,-0.007 -0.007,-0.007 0,-0.003 -0.003,-0.006 -0.006,-0.006 -0.003,0 -0.006,0.003 -0.009,0.006 -0.22,0.204 -0.448,0.402 -0.689,0.581 -0.124,0.087 -0.248,0.17 -0.38,0.235 -0.065,0.028 -0.136,0.056 -0.201,0.059 -0.034,0 -0.065,-0.003 -0.093,-0.015 -0.025,-0.013 -0.043,-0.031 -0.059,-0.059 -0.028,-0.043 -0.034,-0.105 -0.034,-0.167l0 -0.031c0,-0.071 0.006,-0.145 0.019,-0.219 0.009,-0.075 0.025,-0.146 0.034,-0.223 0.003,-0.034 0.006,-0.065 0.006,-0.102l0 -0.025c0,-0.012 -0.003,-0.024 -0.006,-0.037 -0.003,-0.015 -0.006,-0.031 -0.022,-0.049 -0.012,-0.022 -0.043,-0.04 -0.068,-0.04l-0.015 0c-0.019,0 -0.031,0.003 -0.044,0.006 -0.027,0.009 -0.046,0.021 -0.068,0.034 -0.015,0.012 -0.03,0.025 -0.046,0.034 -0.034,0.025 -0.065,0.049 -0.093,0.074 -0.061,0.049 -0.12,0.102 -0.173,0.158 -0.111,0.114 -0.207,0.238 -0.293,0.364 -0.013,0.022 -0.025,0.04 -0.034,0.059 0,-0.015 0.003,-0.028 0.006,-0.04 0.046,-0.263 0.102,-0.522 0.164,-0.782l0.537 -1.505zm-0.04 -0.337c0.17,-0.544 0.362,-1.079 0.584,-1.601 -0.021,0.062 -0.043,0.127 -0.065,0.189l-0.577 1.718c-0.075,0.222 -0.149,0.448 -0.226,0.674 0.09,-0.328 0.182,-0.656 0.284,-0.98zm1.626 1.678c-0.012,0.003 -0.012,0.006 -0.022,0.009 -0.003,0 -0.003,0.004 -0.006,0.004 -0.009,0.006 -0.012,0.009 -0.015,0.012l-0.01 0.006 -0.012 0.012 -0.019 0.022c-0.012,0.012 -0.021,0.025 -0.03,0.037 -0.022,0.028 -0.044,0.053 -0.062,0.08 -0.019,0.028 -0.037,0.056 -0.056,0.09 -0.003,0.009 -0.009,0.019 -0.012,0.031 -0.003,0.006 -0.006,0.012 -0.01,0.022 0,0.006 -0.003,0.015 -0.003,0.031l0 0.015c0,0.015 0.003,0.037 0.028,0.062 0.022,0.025 0.053,0.031 0.068,0.034l0.04 0c0.124,0.003 0.248,0.006 0.356,0.031 0.052,0.009 0.102,0.031 0.13,0.055 0.015,0.013 0.024,0.028 0.031,0.044l0.003 0.006 0 0.003 0.003 0.003c0,0.009 -0.003,0.022 -0.003,0.034 -0.01,0.049 -0.028,0.108 -0.05,0.167 -0.018,0.059 -0.04,0.114 -0.065,0.173 -0.043,0.117 -0.092,0.232 -0.139,0.349 -0.046,0.118 -0.093,0.235 -0.136,0.356 -0.043,0.12 -0.083,0.241 -0.111,0.37 -0.006,0.034 -0.009,0.068 -0.012,0.102 0,0.013 -0.004,0.028 -0.004,0.041 0,0.024 0.004,0.049 0.01,0.074 0.006,0.021 0.015,0.043 0.031,0.068 0.018,0.021 0.043,0.04 0.068,0.049 0.021,0.006 0.04,0.009 0.055,0.009 0.028,0 0.053,-0.006 0.074,-0.012 0.038,-0.012 0.068,-0.025 0.102,-0.043 0.031,-0.019 0.059,-0.037 0.084,-0.056 0.052,-0.043 0.102,-0.086 0.148,-0.13 0.186,-0.176 0.349,-0.367 0.51,-0.565 0.318,-0.39 0.612,-0.801 0.881,-1.23l0 -0.006c0,-0.007 -0.003,-0.016 -0.006,-0.019 -0.003,0 -0.006,-0.003 -0.009,-0.003 -0.007,0 -0.013,0.003 -0.016,0.009 -0.281,0.417 -0.59,0.813 -0.918,1.193 -0.167,0.186 -0.337,0.371 -0.519,0.538 -0.046,0.04 -0.093,0.08 -0.142,0.117 -0.022,0.016 -0.047,0.031 -0.071,0.047 -0.022,0.009 -0.05,0.021 -0.074,0.028 -0.016,0.003 -0.028,0.006 -0.038,0.006 -0.009,0 -0.015,-0.003 -0.018,-0.003l-0.006 -0.006c-0.003,-0.004 -0.006,-0.013 -0.01,-0.022 0,-0.009 -0.003,-0.022 -0.003,-0.034 0,-0.013 0.003,-0.025 0.003,-0.037 0.004,-0.028 0.01,-0.059 0.016,-0.087 0.025,-0.114 0.068,-0.232 0.111,-0.349 0.047,-0.114 0.093,-0.229 0.142,-0.346 0.05,-0.114 0.102,-0.229 0.152,-0.346 0.024,-0.059 0.046,-0.118 0.071,-0.18 0.022,-0.061 0.043,-0.12 0.059,-0.191 0.003,-0.019 0.006,-0.04 0.006,-0.062 0,-0.012 0,-0.028 -0.003,-0.043 0,-0.003 -0.003,-0.009 -0.003,-0.013l-0.004 -0.009 -0.006 -0.015c-0.015,-0.04 -0.043,-0.081 -0.074,-0.108 -0.065,-0.062 -0.139,-0.087 -0.207,-0.106 -0.074,-0.018 -0.145,-0.027 -0.213,-0.034 0,0 0.003,-0.003 0.003,-0.006 0.025,-0.024 0.043,-0.049 0.068,-0.086 0.006,-0.01 0.012,-0.019 0.018,-0.037 0.004,-0.01 0.007,-0.019 0.007,-0.034 0,-0.019 0,-0.044 -0.016,-0.068 -0.015,-0.022 -0.037,-0.037 -0.049,-0.044 -0.01,-0.003 -0.013,-0.003 -0.019,-0.006 -0.006,0 -0.012,-0.003 -0.015,-0.003 -0.01,-0.003 -0.016,-0.003 -0.025,-0.003l-0.009 0c0,0 -0.013,0 -0.028,0.003zm1.913 -0.028c-0.031,0.056 -0.068,0.118 -0.102,0.18 -0.034,0.061 -0.065,0.123 -0.096,0.185 -0.062,0.127 -0.12,0.257 -0.161,0.396 -0.018,0.071 -0.034,0.145 -0.034,0.222l0 0.031c0,0.031 0.004,0.059 0.01,0.093 0.009,0.04 0.031,0.083 0.058,0.12 0.031,0.037 0.068,0.062 0.109,0.081 0.037,0.018 0.08,0.027 0.12,0.031l0.037 0c0.065,0 0.127,-0.013 0.186,-0.028 0.139,-0.04 0.265,-0.105 0.386,-0.173 0.117,-0.071 0.232,-0.149 0.343,-0.229 0.111,-0.08 0.22,-0.164 0.325,-0.25 0.108,-0.087 0.21,-0.177 0.315,-0.263 0.003,-0.003 0.006,-0.009 0.006,-0.012 0,-0.004 -0.003,-0.007 -0.003,-0.01 -0.003,-0.003 -0.009,-0.006 -0.012,-0.006 -0.004,0 -0.007,0.003 -0.01,0.003 -0.108,0.087 -0.216,0.17 -0.324,0.251 -0.112,0.08 -0.223,0.157 -0.337,0.231 -0.111,0.071 -0.229,0.142 -0.349,0.204 -0.118,0.059 -0.241,0.115 -0.368,0.139 -0.043,0.01 -0.084,0.016 -0.124,0.016 -0.018,0 -0.037,0 -0.055,-0.003 -0.028,-0.006 -0.053,-0.016 -0.078,-0.025 -0.021,-0.012 -0.037,-0.028 -0.049,-0.046 -0.019,-0.028 -0.028,-0.065 -0.028,-0.105 0,-0.013 0.003,-0.028 0.003,-0.041 0.006,-0.058 0.022,-0.117 0.043,-0.179 0.044,-0.117 0.106,-0.235 0.174,-0.349 0.034,-0.059 0.068,-0.114 0.105,-0.17 0.037,-0.056 0.074,-0.108 0.117,-0.167 0,-0.003 0.003,-0.006 0.006,-0.009 0.009,-0.019 0.016,-0.037 0.016,-0.059 0,-0.04 -0.022,-0.083 -0.062,-0.105 -0.019,-0.012 -0.04,-0.016 -0.062,-0.016 -0.04,0 -0.08,0.022 -0.102,0.059l-0.003 0.003zm0.229 -0.179c0.083,0 0.176,-0.154 0.188,-0.21 0,-0.009 0.003,-0.019 0.003,-0.028 0,-0.028 -0.009,-0.052 -0.024,-0.077 -0.019,-0.034 -0.053,-0.056 -0.087,-0.062 -0.009,-0.003 -0.019,-0.003 -0.028,-0.003 -0.028,0 -0.055,0.006 -0.08,0.022 -0.031,0.021 -0.053,0.052 -0.059,0.089 -0.003,0.016 -0.006,0.05 -0.006,0.084 0,0.077 0.015,0.17 0.08,0.185l0.013 0zm1.795 -1.536c0.013,0.006 0.028,0.009 0.04,0.009 0.038,0 0.068,-0.018 0.087,-0.046 0.006,-0.003 0.015,-0.006 0.025,-0.012 0.018,-0.007 0.043,-0.016 0.068,-0.025 0.049,-0.012 0.105,-0.025 0.157,-0.037 0.109,-0.022 0.223,-0.04 0.334,-0.056 0.226,-0.034 0.451,-0.059 0.677,-0.083 0.269,-0.028 0.535,-0.05 0.804,-0.071 -0.155,0.259 -0.313,0.519 -0.48,0.775 -0.284,0.436 -0.584,0.86 -0.905,1.271 -0.167,0.213 -0.337,0.42 -0.513,0.624 -0.04,-0.012 -0.08,-0.025 -0.121,-0.031 -0.068,-0.015 -0.136,-0.025 -0.201,-0.034 -0.064,-0.009 -0.129,-0.015 -0.191,-0.025 -0.062,-0.012 -0.124,-0.021 -0.17,-0.043 -0.025,-0.009 -0.043,-0.022 -0.053,-0.031 -0.009,-0.012 -0.012,-0.018 -0.015,-0.034 0,-0.015 0.003,-0.04 0.012,-0.062 0.006,-0.021 0.019,-0.046 0.034,-0.068 0.065,-0.096 0.158,-0.188 0.251,-0.272 0.092,-0.08 0.194,-0.157 0.299,-0.222 0.053,-0.034 0.105,-0.062 0.161,-0.087 0.053,-0.021 0.108,-0.04 0.155,-0.043 0.021,0 0.04,0.003 0.049,0.006 0.012,0.006 0.015,0.009 0.025,0.022 0.009,0.018 0.018,0.055 0.018,0.096 0,0.012 -0.003,0.024 -0.003,0.037l0 0.003c0,0.059 0.043,0.105 0.099,0.108l0.006 0c0.056,0 0.099,-0.046 0.102,-0.099 0,-0.037 0,-0.077 -0.006,-0.117 -0.006,-0.041 -0.015,-0.087 -0.043,-0.13 -0.025,-0.047 -0.071,-0.087 -0.121,-0.105 -0.04,-0.016 -0.077,-0.019 -0.114,-0.019l-0.028 0c-0.083,0.009 -0.154,0.034 -0.219,0.065 -0.065,0.028 -0.127,0.062 -0.183,0.099 -0.117,0.077 -0.222,0.161 -0.321,0.25 -0.05,0.047 -0.099,0.096 -0.145,0.146 -0.044,0.052 -0.09,0.105 -0.127,0.166 -0.022,0.031 -0.04,0.065 -0.053,0.109 -0.009,0.031 -0.018,0.068 -0.018,0.111l0 0.018c0.003,0.05 0.028,0.106 0.065,0.14 0.034,0.037 0.074,0.055 0.111,0.071 0.074,0.027 0.142,0.037 0.21,0.046 0.065,0.009 0.13,0.015 0.195,0.022 0.077,0.009 0.154,0.018 0.226,0.037 -0.127,0.145 -0.257,0.287 -0.39,0.429 -0.179,0.189 -0.361,0.374 -0.541,0.569 -0.043,0.046 -0.086,0.099 -0.126,0.154 -0.022,0.028 -0.041,0.056 -0.059,0.09 -0.006,0.019 -0.016,0.037 -0.019,0.059 0,0.009 -0.003,0.018 -0.003,0.028 0,0.015 0.003,0.031 0.009,0.049 0.01,0.025 0.028,0.046 0.047,0.062 0.015,0.015 0.037,0.025 0.059,0.031 0.027,0.009 0.055,0.015 0.083,0.015 0.009,0 0.022,-0.003 0.034,-0.003 0.074,-0.003 0.139,-0.025 0.204,-0.049 0.127,-0.05 0.244,-0.118 0.355,-0.192 0.112,-0.077 0.214,-0.161 0.313,-0.25 0.098,-0.093 0.188,-0.192 0.268,-0.303 0.041,-0.056 0.078,-0.114 0.105,-0.179 0.031,-0.062 0.056,-0.13 0.065,-0.207 0.003,-0.022 0.007,-0.041 0.007,-0.062 0,-0.059 -0.013,-0.118 -0.041,-0.17 -0.021,-0.037 -0.046,-0.071 -0.077,-0.099 -0.028,-0.028 -0.062,-0.047 -0.096,-0.065 0.17,-0.201 0.334,-0.405 0.495,-0.612 0.318,-0.414 0.615,-0.844 0.896,-1.286 0.167,-0.259 0.325,-0.522 0.479,-0.788 -0.12,0.3 -0.235,0.603 -0.346,0.909 -0.182,0.497 -0.355,1.001 -0.501,1.511 -0.148,0.51 -0.278,1.026 -0.355,1.555l0 0.009c0,0.028 0.018,0.053 0.046,0.059l0.006 0c0.031,0 0.056,-0.022 0.062,-0.05 0.087,-0.519 0.226,-1.026 0.38,-1.53 0.158,-0.503 0.337,-1.001 0.529,-1.492 0.13,-0.34 0.269,-0.68 0.411,-1.017 0.093,-0.006 0.185,-0.012 0.275,-0.019 0.915,-0.068 1.83,-0.117 2.744,-0.16 0.019,0 0.034,-0.019 0.034,-0.037 0,-0.022 -0.018,-0.038 -0.037,-0.038 -0.918,0.022 -1.832,0.05 -2.747,0.093l-0.204 0.01c0.043,-0.096 0.083,-0.195 0.127,-0.294 0.108,-0.241 0.216,-0.482 0.327,-0.72 0.056,-0.121 0.111,-0.238 0.17,-0.356 0.028,-0.058 0.059,-0.12 0.087,-0.176l0.046 -0.086 0.009 -0.022c0.003,-0.006 0.006,-0.009 0.01,-0.015 0.006,-0.01 0.012,-0.019 0.015,-0.031l0.019 -0.034c0.009,-0.019 0.012,-0.037 0.012,-0.053 0,-0.04 -0.019,-0.077 -0.056,-0.099 -0.018,-0.012 -0.04,-0.018 -0.062,-0.018 -0.037,0 -0.077,0.018 -0.098,0.055 -0.01,0.019 -0.022,0.037 -0.034,0.056 -0.004,0.009 -0.01,0.019 -0.016,0.028l-0.009 0.021 -0.047 0.093c-0.027,0.059 -0.055,0.121 -0.086,0.179 -0.056,0.121 -0.108,0.245 -0.164,0.365 -0.108,0.241 -0.213,0.485 -0.315,0.733 -0.025,0.055 -0.046,0.114 -0.071,0.173 -0.04,0.071 -0.081,0.145 -0.124,0.216 -0.303,0.015 -0.606,0.034 -0.912,0.059 -0.228,0.018 -0.457,0.037 -0.686,0.065 -0.114,0.015 -0.231,0.03 -0.346,0.052 -0.058,0.009 -0.117,0.022 -0.176,0.037 -0.031,0.009 -0.062,0.019 -0.093,0.031 -0.018,0.006 -0.034,0.016 -0.052,0.028 -0.006,0 -0.013,0.006 -0.016,0.009 -0.006,0.003 -0.012,0.009 -0.018,0.013 -0.013,0.009 -0.028,0.027 -0.037,0.052 -0.006,0.016 -0.01,0.028 -0.01,0.043 0,0.04 0.025,0.078 0.062,0.093zm0.309 2.522c0.05,0.022 0.087,0.056 0.109,0.096 0.018,0.031 0.027,0.071 0.027,0.114 0,0.012 -0.003,0.022 -0.003,0.034 -0.012,0.108 -0.071,0.223 -0.139,0.325 -0.071,0.102 -0.154,0.197 -0.247,0.284 -0.09,0.09 -0.189,0.173 -0.291,0.244 -0.105,0.074 -0.213,0.142 -0.327,0.189 -0.059,0.021 -0.118,0.043 -0.173,0.046l-0.022 0c-0.022,0 -0.04,-0.003 -0.052,-0.006 -0.022,-0.006 -0.041,-0.019 -0.041,-0.028 -0.003,-0.003 -0.003,-0.006 -0.003,-0.012 0,-0.01 0.003,-0.025 0.013,-0.041 0.012,-0.024 0.027,-0.052 0.046,-0.077 0.034,-0.049 0.077,-0.099 0.121,-0.145 0.173,-0.192 0.355,-0.38 0.531,-0.572 0.142,-0.154 0.281,-0.309 0.417,-0.467 0.013,0.007 0.022,0.01 0.034,0.016zm2.646 -0.383c-0.003,-0.056 -0.012,-0.112 -0.028,-0.164 -0.009,-0.028 -0.018,-0.053 -0.034,-0.077 -0.009,-0.016 -0.025,-0.031 -0.04,-0.047l0 -0.018c-0.006,-0.053 -0.053,-0.093 -0.105,-0.093l-0.016 0c-0.123,0.016 -0.244,0.059 -0.346,0.13 -0.102,0.071 -0.182,0.164 -0.244,0.266 -0.062,0.099 -0.105,0.21 -0.133,0.324 -0.015,0.071 -0.025,0.145 -0.025,0.22 0,0.043 0.004,0.086 0.01,0.129 0.009,0.062 0.028,0.121 0.065,0.18 0.015,0.027 0.04,0.055 0.071,0.077 0.015,0.012 0.031,0.021 0.049,0.028l0.013 0.006 0.012 0.003 0.022 0.006c0.033,0.009 0.067,0.016 0.105,0.016 0.027,0 0.055,-0.003 0.083,-0.01 0.062,-0.015 0.121,-0.04 0.17,-0.077 0.096,-0.068 0.17,-0.161 0.226,-0.256 0.055,-0.099 0.095,-0.204 0.117,-0.313 0.006,-0.027 0.012,-0.055 0.016,-0.083 0.071,0.028 0.148,0.04 0.222,0.046l0.049 0c0.093,0 0.186,-0.012 0.279,-0.034 0.105,-0.028 0.21,-0.061 0.309,-0.108 0.099,-0.049 0.194,-0.102 0.278,-0.176 0.003,-0.003 0.006,-0.009 0.006,-0.012 0,-0.007 -0.003,-0.013 -0.006,-0.016 -0.003,-0.003 -0.009,-0.006 -0.016,-0.006 -0.003,0 -0.006,0 -0.009,0.003 -0.083,0.065 -0.179,0.118 -0.275,0.158 -0.096,0.04 -0.198,0.074 -0.3,0.096 -0.083,0.018 -0.167,0.03 -0.25,0.03 -0.022,0 -0.04,-0.003 -0.062,-0.003 -0.074,-0.003 -0.148,-0.018 -0.216,-0.049 0.003,-0.037 0.006,-0.071 0.006,-0.108 0,-0.022 0,-0.047 -0.003,-0.068zm-0.102 0.309c-0.031,0.099 -0.071,0.194 -0.13,0.281 -0.052,0.087 -0.124,0.164 -0.204,0.213 -0.052,0.034 -0.114,0.053 -0.173,0.053 -0.028,0 -0.056,-0.003 -0.083,-0.013l-0.016 -0.006 -0.009 -0.003 -0.003 -0.003c-0.009,-0.003 -0.016,-0.006 -0.022,-0.012 -0.012,-0.013 -0.025,-0.025 -0.034,-0.044 -0.018,-0.034 -0.031,-0.08 -0.034,-0.126 -0.003,-0.022 -0.003,-0.047 -0.003,-0.068 0,-0.071 0.012,-0.146 0.031,-0.22 0.028,-0.096 0.071,-0.185 0.124,-0.265 0.055,-0.078 0.123,-0.149 0.2,-0.195 0.044,-0.028 0.093,-0.05 0.143,-0.065 0,0.028 0.003,0.052 0.009,0.08 0.012,0.056 0.04,0.108 0.074,0.152 0.019,0.024 0.034,0.046 0.056,0.065 0.018,0.021 0.04,0.04 0.065,0.058 0.009,0.007 0.021,0.016 0.034,0.022 -0.01,0.031 -0.016,0.065 -0.025,0.096zm0.028 -0.173c-0.037,-0.028 -0.074,-0.065 -0.105,-0.108 -0.028,-0.041 -0.056,-0.084 -0.075,-0.13 -0.009,-0.022 -0.015,-0.047 -0.015,-0.071 0.022,-0.007 0.043,-0.01 0.068,-0.01l0.006 0c0.04,-0.006 0.071,-0.034 0.087,-0.071 0.021,0.028 0.037,0.065 0.046,0.099 0.009,0.037 0.012,0.077 0.012,0.118l0 0.037c0,0.049 -0.006,0.096 -0.015,0.142 -0.003,0 -0.006,-0.003 -0.009,-0.006z"/>
   <path class="fil0" d="M17.709 7.624c0.049,-0.095 0.096,-0.194 0.136,-0.296 0.028,-0.078 0.056,-0.158 0.074,-0.241 0.006,-0.037 0.012,-0.071 0.012,-0.112l0 -0.024c0,-0.022 0,-0.047 -0.009,-0.075 -0.006,-0.027 -0.018,-0.058 -0.043,-0.083 -0.025,-0.025 -0.059,-0.04 -0.09,-0.043 -0.015,-0.003 -0.034,-0.006 -0.049,-0.006 -0.009,0 -0.022,0.003 -0.031,0.003 -0.025,0.006 -0.046,0.012 -0.068,0.018 -0.025,0.006 -0.046,0.016 -0.065,0.028 -0.083,0.043 -0.148,0.099 -0.204,0.161 -0.117,0.12 -0.21,0.259 -0.294,0.395 -0.049,0.087 -0.098,0.17 -0.142,0.257 0.025,-0.093 0.05,-0.189 0.074,-0.281 0.041,-0.155 0.078,-0.313 0.115,-0.47 0.018,-0.081 0.037,-0.158 0.052,-0.238 0.01,-0.04 0.016,-0.084 0.022,-0.124 0.006,-0.021 0.009,-0.043 0.009,-0.068 0.003,-0.012 0.003,-0.025 0.003,-0.04l0 -0.012c0,-0.006 0,-0.01 -0.003,-0.016l0 -0.009c0,-0.003 -0.003,-0.009 -0.003,-0.015 -0.003,-0.007 0,-0.007 -0.006,-0.016 -0.003,-0.009 -0.006,-0.018 -0.012,-0.028 -0.022,-0.031 -0.059,-0.049 -0.096,-0.049 -0.025,0 -0.047,0.006 -0.068,0.021 -0.031,0.022 -0.05,0.056 -0.05,0.093 0,0.013 0.003,0.025 0.007,0.037 0,0.003 0,0.009 -0.004,0.016 0,0.018 0,0.037 -0.003,0.055 -0.006,0.037 -0.009,0.074 -0.015,0.112 -0.016,0.08 -0.028,0.157 -0.043,0.234 -0.031,0.158 -0.068,0.313 -0.102,0.47 -0.071,0.312 -0.146,0.625 -0.223,0.937 -0.028,0.111 -0.055,0.219 -0.086,0.33 -0.016,0.041 -0.031,0.078 -0.047,0.118 -0.062,0.151 -0.12,0.3 -0.179,0.451 -0.111,0.3 -0.219,0.606 -0.318,0.912 -0.099,0.306 -0.192,0.615 -0.272,0.927 -0.019,0.08 -0.037,0.157 -0.053,0.238 -0.009,0.04 -0.015,0.08 -0.021,0.123 -0.004,0.019 -0.007,0.041 -0.007,0.062l0 0.037c0,0.007 0,0.016 0.003,0.022 0,0.006 0,0.009 0.004,0.015 0,0.004 0.003,0.01 0.003,0.013 0.003,0.003 0.006,0.009 0.009,0.012 0.003,0.003 0.012,0.013 0.022,0.016 0.006,0.003 0.015,0.006 0.024,0.006 0.016,0 0.031,-0.006 0.037,-0.009 0.006,-0.007 0.013,-0.01 0.016,-0.013 0.003,-0.006 0.006,-0.009 0.009,-0.012 0.009,-0.009 0.015,-0.022 0.022,-0.031 0.012,-0.019 0.021,-0.04 0.031,-0.059 0.015,-0.037 0.031,-0.074 0.046,-0.114 0.031,-0.074 0.059,-0.152 0.086,-0.226 0.106,-0.306 0.204,-0.612 0.3,-0.921 0.189,-0.615 0.368,-1.233 0.538,-1.854 0.025,-0.087 0.049,-0.173 0.071,-0.26 0.102,-0.204 0.213,-0.405 0.337,-0.593 0.087,-0.133 0.179,-0.26 0.291,-0.368 0.052,-0.052 0.114,-0.102 0.176,-0.13 0.015,-0.009 0.031,-0.015 0.046,-0.018 0.015,-0.006 0.034,-0.009 0.049,-0.013l0.038 0c0.009,0.004 0.012,0.007 0.018,0.01 0.006,0.006 0.016,0.034 0.016,0.068 0,0.031 -0.007,0.068 -0.016,0.105 -0.015,0.071 -0.04,0.145 -0.068,0.219 -0.028,0.071 -0.062,0.142 -0.096,0.213 -0.034,0.072 -0.071,0.143 -0.108,0.214 -0.009,0.018 -0.022,0.037 -0.031,0.055 -0.123,0.081 -0.244,0.164 -0.352,0.269 -0.059,0.059 -0.118,0.121 -0.164,0.198 -0.022,0.04 -0.04,0.083 -0.049,0.13 -0.003,0.012 -0.003,0.025 -0.007,0.037 0,0.012 -0.003,0.025 -0.003,0.037 0,0.006 0,0.012 0.003,0.022 0,0.009 0,0.015 0.007,0.024 0.003,0.016 0.015,0.047 0.049,0.062 0.012,0.003 0.025,0.006 0.034,0.006l0.012 0c0.007,0 0.013,0 0.016,-0.003l0.015 -0.003c0.01,-0.003 0.016,-0.006 0.022,-0.009 0.006,-0.003 0.012,-0.006 0.019,-0.012 0.021,-0.013 0.037,-0.028 0.052,-0.044 0.034,-0.031 0.062,-0.062 0.09,-0.092 0.052,-0.065 0.102,-0.13 0.148,-0.198 0.087,-0.124 0.167,-0.251 0.241,-0.38 0.257,-0.167 0.529,-0.306 0.807,-0.439 0.29,-0.136 0.587,-0.257 0.89,-0.365 0.006,-0.003 0.009,-0.012 0.009,-0.018l0 -0.004c-0.003,-0.006 -0.009,-0.012 -0.015,-0.012l-0.007 0c-0.309,0.09 -0.611,0.204 -0.908,0.328 -0.232,0.099 -0.461,0.207 -0.68,0.33zm-1.62 2.451c-0.086,0.309 -0.176,0.615 -0.278,0.921 -0.021,0.065 -0.046,0.13 -0.068,0.192 0.013,-0.068 0.028,-0.139 0.044,-0.21 0.074,-0.309 0.163,-0.618 0.259,-0.924 0.09,-0.297 0.189,-0.588 0.294,-0.878 -0.081,0.3 -0.164,0.599 -0.251,0.899zm1.036 -1.777c-0.025,0.031 -0.05,0.059 -0.074,0.084 -0.007,0.006 -0.013,0.012 -0.019,0.015 0,-0.003 0,-0.009 0.003,-0.015 0.006,-0.031 0.019,-0.062 0.037,-0.093 0.034,-0.065 0.084,-0.121 0.139,-0.176 0.041,-0.037 0.081,-0.074 0.127,-0.112 -0.025,0.038 -0.049,0.075 -0.074,0.109 -0.043,0.064 -0.09,0.129 -0.139,0.188zm2.865 -3.013l0.306 -0.85 0.3 -0.856c0.098,-0.284 0.2,-0.569 0.29,-0.862 0.012,-0.038 0.022,-0.071 0.031,-0.115 0,-0.006 0.003,-0.012 0.003,-0.018l0 -0.034c0,-0.006 0,-0.01 -0.006,-0.025 -0.003,-0.009 -0.031,-0.046 -0.068,-0.046 -0.028,0 -0.04,0.012 -0.047,0.015 -0.009,0.006 -0.009,0.006 -0.012,0.009 -0.012,0.01 -0.015,0.016 -0.018,0.022 -0.016,0.022 -0.025,0.037 -0.034,0.056 -0.037,0.068 -0.075,0.132 -0.109,0.2 -0.071,0.136 -0.139,0.272 -0.2,0.412 -0.127,0.278 -0.242,0.559 -0.347,0.843 -0.105,0.285 -0.204,0.572 -0.296,0.859 -0.186,0.578 -0.35,1.162 -0.492,1.75 -0.071,0.296 -0.139,0.59 -0.194,0.89 -0.016,0.077 -0.028,0.151 -0.041,0.228 -0.006,0.038 -0.009,0.075 -0.015,0.115 0,0.021 -0.003,0.043 -0.003,0.065 0,0.012 0,0.024 0.003,0.043 0,0.006 0,0.009 0.003,0.019 0,0.003 0,0.006 0.003,0.012 0.003,0.006 0.003,0.012 0.009,0.022 0.013,0.015 0.013,0.021 0.041,0.037 0.018,0.009 0.034,0.012 0.049,0.012 0.009,0 0.019,0 0.028,-0.003 0.018,-0.006 0.015,-0.006 0.021,-0.009 0.007,-0.003 0.01,-0.003 0.013,-0.007 0.025,-0.015 0.031,-0.027 0.04,-0.04 0.009,-0.009 0.019,-0.018 0.025,-0.028 0.012,-0.018 0.021,-0.037 0.034,-0.052l0.055 -0.099c0.041,-0.065 0.075,-0.13 0.115,-0.192 0.077,-0.126 0.16,-0.247 0.253,-0.355 0.05,-0.056 0.099,-0.108 0.152,-0.161 0.024,-0.024 0.052,-0.046 0.08,-0.071 0.015,-0.012 0.028,-0.021 0.043,-0.034 0.003,-0.003 0.006,-0.006 0.013,-0.009l0 0.025c0,0.021 0,0.046 -0.003,0.071 -0.004,0.071 -0.013,0.148 -0.019,0.222 -0.006,0.077 -0.012,0.155 -0.012,0.235 0.006,0.077 0.012,0.161 0.058,0.241 0.022,0.037 0.059,0.074 0.102,0.09 0.034,0.015 0.071,0.018 0.102,0.018l0.028 0c0.087,-0.006 0.161,-0.04 0.229,-0.074 0.139,-0.074 0.263,-0.164 0.38,-0.256 0.238,-0.192 0.46,-0.396 0.674,-0.609 0.003,-0.003 0.006,-0.006 0.006,-0.009 0,-0.004 -0.003,-0.007 -0.006,-0.007 0,-0.003 -0.003,-0.006 -0.007,-0.006 -0.003,0 -0.006,0.003 -0.009,0.006 -0.219,0.204 -0.448,0.402 -0.689,0.581 -0.124,0.087 -0.247,0.17 -0.38,0.235 -0.065,0.028 -0.136,0.056 -0.201,0.059 -0.034,0 -0.065,-0.003 -0.093,-0.015 -0.024,-0.013 -0.043,-0.031 -0.058,-0.059 -0.028,-0.043 -0.034,-0.105 -0.034,-0.167l0 -0.031c0,-0.071 0.006,-0.145 0.018,-0.219 0.009,-0.075 0.025,-0.146 0.034,-0.223 0.003,-0.034 0.006,-0.065 0.006,-0.102l0 -0.025c0,-0.012 -0.003,-0.024 -0.006,-0.037 -0.003,-0.015 -0.006,-0.031 -0.022,-0.049 -0.012,-0.022 -0.043,-0.04 -0.067,-0.04l-0.016 0c-0.018,0 -0.031,0.003 -0.043,0.006 -0.028,0.009 -0.047,0.021 -0.068,0.034 -0.016,0.012 -0.031,0.025 -0.047,0.034 -0.034,0.025 -0.064,0.049 -0.092,0.074 -0.062,0.049 -0.121,0.102 -0.173,0.158 -0.112,0.114 -0.207,0.238 -0.294,0.364 -0.012,0.022 -0.025,0.04 -0.034,0.059 0,-0.015 0.003,-0.028 0.006,-0.04 0.047,-0.263 0.102,-0.522 0.164,-0.782l0.538 -1.505zm-0.04 -0.337c0.17,-0.544 0.361,-1.079 0.584,-1.601 -0.022,0.062 -0.044,0.127 -0.065,0.189l-0.578 1.718c-0.074,0.222 -0.148,0.448 -0.226,0.674 0.09,-0.328 0.183,-0.656 0.285,-0.98zm1.681 2.12c0.012,0.003 0.025,0.003 0.037,0.003 0.077,0 0.148,-0.028 0.219,-0.055 0.05,-0.019 0.096,-0.041 0.143,-0.068 0.024,-0.016 0.046,-0.031 0.071,-0.053 0.021,-0.022 0.046,-0.046 0.068,-0.087 0.009,-0.021 0.018,-0.049 0.018,-0.083 0,-0.031 -0.012,-0.062 -0.028,-0.086 -0.015,-0.022 -0.037,-0.044 -0.065,-0.056 -0.024,-0.013 -0.052,-0.019 -0.074,-0.022 -0.046,0 -0.08,0.009 -0.108,0.022 -0.031,0.012 -0.056,0.025 -0.077,0.037 -0.093,0.059 -0.164,0.124 -0.232,0.195 -0.065,0.071 -0.127,0.148 -0.179,0.231 -0.053,0.081 -0.099,0.167 -0.136,0.263 -0.016,0.047 -0.031,0.096 -0.037,0.148 -0.006,0.028 -0.01,0.059 -0.01,0.093 0,0.022 0.004,0.047 0.007,0.071 0.009,0.056 0.034,0.112 0.068,0.158 0.037,0.049 0.083,0.083 0.129,0.111 0.05,0.025 0.099,0.04 0.149,0.053 0.049,0.009 0.096,0.018 0.151,0.018 0.105,0 0.201,-0.024 0.291,-0.055 0.182,-0.065 0.346,-0.155 0.503,-0.251 0.158,-0.096 0.31,-0.204 0.458,-0.312 0.148,-0.111 0.293,-0.225 0.433,-0.349 0.003,-0.003 0.006,-0.006 0.006,-0.012 0,-0.004 -0.003,-0.007 -0.003,-0.01 -0.003,-0.006 -0.01,-0.006 -0.013,-0.006 -0.006,0 -0.009,0 -0.012,0.003 -0.294,0.22 -0.597,0.427 -0.918,0.603 -0.158,0.086 -0.324,0.164 -0.491,0.216 -0.078,0.022 -0.155,0.037 -0.229,0.037l-0.022 0c-0.037,-0.003 -0.08,-0.009 -0.12,-0.021 -0.04,-0.013 -0.078,-0.025 -0.108,-0.047 -0.034,-0.018 -0.059,-0.04 -0.078,-0.068 -0.018,-0.028 -0.031,-0.058 -0.034,-0.092 -0.003,-0.013 -0.003,-0.025 -0.003,-0.038 0,-0.061 0.019,-0.126 0.044,-0.191 0.043,-0.105 0.108,-0.207 0.182,-0.3zm1.786 -0.442c-0.012,0.003 -0.012,0.006 -0.021,0.009 -0.004,0 -0.004,0.004 -0.007,0.004 -0.009,0.006 -0.012,0.009 -0.015,0.012l-0.009 0.006 -0.013 0.012 -0.018 0.022c-0.013,0.012 -0.022,0.025 -0.031,0.037 -0.022,0.028 -0.043,0.053 -0.062,0.08 -0.018,0.028 -0.037,0.056 -0.056,0.09 -0.003,0.009 -0.009,0.019 -0.012,0.031 -0.003,0.006 -0.006,0.012 -0.009,0.022 0,0.006 -0.003,0.015 -0.003,0.031l0 0.015c0,0.015 0.003,0.037 0.028,0.062 0.021,0.025 0.052,0.031 0.067,0.034l0.041 0c0.123,0.003 0.247,0.006 0.355,0.031 0.053,0.009 0.102,0.031 0.13,0.055 0.015,0.013 0.025,0.028 0.031,0.044l0.003 0.006 0 0.003 0.003 0.003c0,0.009 -0.003,0.022 -0.003,0.034 -0.009,0.049 -0.028,0.108 -0.05,0.167 -0.018,0.059 -0.04,0.114 -0.064,0.173 -0.044,0.117 -0.093,0.232 -0.14,0.349 -0.046,0.118 -0.092,0.235 -0.136,0.356 -0.043,0.12 -0.083,0.241 -0.111,0.37 -0.006,0.034 -0.009,0.068 -0.012,0.102 0,0.013 -0.003,0.028 -0.003,0.041 0,0.024 0.003,0.049 0.009,0.074 0.006,0.021 0.015,0.043 0.031,0.068 0.019,0.021 0.043,0.04 0.068,0.049 0.022,0.006 0.04,0.009 0.056,0.009 0.027,0 0.052,-0.006 0.074,-0.012 0.037,-0.012 0.068,-0.025 0.102,-0.043 0.031,-0.019 0.058,-0.037 0.083,-0.056 0.053,-0.043 0.102,-0.086 0.149,-0.13 0.185,-0.176 0.349,-0.367 0.509,-0.565 0.319,-0.39 0.612,-0.801 0.881,-1.23l0 -0.006c0,-0.007 -0.003,-0.016 -0.006,-0.019 -0.003,0 -0.006,-0.003 -0.009,-0.003 -0.006,0 -0.013,0.003 -0.016,0.009 -0.281,0.417 -0.59,0.813 -0.918,1.193 -0.166,0.186 -0.336,0.371 -0.519,0.538 -0.046,0.04 -0.092,0.08 -0.142,0.117 -0.022,0.016 -0.046,0.031 -0.071,0.047 -0.022,0.009 -0.049,0.021 -0.074,0.028 -0.016,0.003 -0.028,0.006 -0.037,0.006 -0.01,0 -0.016,-0.003 -0.019,-0.003l-0.006 -0.006c-0.003,-0.004 -0.006,-0.013 -0.009,-0.022 0,-0.009 -0.003,-0.022 -0.003,-0.034 0,-0.013 0.003,-0.025 0.003,-0.037 0.003,-0.028 0.009,-0.059 0.015,-0.087 0.025,-0.114 0.068,-0.232 0.111,-0.349 0.047,-0.114 0.093,-0.229 0.143,-0.346 0.049,-0.114 0.102,-0.229 0.151,-0.346 0.025,-0.059 0.046,-0.118 0.071,-0.18 0.022,-0.061 0.043,-0.12 0.059,-0.191 0.003,-0.019 0.006,-0.04 0.006,-0.062 0,-0.012 0,-0.028 -0.003,-0.043 0,-0.003 -0.003,-0.009 -0.003,-0.013l-0.003 -0.009 -0.006 -0.015c-0.016,-0.04 -0.044,-0.081 -0.075,-0.108 -0.064,-0.062 -0.139,-0.087 -0.207,-0.106 -0.074,-0.018 -0.145,-0.027 -0.213,-0.034 0,0 0.003,-0.003 0.003,-0.006 0.025,-0.024 0.043,-0.049 0.068,-0.086 0.006,-0.01 0.013,-0.019 0.019,-0.037 0.003,-0.01 0.006,-0.019 0.006,-0.034 0,-0.019 0,-0.044 -0.016,-0.068 -0.015,-0.022 -0.037,-0.037 -0.049,-0.044 -0.009,-0.003 -0.012,-0.003 -0.019,-0.006 -0.006,0 -0.012,-0.003 -0.015,-0.003 -0.009,-0.003 -0.015,-0.003 -0.025,-0.003l-0.009 0c0,0 -0.012,0 -0.028,0.003zm3.394 2.473c0.024,0.061 0.061,0.12 0.108,0.173 0.083,0.089 0.198,0.148 0.315,0.17 -0.052,0.163 -0.093,0.327 -0.127,0.491 -0.037,0.185 -0.065,0.371 -0.086,0.556l0 0.01c0,0.024 0.015,0.043 0.037,0.052 0.006,0.003 0.012,0.003 0.015,0.003 0.025,0 0.05,-0.018 0.056,-0.04 0.056,-0.179 0.111,-0.352 0.176,-0.525 0.065,-0.17 0.139,-0.334 0.223,-0.492 0.003,-0.006 0.009,-0.015 0.009,-0.021 0.006,-0.013 0.006,-0.025 0.009,-0.037 0.006,0 0.013,-0.004 0.019,-0.004l0.092 -0.018c0.121,-0.031 0.235,-0.074 0.344,-0.124 0.111,-0.046 0.219,-0.108 0.321,-0.173 0.201,-0.127 0.386,-0.281 0.559,-0.448 0.17,-0.167 0.325,-0.346 0.47,-0.532 0.145,-0.188 0.278,-0.383 0.399,-0.593 0.006,-0.009 0.006,-0.018 0.006,-0.025 0,-0.021 -0.009,-0.04 -0.028,-0.049 -0.009,-0.006 -0.018,-0.009 -0.028,-0.009 -0.018,0 -0.037,0.009 -0.049,0.027l0 0.004c-0.118,0.194 -0.254,0.386 -0.396,0.568 -0.145,0.183 -0.303,0.353 -0.469,0.513 -0.167,0.158 -0.35,0.303 -0.544,0.421 -0.096,0.058 -0.198,0.114 -0.3,0.157 -0.105,0.043 -0.213,0.084 -0.322,0.108 -0.027,0.007 -0.055,0.013 -0.08,0.016 -0.015,0 -0.028,0.003 -0.04,0.006l-0.04 0.003 -0.01 0c0,0 -0.003,-0.003 -0.006,-0.003 -0.015,-0.006 -0.031,-0.009 -0.046,-0.009 -0.019,0 -0.04,0.006 -0.059,0.012 -0.012,0 -0.025,0 -0.04,-0.003 -0.102,-0.012 -0.192,-0.056 -0.253,-0.127 -0.065,-0.071 -0.099,-0.173 -0.118,-0.275 -0.009,-0.055 -0.012,-0.111 -0.012,-0.17 0,-0.052 0.003,-0.105 0.009,-0.157 0.012,-0.112 0.034,-0.223 0.065,-0.331 0.028,-0.108 0.068,-0.21 0.117,-0.312 0.102,-0.201 0.229,-0.396 0.365,-0.581 0.136,-0.183 0.287,-0.359 0.448,-0.519 0.04,-0.041 0.081,-0.081 0.124,-0.118 0.015,-0.015 0.034,-0.031 0.052,-0.046 0.028,0 0.059,-0.006 0.09,-0.013 0.015,-0.003 0.034,-0.006 0.056,-0.015 0.012,-0.003 0.021,-0.006 0.037,-0.016 0.012,-0.006 0.031,-0.015 0.052,-0.046 0.003,-0.003 0.006,-0.006 0.009,-0.012 0.004,-0.003 0.007,-0.01 0.01,-0.016 0.003,-0.012 0.009,-0.027 0.009,-0.043 0,-0.018 -0.003,-0.031 -0.006,-0.046 -0.003,-0.01 -0.006,-0.016 -0.009,-0.022 -0.007,-0.012 -0.019,-0.028 -0.031,-0.04 -0.016,-0.012 -0.034,-0.022 -0.047,-0.028 -0.009,-0.003 -0.015,-0.003 -0.024,-0.006 -0.007,0 -0.013,0 -0.019,-0.003 -0.012,0 -0.022,0 -0.031,0.003 -0.012,0 -0.018,0.003 -0.025,0.003 -0.009,0.003 -0.015,0.003 -0.018,0.006 -0.046,0.019 -0.074,0.037 -0.105,0.056 -0.006,0.003 -0.013,0.009 -0.016,0.012 -0.092,0 -0.185,-0.009 -0.262,-0.037 -0.047,-0.015 -0.087,-0.037 -0.115,-0.062 -0.031,-0.024 -0.043,-0.049 -0.049,-0.08l0 -0.022c0,-0.024 0.003,-0.055 0.015,-0.089 0.006,-0.022 0.022,-0.047 0.031,-0.071 0.013,-0.025 0.022,-0.05 0.034,-0.075 0.05,-0.099 0.111,-0.191 0.176,-0.278 0.068,-0.086 0.139,-0.17 0.22,-0.244 0.083,-0.074 0.167,-0.145 0.259,-0.204 0.093,-0.059 0.189,-0.108 0.288,-0.145 0.049,-0.016 0.099,-0.034 0.148,-0.043 0.013,0 0.025,-0.003 0.037,-0.007l0.037 -0.003 0.037 -0.006 0.115 0c0.025,0.003 0.049,0.006 0.071,0.009 0.046,0.01 0.086,0.022 0.117,0.044 0.031,0.018 0.053,0.04 0.068,0.071 0.016,0.031 0.025,0.068 0.028,0.111l0 0.019c0,0.086 -0.018,0.179 -0.049,0.272 -0.016,0.049 -0.037,0.098 -0.059,0.145 -0.012,0.025 -0.025,0.046 -0.037,0.068 -0.003,0.003 -0.006,0.009 -0.009,0.012 -0.004,0.006 -0.007,0.012 -0.007,0.016 -0.003,0 -0.006,0.003 -0.006,0.006 -0.031,0.028 -0.049,0.071 -0.049,0.114 0,0.028 0.006,0.053 0.021,0.077 0.031,0.044 0.081,0.068 0.13,0.068 0.028,0 0.053,-0.006 0.077,-0.021 0.013,-0.01 0.025,-0.019 0.034,-0.031l0.016 -0.016c0.009,-0.012 0.015,-0.018 0.022,-0.027 0.006,-0.01 0.009,-0.019 0.015,-0.025 0.006,-0.009 0.009,-0.016 0.012,-0.025 0.019,-0.031 0.034,-0.059 0.047,-0.09 0.028,-0.058 0.052,-0.117 0.071,-0.179 0.034,-0.105 0.059,-0.213 0.059,-0.33 0,-0.025 0,-0.047 -0.004,-0.072 -0.006,-0.074 -0.021,-0.151 -0.061,-0.225 -0.041,-0.074 -0.102,-0.139 -0.173,-0.179 -0.072,-0.044 -0.143,-0.062 -0.214,-0.078 -0.034,-0.003 -0.071,-0.009 -0.105,-0.009l-0.037 0c0.05,-0.117 0.108,-0.235 0.167,-0.352 0.04,-0.087 0.08,-0.173 0.114,-0.266 0.034,-0.093 0.065,-0.195 0.075,-0.309l0 -0.028c-0.01,-0.077 -0.075,-0.136 -0.149,-0.136l-0.015 0c-0.081,0.009 -0.136,0.074 -0.136,0.152l0 0.012c0.003,0.018 0.003,0.037 0.003,0.056 0,0.058 -0.006,0.12 -0.022,0.185 -0.015,0.083 -0.037,0.17 -0.065,0.26 -0.04,0.139 -0.086,0.284 -0.117,0.432l-0.016 0.003 -0.049 0.007c-0.019,0.003 -0.034,0.006 -0.049,0.009 -0.065,0.012 -0.127,0.034 -0.189,0.055 -0.121,0.047 -0.232,0.109 -0.337,0.18 -0.105,0.068 -0.201,0.148 -0.29,0.235 -0.09,0.086 -0.17,0.182 -0.248,0.281 -0.071,0.102 -0.139,0.207 -0.191,0.318 -0.016,0.028 -0.028,0.059 -0.04,0.087 -0.013,0.031 -0.025,0.055 -0.037,0.092 -0.016,0.047 -0.025,0.099 -0.025,0.155 0,0.025 0,0.052 0.006,0.077 0.006,0.043 0.025,0.087 0.046,0.124 0.022,0.037 0.053,0.068 0.084,0.096 0.062,0.049 0.126,0.08 0.194,0.102 0.031,0.009 0.065,0.018 0.099,0.024 -0.009,0.01 -0.018,0.016 -0.024,0.025 -0.17,0.173 -0.319,0.359 -0.461,0.553 -0.139,0.195 -0.269,0.399 -0.371,0.618 -0.052,0.112 -0.099,0.226 -0.126,0.346 -0.031,0.118 -0.053,0.238 -0.065,0.362 -0.003,0.05 -0.007,0.099 -0.007,0.148 0,0.075 0.007,0.149 0.019,0.226 0.012,0.065 0.028,0.127 0.056,0.189zm11.018 -7.993c0.018,-0.024 0.03,-0.052 0.03,-0.08 0,-0.034 -0.015,-0.068 -0.043,-0.093 -0.025,-0.018 -0.049,-0.027 -0.077,-0.027 -0.037,0 -0.071,0.015 -0.096,0.043 -0.306,0.358 -0.593,0.735 -0.856,1.125 -0.266,0.389 -0.519,0.785 -0.757,1.19 -0.241,0.401 -0.47,0.812 -0.692,1.223 -0.112,0.208 -0.223,0.415 -0.331,0.622 -0.108,0.207 -0.216,0.414 -0.322,0.624 -0.423,0.834 -0.834,1.675 -1.264,2.506 -0.213,0.415 -0.429,0.829 -0.661,1.234 -0.114,0.2 -0.235,0.401 -0.359,0.593 -0.064,0.096 -0.129,0.188 -0.197,0.278 -0.071,0.09 -0.142,0.173 -0.223,0.241 -0.037,0.034 -0.077,0.062 -0.114,0.077 -0.022,0.01 -0.04,0.013 -0.053,0.013 -0.012,0 -0.018,-0.003 -0.024,-0.006 -0.016,-0.004 -0.041,-0.028 -0.059,-0.068 -0.019,-0.041 -0.034,-0.09 -0.047,-0.139 -0.024,-0.106 -0.037,-0.217 -0.046,-0.328 -0.006,-0.114 -0.009,-0.229 -0.009,-0.343 0.003,-0.461 0.04,-0.924 0.083,-1.388 0.087,-0.93 0.201,-1.857 0.303,-2.787 0.053,-0.467 0.099,-0.934 0.142,-1.4 0.044,-0.467 0.081,-0.934 0.099,-1.404 0.013,-0.235 0.019,-0.469 0.019,-0.707 0,-0.235 -0.006,-0.47 -0.022,-0.708 -0.022,-0.238 -0.046,-0.476 -0.108,-0.711 -0.031,-0.12 -0.071,-0.238 -0.13,-0.355 -0.059,-0.112 -0.142,-0.229 -0.266,-0.309l-0.003 0c-0.003,-0.003 -0.006,-0.003 -0.009,-0.007 -0.019,-0.009 -0.037,-0.015 -0.059,-0.015 -0.043,0 -0.086,0.025 -0.108,0.065 -0.009,0.018 -0.015,0.04 -0.015,0.059 0,0.046 0.024,0.086 0.065,0.111 0.077,0.04 0.142,0.117 0.194,0.207 0.053,0.09 0.093,0.192 0.124,0.3 0.031,0.108 0.056,0.219 0.074,0.33 0.022,0.112 0.034,0.226 0.043,0.34 0.022,0.229 0.028,0.461 0.031,0.693 0,0.235 -0.009,0.466 -0.018,0.698 -0.047,0.93 -0.149,1.861 -0.263,2.788 -0.111,0.927 -0.235,1.854 -0.328,2.787 -0.046,0.47 -0.083,0.937 -0.089,1.413 0,0.117 0.003,0.238 0.012,0.358 0.006,0.121 0.019,0.244 0.05,0.368 0.015,0.062 0.034,0.127 0.068,0.192 0.018,0.031 0.037,0.065 0.068,0.096 0.027,0.034 0.064,0.064 0.111,0.083 0.021,0.009 0.046,0.015 0.071,0.019 0.015,0.003 0.028,0.006 0.04,0.006 0.012,0 0.022,-0.003 0.031,-0.003 0.043,-0.003 0.083,-0.016 0.121,-0.031 0.071,-0.031 0.126,-0.074 0.176,-0.115 0.099,-0.086 0.176,-0.182 0.25,-0.281 0.071,-0.096 0.139,-0.195 0.201,-0.297 0.127,-0.2 0.241,-0.407 0.352,-0.615 0.223,-0.417 0.427,-0.837 0.631,-1.257 0.405,-0.844 0.809,-1.688 1.239,-2.519 0.108,-0.207 0.213,-0.414 0.325,-0.621 0.108,-0.208 0.219,-0.411 0.333,-0.615 0.226,-0.408 0.461,-0.813 0.705,-1.209 0.247,-0.395 0.501,-0.788 0.776,-1.162 0.272,-0.377 0.562,-0.742 0.877,-1.079l0.004 -0.003z"/>
   <path class="fil0" d="M35.044 7.068c0.012,0.003 0.025,0.003 0.037,0.003 0.077,0 0.148,-0.028 0.219,-0.055 0.05,-0.019 0.096,-0.041 0.143,-0.068 0.024,-0.016 0.046,-0.031 0.071,-0.053 0.021,-0.022 0.046,-0.046 0.068,-0.087 0.009,-0.021 0.018,-0.049 0.018,-0.083 0,-0.031 -0.012,-0.062 -0.028,-0.086 -0.015,-0.022 -0.037,-0.044 -0.064,-0.056 -0.025,-0.013 -0.053,-0.019 -0.075,-0.022 -0.046,0 -0.08,0.009 -0.108,0.022 -0.031,0.012 -0.055,0.025 -0.077,0.037 -0.093,0.059 -0.164,0.124 -0.232,0.195 -0.065,0.071 -0.127,0.148 -0.179,0.231 -0.053,0.081 -0.099,0.167 -0.136,0.263 -0.016,0.047 -0.031,0.096 -0.037,0.148 -0.006,0.028 -0.009,0.059 -0.009,0.093 0,0.022 0.003,0.047 0.006,0.071 0.009,0.056 0.034,0.112 0.068,0.158 0.037,0.049 0.083,0.083 0.129,0.111 0.05,0.025 0.099,0.04 0.149,0.053 0.049,0.009 0.096,0.018 0.151,0.018 0.105,0 0.201,-0.024 0.291,-0.055 0.182,-0.065 0.346,-0.155 0.504,-0.251 0.157,-0.096 0.309,-0.204 0.457,-0.312 0.148,-0.111 0.294,-0.225 0.433,-0.349 0.003,-0.003 0.006,-0.006 0.006,-0.012 0,-0.004 -0.003,-0.007 -0.003,-0.01 -0.003,-0.006 -0.01,-0.006 -0.013,-0.006 -0.006,0 -0.009,0 -0.012,0.003 -0.294,0.22 -0.596,0.427 -0.918,0.603 -0.158,0.086 -0.324,0.164 -0.491,0.216 -0.078,0.022 -0.155,0.037 -0.229,0.037l-0.022 0c-0.037,-0.003 -0.08,-0.009 -0.12,-0.021 -0.04,-0.013 -0.077,-0.025 -0.108,-0.047 -0.034,-0.018 -0.059,-0.04 -0.078,-0.068 -0.018,-0.028 -0.031,-0.058 -0.034,-0.092 -0.003,-0.013 -0.003,-0.025 -0.003,-0.038 0,-0.061 0.019,-0.126 0.044,-0.191 0.043,-0.105 0.108,-0.207 0.182,-0.3zm1.786 -0.442c-0.012,0.003 -0.012,0.006 -0.021,0.009 -0.003,0 -0.003,0.004 -0.007,0.004 -0.009,0.006 -0.012,0.009 -0.015,0.012l-0.009 0.006 -0.013 0.012 -0.018 0.022c-0.013,0.012 -0.022,0.025 -0.031,0.037 -0.022,0.028 -0.043,0.053 -0.062,0.08 -0.018,0.028 -0.037,0.056 -0.056,0.09 -0.003,0.009 -0.009,0.019 -0.012,0.031 -0.003,0.006 -0.006,0.012 -0.009,0.022 0,0.006 -0.003,0.015 -0.003,0.031l0 0.015c0,0.015 0.003,0.037 0.028,0.062 0.021,0.025 0.052,0.031 0.068,0.034l0.04 0c0.123,0.003 0.247,0.006 0.355,0.031 0.053,0.009 0.102,0.031 0.13,0.055 0.015,0.013 0.025,0.028 0.031,0.044l0.003 0.006 0 0.003 0.003 0.003c0,0.009 -0.003,0.022 -0.003,0.034 -0.009,0.049 -0.028,0.108 -0.05,0.167 -0.018,0.059 -0.04,0.114 -0.064,0.173 -0.044,0.117 -0.093,0.232 -0.139,0.349 -0.047,0.118 -0.093,0.235 -0.136,0.356 -0.044,0.12 -0.084,0.241 -0.112,0.37 -0.006,0.034 -0.009,0.068 -0.012,0.102 0,0.013 -0.003,0.028 -0.003,0.041 0,0.024 0.003,0.049 0.009,0.074 0.006,0.021 0.016,0.043 0.031,0.068 0.019,0.021 0.043,0.04 0.068,0.049 0.022,0.006 0.04,0.009 0.056,0.009 0.027,0 0.052,-0.006 0.074,-0.012 0.037,-0.012 0.068,-0.025 0.102,-0.043 0.031,-0.019 0.059,-0.037 0.083,-0.056 0.053,-0.043 0.102,-0.086 0.149,-0.13 0.185,-0.176 0.349,-0.367 0.51,-0.565 0.318,-0.39 0.611,-0.801 0.88,-1.23l0 -0.006c0,-0.007 -0.003,-0.016 -0.006,-0.019 -0.003,0 -0.006,-0.003 -0.009,-0.003 -0.006,0 -0.012,0.003 -0.016,0.009 -0.281,0.417 -0.59,0.813 -0.917,1.193 -0.167,0.186 -0.337,0.371 -0.52,0.538 -0.046,0.04 -0.092,0.08 -0.142,0.117 -0.021,0.016 -0.046,0.031 -0.071,0.047 -0.022,0.009 -0.049,0.021 -0.074,0.028 -0.016,0.003 -0.028,0.006 -0.037,0.006 -0.009,0 -0.016,-0.003 -0.019,-0.003l-0.006 -0.006c-0.003,-0.004 -0.006,-0.013 -0.009,-0.022 0,-0.009 -0.003,-0.022 -0.003,-0.034 0,-0.013 0.003,-0.025 0.003,-0.037 0.003,-0.028 0.009,-0.059 0.015,-0.087 0.025,-0.114 0.068,-0.232 0.112,-0.349 0.046,-0.114 0.092,-0.229 0.142,-0.346 0.049,-0.114 0.102,-0.229 0.151,-0.346 0.025,-0.059 0.046,-0.118 0.071,-0.18 0.022,-0.061 0.043,-0.12 0.059,-0.191 0.003,-0.019 0.006,-0.04 0.006,-0.062 0,-0.012 0,-0.028 -0.003,-0.043 0,-0.003 -0.003,-0.009 -0.003,-0.013l-0.003 -0.009 -0.006 -0.015c-0.016,-0.04 -0.044,-0.081 -0.075,-0.108 -0.064,-0.062 -0.139,-0.087 -0.207,-0.106 -0.074,-0.018 -0.145,-0.027 -0.213,-0.034 0,0 0.003,-0.003 0.003,-0.006 0.025,-0.024 0.044,-0.049 0.068,-0.086 0.006,-0.01 0.013,-0.019 0.019,-0.037 0.003,-0.01 0.006,-0.019 0.006,-0.034 0,-0.019 0,-0.044 -0.015,-0.068 -0.016,-0.022 -0.038,-0.037 -0.05,-0.044 -0.009,-0.003 -0.012,-0.003 -0.018,-0.006 -0.007,0 -0.013,-0.003 -0.016,-0.003 -0.009,-0.003 -0.015,-0.003 -0.025,-0.003l-0.009 0c0,0 -0.012,0 -0.028,0.003zm2.405 0.09c-0.013,-0.022 -0.031,-0.04 -0.053,-0.056 -0.021,-0.015 -0.049,-0.028 -0.074,-0.034 -0.015,-0.003 -0.031,-0.003 -0.046,-0.003 -0.037,0 -0.071,0.006 -0.099,0.016 -0.084,0.027 -0.145,0.071 -0.201,0.117 -0.111,0.093 -0.201,0.198 -0.281,0.312 -0.037,0.056 -0.075,0.114 -0.109,0.173 -0.034,0.062 -0.064,0.124 -0.092,0.189 -0.028,0.061 -0.05,0.129 -0.068,0.201 -0.006,0.037 -0.016,0.077 -0.016,0.12 0.003,0.022 0.003,0.046 0.013,0.074 0.006,0.028 0.024,0.062 0.058,0.087 0.028,0.021 0.059,0.028 0.084,0.028l0.012 0c0.028,0 0.053,-0.003 0.071,-0.013 0.022,-0.006 0.04,-0.012 0.056,-0.021 0.018,-0.01 0.037,-0.016 0.052,-0.028 0.065,-0.04 0.115,-0.09 0.164,-0.139 0.093,-0.102 0.173,-0.207 0.251,-0.319 0.046,-0.064 0.089,-0.129 0.132,-0.194 -0.003,0.009 -0.006,0.021 -0.009,0.031 -0.021,0.065 -0.04,0.132 -0.055,0.2 -0.007,0.034 -0.01,0.072 -0.013,0.109 0,0.012 -0.003,0.027 -0.003,0.043 0,0.025 0.003,0.049 0.009,0.077 0.007,0.04 0.025,0.09 0.065,0.13 0.034,0.034 0.078,0.053 0.118,0.068 0.037,0.012 0.074,0.015 0.108,0.015 0.043,0 0.083,-0.006 0.124,-0.015 0.142,-0.034 0.262,-0.093 0.38,-0.158 0.117,-0.065 0.228,-0.139 0.337,-0.216 0.108,-0.077 0.21,-0.161 0.312,-0.244 0.052,-0.043 0.102,-0.087 0.151,-0.13 0.025,-0.022 0.046,-0.046 0.071,-0.068l0.037 -0.034 0.016 -0.018c0.006,-0.01 0.012,-0.013 0.021,-0.025 0,-0.003 0.003,-0.006 0.003,-0.009 0,-0.004 -0.003,-0.01 -0.006,-0.013 -0.003,-0.006 -0.009,-0.006 -0.012,-0.006 -0.006,0 -0.009,0 -0.012,0.003l-0.01 0.006c0,0 -0.006,0.01 -0.012,0.016l-0.056 0.046c-0.024,0.022 -0.049,0.043 -0.074,0.062 -0.052,0.04 -0.102,0.08 -0.154,0.12 -0.106,0.078 -0.214,0.152 -0.325,0.223 -0.108,0.068 -0.222,0.133 -0.337,0.188 -0.117,0.056 -0.238,0.102 -0.355,0.118 -0.022,0.003 -0.043,0.003 -0.062,0.003 -0.037,0 -0.068,-0.003 -0.096,-0.015 -0.018,-0.007 -0.037,-0.019 -0.049,-0.034 -0.006,-0.007 -0.013,-0.022 -0.016,-0.044 -0.003,-0.015 -0.003,-0.031 -0.003,-0.049 0,-0.037 0.003,-0.074 0.013,-0.115 0.009,-0.061 0.027,-0.12 0.046,-0.182 0.037,-0.12 0.083,-0.241 0.13,-0.365l0.074 -0.179 0.028 -0.074c0.003,-0.006 0.003,-0.009 0.006,-0.022l0 -0.003c0,-0.003 0,-0.006 0.003,-0.009 0,-0.003 0,-0.012 -0.003,-0.022l0 -0.003c0,-0.015 -0.031,-0.052 -0.065,-0.052l-0.003 0c-0.031,0.003 -0.031,0.009 -0.04,0.012 -0.003,0.003 -0.006,0.003 -0.01,0.006l-0.006 0.006c-0.012,0.016 -0.015,0.019 -0.018,0.028l-0.016 0.019 -0.031 0.043c-0.012,0.022 -0.027,0.043 -0.04,0.065 0,-0.015 -0.006,-0.031 -0.015,-0.043zm-0.371 0.64c-0.077,0.101 -0.158,0.203 -0.25,0.287 -0.047,0.043 -0.096,0.08 -0.146,0.105 -0.012,0.006 -0.024,0.009 -0.037,0.015 -0.012,0.004 -0.028,0.007 -0.037,0.01 -0.006,0 -0.009,0.003 -0.015,0.003 0,-0.006 0,-0.013 0.003,-0.019 0,-0.021 0.009,-0.049 0.018,-0.074 0.019,-0.056 0.044,-0.111 0.071,-0.164 0.028,-0.055 0.062,-0.108 0.096,-0.16 0.031,-0.056 0.068,-0.109 0.105,-0.158 0.034,-0.049 0.074,-0.099 0.112,-0.148 0.04,-0.047 0.08,-0.09 0.123,-0.133 0.04,-0.04 0.087,-0.078 0.127,-0.099 0.018,-0.013 0.037,-0.016 0.046,-0.019 0.013,0 0.022,0 0.037,0.01l0.013 0.009c0.012,0.009 0.027,0.012 0.04,0.012 0.012,0 0.025,-0.003 0.037,-0.009 -0.043,0.071 -0.084,0.139 -0.127,0.204 -0.071,0.111 -0.142,0.222 -0.216,0.328zm2.559 -2.071l0.306 -0.85 0.3 -0.856c0.099,-0.284 0.2,-0.569 0.29,-0.862 0.012,-0.038 0.022,-0.071 0.031,-0.115 0,-0.006 0.003,-0.012 0.003,-0.018l0 -0.034c0,-0.006 0,-0.01 -0.006,-0.025 -0.003,-0.009 -0.031,-0.046 -0.068,-0.046 -0.028,0 -0.04,0.012 -0.046,0.015 -0.01,0.006 -0.01,0.006 -0.013,0.009 -0.012,0.01 -0.015,0.016 -0.018,0.022 -0.016,0.022 -0.025,0.037 -0.034,0.056 -0.037,0.068 -0.075,0.132 -0.109,0.2 -0.071,0.136 -0.139,0.272 -0.2,0.412 -0.127,0.278 -0.241,0.559 -0.347,0.843 -0.105,0.285 -0.203,0.572 -0.296,0.859 -0.186,0.578 -0.349,1.162 -0.492,1.75 -0.071,0.296 -0.139,0.59 -0.194,0.89 -0.016,0.077 -0.028,0.151 -0.041,0.228 -0.006,0.038 -0.009,0.075 -0.015,0.115 0,0.021 -0.003,0.043 -0.003,0.065 0,0.012 0,0.024 0.003,0.043 0,0.006 0,0.009 0.003,0.019 0,0.003 0,0.006 0.003,0.012 0.003,0.006 0.003,0.012 0.009,0.022 0.013,0.015 0.013,0.021 0.041,0.037 0.018,0.009 0.034,0.012 0.049,0.012 0.009,0 0.019,0 0.028,-0.003 0.018,-0.006 0.015,-0.006 0.022,-0.009 0.006,-0.003 0.009,-0.003 0.012,-0.007 0.025,-0.015 0.031,-0.027 0.04,-0.04 0.009,-0.009 0.019,-0.018 0.025,-0.028 0.012,-0.018 0.021,-0.037 0.034,-0.052l0.055 -0.099c0.041,-0.065 0.075,-0.13 0.115,-0.192 0.077,-0.126 0.161,-0.247 0.253,-0.355 0.05,-0.056 0.099,-0.108 0.152,-0.161 0.024,-0.024 0.052,-0.046 0.08,-0.071 0.015,-0.012 0.028,-0.021 0.043,-0.034 0.003,-0.003 0.007,-0.006 0.013,-0.009l0 0.025c0,0.021 0,0.046 -0.003,0.071 -0.003,0.071 -0.013,0.148 -0.019,0.222 -0.006,0.077 -0.012,0.155 -0.012,0.235 0.006,0.077 0.012,0.161 0.058,0.241 0.022,0.037 0.059,0.074 0.102,0.09 0.034,0.015 0.071,0.018 0.102,0.018l0.028 0c0.087,-0.006 0.161,-0.04 0.229,-0.074 0.139,-0.074 0.263,-0.164 0.38,-0.256 0.238,-0.192 0.46,-0.396 0.674,-0.609 0.003,-0.003 0.006,-0.006 0.006,-0.009 0,-0.004 -0.003,-0.007 -0.006,-0.007 0,-0.003 -0.003,-0.006 -0.006,-0.006 -0.004,0 -0.007,0.003 -0.01,0.006 -0.219,0.204 -0.448,0.402 -0.689,0.581 -0.123,0.087 -0.247,0.17 -0.38,0.235 -0.065,0.028 -0.136,0.056 -0.201,0.059 -0.034,0 -0.065,-0.003 -0.093,-0.015 -0.024,-0.013 -0.043,-0.031 -0.058,-0.059 -0.028,-0.043 -0.034,-0.105 -0.034,-0.167l0 -0.031c0,-0.071 0.006,-0.145 0.018,-0.219 0.009,-0.075 0.025,-0.146 0.034,-0.223 0.003,-0.034 0.006,-0.065 0.006,-0.102l0 -0.025c0,-0.012 -0.003,-0.024 -0.006,-0.037 -0.003,-0.015 -0.006,-0.031 -0.021,-0.049 -0.013,-0.022 -0.044,-0.04 -0.068,-0.04l-0.016 0c-0.018,0 -0.031,0.003 -0.043,0.006 -0.028,0.009 -0.047,0.021 -0.068,0.034 -0.016,0.012 -0.031,0.025 -0.046,0.034 -0.034,0.025 -0.065,0.049 -0.093,0.074 -0.062,0.049 -0.121,0.102 -0.173,0.158 -0.112,0.114 -0.207,0.238 -0.294,0.364 -0.012,0.022 -0.025,0.04 -0.034,0.059 0,-0.015 0.003,-0.028 0.006,-0.04 0.047,-0.263 0.102,-0.522 0.164,-0.782l0.538 -1.505zm-0.04 -0.337c0.17,-0.544 0.361,-1.079 0.584,-1.601 -0.022,0.062 -0.043,0.127 -0.065,0.189l-0.578 1.718c-0.074,0.222 -0.148,0.448 -0.226,0.674 0.09,-0.328 0.183,-0.656 0.285,-0.98zm9.673 -2.921c-0.059,-0.173 -0.13,-0.343 -0.222,-0.503 -0.096,-0.161 -0.207,-0.309 -0.343,-0.439 -0.136,-0.127 -0.297,-0.235 -0.473,-0.306 -0.167,-0.068 -0.35,-0.105 -0.532,-0.105l-0.022 0c-0.095,0.003 -0.191,0.012 -0.281,0.031 -0.089,0.015 -0.179,0.037 -0.269,0.065 -0.176,0.052 -0.346,0.126 -0.506,0.219 -0.322,0.182 -0.6,0.433 -0.832,0.714 -0.235,0.278 -0.426,0.59 -0.587,0.915 -0.099,0.194 -0.182,0.395 -0.26,0.599 -0.333,0.436 -0.642,0.884 -0.921,1.354 -0.364,0.618 -0.673,1.27 -0.905,1.95 -0.114,0.343 -0.21,0.689 -0.278,1.045 -0.068,0.355 -0.109,0.714 -0.112,1.078 0,0.365 0.037,0.733 0.152,1.091 0.055,0.176 0.136,0.349 0.247,0.507 0.108,0.158 0.254,0.303 0.43,0.396 0.086,0.046 0.182,0.083 0.278,0.105 0.052,0.009 0.093,0.015 0.139,0.024 0.046,0.007 0.093,0.013 0.139,0.016 0.096,0.012 0.192,0.015 0.287,0.015 0.09,0 0.18,-0.003 0.269,-0.012 0.099,-0.009 0.198,-0.022 0.294,-0.043 0.034,0.102 0.065,0.204 0.102,0.306 0.018,0.055 0.071,0.089 0.127,0.089 0.015,0 0.027,0 0.043,-0.006 0.056,-0.018 0.09,-0.071 0.09,-0.127 0,-0.015 -0.004,-0.03 -0.01,-0.046 -0.034,-0.093 -0.065,-0.185 -0.096,-0.278 0.177,-0.05 0.347,-0.118 0.51,-0.198 0.328,-0.161 0.631,-0.368 0.906,-0.606 0.275,-0.238 0.522,-0.503 0.748,-0.785 0.225,-0.281 0.429,-0.578 0.615,-0.883 0.185,-0.31 0.355,-0.625 0.507,-0.949 0.151,-0.328 0.284,-0.659 0.405,-0.999 0.12,-0.336 0.222,-0.679 0.306,-1.029 0.151,-0.615 0.25,-1.245 0.25,-1.882 0,-0.083 -0.003,-0.17 -0.006,-0.253 -0.019,-0.362 -0.075,-0.723 -0.189,-1.07zm-4.623 8.53c-0.074,0.006 -0.149,0.01 -0.22,0.01 -0.099,0 -0.194,-0.007 -0.29,-0.016 -0.044,-0.006 -0.084,-0.009 -0.127,-0.018 -0.04,-0.007 -0.087,-0.013 -0.124,-0.022 -0.074,-0.019 -0.148,-0.046 -0.216,-0.084 -0.139,-0.074 -0.256,-0.185 -0.349,-0.321 -0.093,-0.133 -0.164,-0.287 -0.22,-0.445 -0.052,-0.161 -0.089,-0.331 -0.114,-0.501 -0.025,-0.17 -0.037,-0.343 -0.04,-0.516l0 -0.08c0,-0.325 0.031,-0.646 0.086,-0.964 0.059,-0.343 0.146,-0.686 0.254,-1.02 0.216,-0.671 0.519,-1.314 0.89,-1.913 0.17,-0.272 0.352,-0.535 0.55,-0.785 -0.071,0.259 -0.133,0.525 -0.182,0.788 -0.13,0.708 -0.186,1.428 -0.186,2.145 0,0.717 0.062,1.437 0.179,2.144 0.087,0.529 0.204,1.051 0.356,1.567 -0.08,0.013 -0.164,0.025 -0.247,0.031zm4.419 -5.359c-0.08,0.343 -0.182,0.683 -0.297,1.017 -0.12,0.331 -0.253,0.658 -0.404,0.977 -0.152,0.318 -0.322,0.63 -0.507,0.93 -0.186,0.3 -0.393,0.587 -0.615,0.856 -0.226,0.272 -0.47,0.522 -0.739,0.748 -0.266,0.222 -0.559,0.417 -0.871,0.562 -0.155,0.072 -0.319,0.133 -0.483,0.18 -0.157,-0.507 -0.281,-1.026 -0.37,-1.549 -0.121,-0.695 -0.189,-1.4 -0.195,-2.104l0 -0.118c0,-0.664 0.049,-1.332 0.167,-1.987 0.074,-0.42 0.176,-0.834 0.312,-1.233 0.139,-0.158 0.284,-0.309 0.433,-0.454l0.015 -0.016c0.022,-0.028 0.034,-0.065 0.034,-0.099 0,-0.046 -0.019,-0.093 -0.059,-0.123 -0.027,-0.025 -0.062,-0.034 -0.096,-0.034 -0.012,0 -0.024,0 -0.034,0.003 0.007,-0.016 0.013,-0.034 0.022,-0.05 0.155,-0.312 0.337,-0.612 0.556,-0.881 0.223,-0.265 0.483,-0.503 0.779,-0.673 0.149,-0.087 0.303,-0.158 0.467,-0.207 0.083,-0.025 0.167,-0.047 0.25,-0.062 0.084,-0.016 0.167,-0.025 0.251,-0.028l0.043 0c0.151,0 0.3,0.031 0.442,0.087 0.157,0.061 0.297,0.154 0.42,0.268 0.247,0.232 0.417,0.544 0.526,0.872 0.111,0.328 0.163,0.677 0.182,1.026 0.006,0.096 0.006,0.195 0.006,0.29 0,0.603 -0.093,1.212 -0.235,1.802zm0.108 1.428c-0.012,0.003 -0.012,0.006 -0.021,0.009 -0.003,0 -0.003,0.004 -0.006,0.004 -0.01,0.006 -0.013,0.009 -0.016,0.012l-0.009 0.006 -0.013 0.012 -0.018 0.022c-0.012,0.012 -0.022,0.025 -0.031,0.037 -0.022,0.028 -0.043,0.053 -0.062,0.08 -0.018,0.028 -0.037,0.056 -0.055,0.09 -0.004,0.009 -0.01,0.019 -0.013,0.031 -0.003,0.006 -0.006,0.012 -0.009,0.022 0,0.006 -0.003,0.015 -0.003,0.031l0 0.015c0,0.015 0.003,0.037 0.028,0.062 0.021,0.025 0.052,0.031 0.068,0.034l0.04 0c0.123,0.003 0.247,0.006 0.355,0.031 0.053,0.009 0.102,0.031 0.13,0.055 0.015,0.013 0.025,0.028 0.031,0.044l0.003 0.006 0 0.003 0.003 0.003c0,0.009 -0.003,0.022 -0.003,0.034 -0.009,0.049 -0.028,0.108 -0.049,0.167 -0.019,0.059 -0.041,0.114 -0.065,0.173 -0.044,0.117 -0.093,0.232 -0.139,0.349 -0.047,0.118 -0.093,0.235 -0.136,0.356 -0.044,0.12 -0.084,0.241 -0.112,0.37 -0.006,0.034 -0.009,0.068 -0.012,0.102 0,0.013 -0.003,0.028 -0.003,0.041 0,0.024 0.003,0.049 0.009,0.074 0.006,0.021 0.016,0.043 0.031,0.068 0.019,0.021 0.043,0.04 0.068,0.049 0.022,0.006 0.04,0.009 0.056,0.009 0.027,0 0.052,-0.006 0.074,-0.012 0.037,-0.012 0.068,-0.025 0.102,-0.043 0.031,-0.019 0.059,-0.037 0.083,-0.056 0.053,-0.043 0.102,-0.086 0.149,-0.13 0.185,-0.176 0.349,-0.367 0.51,-0.565 0.318,-0.39 0.612,-0.801 0.88,-1.23l0 -0.006c0,-0.007 -0.003,-0.016 -0.006,-0.019 -0.003,0 -0.006,-0.003 -0.009,-0.003 -0.006,0 -0.012,0.003 -0.016,0.009 -0.281,0.417 -0.59,0.813 -0.917,1.193 -0.167,0.186 -0.337,0.371 -0.52,0.538 -0.046,0.04 -0.092,0.08 -0.142,0.117 -0.021,0.016 -0.046,0.031 -0.071,0.047 -0.021,0.009 -0.049,0.021 -0.074,0.028 -0.016,0.003 -0.028,0.006 -0.037,0.006 -0.009,0 -0.016,-0.003 -0.019,-0.003l-0.006 -0.006c-0.003,-0.004 -0.006,-0.013 -0.009,-0.022 0,-0.009 -0.003,-0.022 -0.003,-0.034 0,-0.013 0.003,-0.025 0.003,-0.037 0.003,-0.028 0.009,-0.059 0.015,-0.087 0.025,-0.114 0.068,-0.232 0.112,-0.349 0.046,-0.114 0.092,-0.229 0.142,-0.346 0.049,-0.114 0.102,-0.229 0.151,-0.346 0.025,-0.059 0.047,-0.118 0.071,-0.18 0.022,-0.061 0.044,-0.12 0.059,-0.191 0.003,-0.019 0.006,-0.04 0.006,-0.062 0,-0.012 0,-0.028 -0.003,-0.043 0,-0.003 -0.003,-0.009 -0.003,-0.013l-0.003 -0.009 -0.006 -0.015c-0.016,-0.04 -0.044,-0.081 -0.074,-0.108 -0.065,-0.062 -0.14,-0.087 -0.208,-0.106 -0.074,-0.018 -0.145,-0.027 -0.213,-0.034 0,0 0.003,-0.003 0.003,-0.006 0.025,-0.024 0.044,-0.049 0.068,-0.086 0.007,-0.01 0.013,-0.019 0.019,-0.037 0.003,-0.01 0.006,-0.019 0.006,-0.034 0,-0.019 0,-0.044 -0.015,-0.068 -0.016,-0.022 -0.037,-0.037 -0.05,-0.044 -0.009,-0.003 -0.012,-0.003 -0.018,-0.006 -0.007,0 -0.013,-0.003 -0.016,-0.003 -0.009,-0.003 -0.015,-0.003 -0.025,-0.003l-0.009 0c0,0 -0.012,0 -0.028,0.003zm2.491 -1.341l0.306 -0.85 0.3 -0.856c0.099,-0.284 0.201,-0.569 0.291,-0.862 0.012,-0.038 0.021,-0.071 0.03,-0.115 0,-0.006 0.004,-0.012 0.004,-0.018l0 -0.034c0,-0.006 0,-0.01 -0.007,-0.025 -0.003,-0.009 -0.031,-0.046 -0.068,-0.046 -0.027,0 -0.04,0.012 -0.046,0.015 -0.009,0.006 -0.009,0.006 -0.012,0.009 -0.013,0.01 -0.016,0.016 -0.019,0.022 -0.015,0.022 -0.025,0.037 -0.034,0.056 -0.037,0.068 -0.074,0.132 -0.108,0.2 -0.071,0.136 -0.139,0.272 -0.201,0.412 -0.127,0.278 -0.241,0.559 -0.346,0.843 -0.105,0.285 -0.204,0.572 -0.297,0.859 -0.185,0.578 -0.349,1.162 -0.491,1.75 -0.071,0.296 -0.139,0.59 -0.195,0.89 -0.015,0.077 -0.028,0.151 -0.04,0.228 -0.006,0.038 -0.009,0.075 -0.015,0.115 0,0.021 -0.004,0.043 -0.004,0.065 0,0.012 0,0.024 0.004,0.043 0,0.006 0,0.009 0.003,0.019 0,0.003 0,0.006 0.003,0.012 0.003,0.006 0.003,0.012 0.009,0.022 0.012,0.015 0.012,0.021 0.04,0.037 0.019,0.009 0.034,0.012 0.05,0.012 0.009,0 0.018,0 0.027,-0.003 0.019,-0.006 0.016,-0.006 0.022,-0.009 0.006,-0.003 0.009,-0.003 0.012,-0.007 0.025,-0.015 0.031,-0.027 0.041,-0.04 0.009,-0.009 0.018,-0.018 0.024,-0.028 0.013,-0.018 0.022,-0.037 0.034,-0.052l0.056 -0.099c0.04,-0.065 0.074,-0.13 0.114,-0.192 0.078,-0.126 0.161,-0.247 0.254,-0.355 0.049,-0.056 0.099,-0.108 0.151,-0.161 0.025,-0.024 0.053,-0.046 0.081,-0.071 0.015,-0.012 0.027,-0.021 0.043,-0.034 0.003,-0.003 0.006,-0.006 0.012,-0.009l0 0.025c0,0.021 0,0.046 -0.003,0.071 -0.003,0.071 -0.012,0.148 -0.018,0.222 -0.007,0.077 -0.013,0.155 -0.013,0.235 0.006,0.077 0.013,0.161 0.059,0.241 0.022,0.037 0.059,0.074 0.102,0.09 0.034,0.015 0.071,0.018 0.102,0.018l0.028 0c0.086,-0.006 0.16,-0.04 0.228,-0.074 0.139,-0.074 0.263,-0.164 0.38,-0.256 0.238,-0.192 0.461,-0.396 0.674,-0.609 0.003,-0.003 0.006,-0.006 0.006,-0.009 0,-0.004 -0.003,-0.007 -0.006,-0.007 0,-0.003 -0.003,-0.006 -0.006,-0.006 -0.003,0 -0.006,0.003 -0.009,0.006 -0.22,0.204 -0.448,0.402 -0.689,0.581 -0.124,0.087 -0.248,0.17 -0.381,0.235 -0.064,0.028 -0.136,0.056 -0.2,0.059 -0.034,0 -0.065,-0.003 -0.093,-0.015 -0.025,-0.013 -0.043,-0.031 -0.059,-0.059 -0.028,-0.043 -0.034,-0.105 -0.034,-0.167l0 -0.031c0,-0.071 0.006,-0.145 0.019,-0.219 0.009,-0.075 0.024,-0.146 0.034,-0.223 0.003,-0.034 0.006,-0.065 0.006,-0.102l0 -0.025c0,-0.012 -0.003,-0.024 -0.006,-0.037 -0.003,-0.015 -0.006,-0.031 -0.022,-0.049 -0.012,-0.022 -0.043,-0.04 -0.068,-0.04l-0.015 0c-0.019,0 -0.031,0.003 -0.044,0.006 -0.027,0.009 -0.046,0.021 -0.068,0.034 -0.015,0.012 -0.031,0.025 -0.046,0.034 -0.034,0.025 -0.065,0.049 -0.093,0.074 -0.062,0.049 -0.12,0.102 -0.173,0.158 -0.111,0.114 -0.207,0.238 -0.293,0.364 -0.013,0.022 -0.025,0.04 -0.034,0.059 0,-0.015 0.003,-0.028 0.006,-0.04 0.046,-0.263 0.102,-0.522 0.164,-0.782l0.537 -1.505zm-0.04 -0.337c0.17,-0.544 0.362,-1.079 0.584,-1.601 -0.021,0.062 -0.043,0.127 -0.065,0.189l-0.578 1.718c-0.074,0.222 -0.148,0.448 -0.225,0.674 0.089,-0.328 0.182,-0.656 0.284,-0.98z"/>
   <path class="fil0" d="M55.72 7.022c-0.003,-0.056 -0.013,-0.112 -0.028,-0.164 -0.009,-0.028 -0.019,-0.053 -0.034,-0.077 -0.009,-0.016 -0.025,-0.031 -0.04,-0.047l0 -0.018c-0.006,-0.053 -0.053,-0.093 -0.105,-0.093l-0.016 0c-0.123,0.016 -0.244,0.059 -0.346,0.13 -0.102,0.071 -0.182,0.164 -0.244,0.266 -0.062,0.099 -0.105,0.21 -0.133,0.324 -0.015,0.071 -0.025,0.145 -0.025,0.22 0,0.043 0.003,0.086 0.01,0.129 0.009,0.062 0.027,0.121 0.065,0.18 0.015,0.027 0.04,0.055 0.071,0.077 0.015,0.012 0.031,0.021 0.049,0.028l0.012 0.006 0.013 0.003 0.021 0.006c0.034,0.009 0.068,0.016 0.106,0.016 0.027,0 0.055,-0.003 0.083,-0.01 0.062,-0.015 0.121,-0.04 0.17,-0.077 0.096,-0.068 0.17,-0.161 0.226,-0.256 0.055,-0.099 0.095,-0.204 0.117,-0.313 0.006,-0.027 0.012,-0.055 0.015,-0.083 0.072,0.028 0.149,0.04 0.223,0.046l0.049 0c0.093,0 0.186,-0.012 0.279,-0.034 0.105,-0.028 0.21,-0.061 0.309,-0.108 0.099,-0.049 0.194,-0.102 0.278,-0.176 0.003,-0.003 0.006,-0.009 0.006,-0.012 0,-0.007 -0.003,-0.013 -0.006,-0.016 -0.003,-0.003 -0.01,-0.006 -0.016,-0.006 -0.003,0 -0.006,0 -0.009,0.003 -0.083,0.065 -0.179,0.118 -0.275,0.158 -0.096,0.04 -0.198,0.074 -0.3,0.096 -0.083,0.018 -0.167,0.03 -0.25,0.03 -0.022,0 -0.04,-0.003 -0.062,-0.003 -0.074,-0.003 -0.148,-0.018 -0.216,-0.049 0.003,-0.037 0.006,-0.071 0.006,-0.108 0,-0.022 0,-0.047 -0.003,-0.068zm-0.102 0.309c-0.031,0.099 -0.071,0.194 -0.13,0.281 -0.053,0.087 -0.124,0.164 -0.204,0.213 -0.053,0.034 -0.114,0.053 -0.173,0.053 -0.028,0 -0.056,-0.003 -0.083,-0.013l-0.016 -0.006 -0.009 -0.003 -0.003 -0.003c-0.01,-0.003 -0.016,-0.006 -0.022,-0.012 -0.012,-0.013 -0.025,-0.025 -0.034,-0.044 -0.018,-0.034 -0.031,-0.08 -0.034,-0.126 -0.003,-0.022 -0.003,-0.047 -0.003,-0.068 0,-0.071 0.012,-0.146 0.031,-0.22 0.028,-0.096 0.071,-0.185 0.123,-0.265 0.056,-0.078 0.124,-0.149 0.201,-0.195 0.044,-0.028 0.093,-0.05 0.143,-0.065 0,0.028 0.003,0.052 0.009,0.08 0.012,0.056 0.04,0.108 0.074,0.152 0.019,0.024 0.034,0.046 0.056,0.065 0.018,0.021 0.04,0.04 0.065,0.058 0.009,0.007 0.021,0.016 0.034,0.022 -0.01,0.031 -0.016,0.065 -0.025,0.096zm0.028 -0.173c-0.037,-0.028 -0.075,-0.065 -0.105,-0.108 -0.028,-0.041 -0.056,-0.084 -0.075,-0.13 -0.009,-0.022 -0.015,-0.047 -0.015,-0.071 0.022,-0.007 0.043,-0.01 0.068,-0.01l0.006 0c0.04,-0.006 0.071,-0.034 0.087,-0.071 0.021,0.028 0.037,0.065 0.046,0.099 0.009,0.037 0.012,0.077 0.012,0.118l0 0.037c0,0.049 -0.006,0.096 -0.015,0.142 -0.003,0 -0.006,-0.003 -0.009,-0.006zm0.976 0.442c-0.015,0.086 -0.031,0.176 -0.043,0.262 -0.015,0.09 -0.028,0.177 -0.034,0.269 -0.003,0.022 -0.003,0.047 -0.003,0.074l0.003 0.013c0,0.003 0,0.009 0.003,0.012l0 0.012c0.003,0.004 0.003,0.007 0.006,0.013 0.006,0.009 0.003,0.009 0.016,0.021 0.009,0.01 0.018,0.019 0.046,0.019l0.019 0c0.031,-0.009 0.027,-0.015 0.037,-0.025 0.003,-0.003 0.006,-0.006 0.009,-0.012 0.003,-0.003 0.006,-0.009 0.006,-0.012 0.003,-0.007 0.006,-0.016 0.009,-0.019 0.016,-0.049 0.025,-0.09 0.038,-0.133 0.024,-0.083 0.049,-0.167 0.077,-0.25 0.052,-0.167 0.114,-0.328 0.198,-0.476 0.043,-0.074 0.089,-0.145 0.148,-0.204 0.056,-0.059 0.124,-0.102 0.195,-0.118 0.024,-0.006 0.046,-0.009 0.071,-0.009 0.012,0 0.024,0.003 0.037,0.003 0.021,0.003 0.031,0.01 0.046,0.016 0.009,0.006 0.019,0.012 0.025,0.021 0.006,0.01 0.009,0.022 0.012,0.037 0.003,0.013 0.003,0.022 0.003,0.034l0 0.016c0,0.034 -0.006,0.074 -0.018,0.114 -0.034,0.13 -0.093,0.26 -0.158,0.387 -0.093,0.068 -0.182,0.142 -0.266,0.225 -0.065,0.065 -0.123,0.133 -0.179,0.21 -0.015,0.019 -0.025,0.04 -0.037,0.059 -0.012,0.022 -0.028,0.04 -0.037,0.062 -0.019,0.043 -0.043,0.086 -0.056,0.133 -0.009,0.021 -0.015,0.043 -0.021,0.071 0,0.006 -0.003,0.012 -0.003,0.021 0,0.007 -0.003,0.016 -0.003,0.025l0 0.016c0.003,0.006 0.003,0.012 0.003,0.018 0,0.006 0.006,0.019 0.009,0.028 0.003,0.006 0.006,0.009 0.009,0.015l0.019 0.019c0.012,0.009 0.027,0.015 0.043,0.019l0.019 0c0.006,0 0.012,0 0.015,-0.004 0.012,0 0.015,-0.003 0.022,-0.006 0.006,0 0.012,-0.003 0.015,-0.006 0.019,-0.009 0.031,-0.018 0.043,-0.025 0.022,-0.018 0.037,-0.034 0.056,-0.052 0.068,-0.068 0.124,-0.139 0.176,-0.213 0.105,-0.146 0.201,-0.297 0.284,-0.458 0.028,-0.052 0.053,-0.105 0.078,-0.157 0.009,-0.007 0.018,-0.016 0.028,-0.022 0.142,-0.099 0.29,-0.189 0.448,-0.269 0.154,-0.08 0.312,-0.151 0.479,-0.213 0.16,-0.062 0.33,-0.115 0.497,-0.161 0.006,-0.003 0.013,-0.009 0.013,-0.015l0 -0.007c0,-0.006 -0.007,-0.012 -0.013,-0.012l-0.006 0c-0.346,0.074 -0.686,0.182 -1.011,0.331 -0.123,0.059 -0.247,0.123 -0.367,0.194 0.021,-0.058 0.037,-0.117 0.049,-0.182 0.006,-0.037 0.012,-0.077 0.012,-0.12l0 -0.028c0,-0.025 -0.006,-0.053 -0.012,-0.081 -0.009,-0.027 -0.022,-0.058 -0.04,-0.083 -0.022,-0.025 -0.049,-0.046 -0.077,-0.059 -0.016,-0.006 -0.028,-0.012 -0.044,-0.012l-0.021 -0.006 -0.019 0c-0.012,-0.003 -0.028,-0.003 -0.04,-0.003 -0.037,0 -0.074,0.006 -0.111,0.015 -0.102,0.028 -0.183,0.09 -0.247,0.158 -0.065,0.068 -0.118,0.142 -0.164,0.222 -0.05,0.081 -0.09,0.167 -0.127,0.254 0.034,-0.152 0.068,-0.3 0.105,-0.448 0.019,-0.09 0.04,-0.177 0.062,-0.263 0.068,-0.099 0.133,-0.198 0.195,-0.297 0.095,-0.151 0.182,-0.303 0.269,-0.46 0.17,-0.309 0.324,-0.628 0.46,-0.955 0.136,-0.328 0.257,-0.662 0.355,-1.005 0.05,-0.17 0.096,-0.343 0.133,-0.516 0.037,-0.176 0.068,-0.352 0.084,-0.535 0.003,-0.046 0.006,-0.089 0.006,-0.136 0,-0.046 -0.003,-0.095 -0.009,-0.142 -0.006,-0.049 -0.013,-0.099 -0.037,-0.154 -0.01,-0.028 -0.025,-0.056 -0.056,-0.084 -0.028,-0.031 -0.074,-0.052 -0.121,-0.052l-0.03 0c-0.01,0.003 -0.028,0.006 -0.038,0.012 -0.021,0.009 -0.037,0.019 -0.052,0.031 -0.025,0.019 -0.043,0.04 -0.059,0.062 -0.034,0.04 -0.059,0.083 -0.08,0.123 -0.047,0.081 -0.084,0.164 -0.121,0.248 -0.139,0.33 -0.247,0.667 -0.352,1.004 -0.21,0.677 -0.396,1.357 -0.556,2.046l-0.059 0.257 -0.059 0.259c-0.037,0.173 -0.071,0.346 -0.108,0.519 -0.034,0.173 -0.065,0.347 -0.096,0.52zm0.362 0.683c0.046,-0.099 0.114,-0.189 0.188,-0.275 -0.037,0.058 -0.074,0.117 -0.114,0.173l-0.074 0.102zm0.161 -2.192c0.173,-0.679 0.346,-1.359 0.547,-2.033 0.052,-0.167 0.105,-0.334 0.16,-0.501 0.056,-0.164 0.112,-0.33 0.18,-0.488 0.03,-0.08 0.068,-0.158 0.105,-0.232 0.018,-0.037 0.04,-0.071 0.061,-0.099 0.013,-0.015 0.022,-0.028 0.031,-0.034 0.003,0.003 0.01,0.013 0.013,0.022 0.012,0.028 0.021,0.065 0.024,0.105 0.007,0.049 0.01,0.102 0.01,0.154 0,0.031 -0.003,0.062 -0.003,0.093 -0.01,0.17 -0.037,0.34 -0.068,0.51 -0.034,0.173 -0.075,0.34 -0.118,0.51 -0.093,0.337 -0.204,0.671 -0.33,0.995 -0.127,0.328 -0.266,0.649 -0.424,0.961 -0.102,0.204 -0.213,0.402 -0.331,0.6 0.003,-0.019 0.01,-0.034 0.013,-0.05l0.13 -0.513zm2.562 0.931c-0.003,-0.056 -0.013,-0.112 -0.028,-0.164 -0.009,-0.028 -0.019,-0.053 -0.034,-0.077 -0.009,-0.016 -0.025,-0.031 -0.04,-0.047l0 -0.018c-0.007,-0.053 -0.053,-0.093 -0.105,-0.093l-0.016 0c-0.123,0.016 -0.244,0.059 -0.346,0.13 -0.102,0.071 -0.182,0.164 -0.244,0.266 -0.062,0.099 -0.105,0.21 -0.133,0.324 -0.016,0.071 -0.025,0.145 -0.025,0.22 0,0.043 0.003,0.086 0.009,0.129 0.01,0.062 0.028,0.121 0.065,0.18 0.016,0.027 0.041,0.055 0.071,0.077 0.016,0.012 0.031,0.021 0.05,0.028l0.012 0.006 0.013 0.003 0.021 0.006c0.034,0.009 0.068,0.016 0.105,0.016 0.028,0 0.056,-0.003 0.084,-0.01 0.062,-0.015 0.12,-0.04 0.17,-0.077 0.096,-0.068 0.17,-0.161 0.225,-0.256 0.056,-0.099 0.096,-0.204 0.118,-0.313 0.006,-0.027 0.012,-0.055 0.015,-0.083 0.071,0.028 0.149,0.04 0.223,0.046l0.049 0c0.093,0 0.186,-0.012 0.278,-0.034 0.105,-0.028 0.211,-0.061 0.309,-0.108 0.099,-0.049 0.195,-0.102 0.279,-0.176 0.003,-0.003 0.006,-0.009 0.006,-0.012 0,-0.007 -0.003,-0.013 -0.006,-0.016 -0.003,-0.003 -0.01,-0.006 -0.016,-0.006 -0.003,0 -0.006,0 -0.009,0.003 -0.084,0.065 -0.179,0.118 -0.275,0.158 -0.096,0.04 -0.198,0.074 -0.3,0.096 -0.083,0.018 -0.167,0.03 -0.25,0.03 -0.022,0 -0.04,-0.003 -0.062,-0.003 -0.074,-0.003 -0.148,-0.018 -0.216,-0.049 0.003,-0.037 0.006,-0.071 0.006,-0.108 0,-0.022 0,-0.047 -0.003,-0.068zm-0.102 0.309c-0.031,0.099 -0.071,0.194 -0.13,0.281 -0.053,0.087 -0.124,0.164 -0.204,0.213 -0.053,0.034 -0.114,0.053 -0.173,0.053 -0.028,0 -0.056,-0.003 -0.084,-0.013l-0.015 -0.006 -0.009 -0.003 -0.003 -0.003c-0.01,-0.003 -0.016,-0.006 -0.022,-0.012 -0.012,-0.013 -0.025,-0.025 -0.034,-0.044 -0.019,-0.034 -0.031,-0.08 -0.034,-0.126 -0.003,-0.022 -0.003,-0.047 -0.003,-0.068 0,-0.071 0.012,-0.146 0.031,-0.22 0.028,-0.096 0.071,-0.185 0.123,-0.265 0.056,-0.078 0.124,-0.149 0.201,-0.195 0.043,-0.028 0.093,-0.05 0.142,-0.065 0,0.028 0.004,0.052 0.01,0.08 0.012,0.056 0.04,0.108 0.074,0.152 0.018,0.024 0.034,0.046 0.056,0.065 0.018,0.021 0.04,0.04 0.064,0.058 0.01,0.007 0.022,0.016 0.034,0.022 -0.009,0.031 -0.015,0.065 -0.024,0.096zm0.027 -0.173c-0.037,-0.028 -0.074,-0.065 -0.105,-0.108 -0.027,-0.041 -0.055,-0.084 -0.074,-0.13 -0.009,-0.022 -0.015,-0.047 -0.015,-0.071 0.021,-0.007 0.043,-0.01 0.068,-0.01l0.006 0c0.04,-0.006 0.071,-0.034 0.086,-0.071 0.022,0.028 0.038,0.065 0.047,0.099 0.009,0.037 0.012,0.077 0.012,0.118l0 0.037c0,0.049 -0.006,0.096 -0.015,0.142 -0.003,0 -0.006,-0.003 -0.01,-0.006zm1.19 -0.532c-0.012,0.003 -0.012,0.006 -0.021,0.009 -0.003,0 -0.003,0.004 -0.006,0.004 -0.01,0.006 -0.013,0.009 -0.016,0.012l-0.009 0.006 -0.013 0.012 -0.018 0.022c-0.012,0.012 -0.022,0.025 -0.031,0.037 -0.022,0.028 -0.043,0.053 -0.062,0.08 -0.018,0.028 -0.037,0.056 -0.055,0.09 -0.004,0.009 -0.01,0.019 -0.013,0.031 -0.003,0.006 -0.006,0.012 -0.009,0.022 0,0.006 -0.003,0.015 -0.003,0.031l0 0.015c0,0.015 0.003,0.037 0.028,0.062 0.021,0.025 0.052,0.031 0.068,0.034l0.04 0c0.123,0.003 0.247,0.006 0.355,0.031 0.053,0.009 0.102,0.031 0.13,0.055 0.015,0.013 0.025,0.028 0.031,0.044l0.003 0.006 0 0.003 0.003 0.003c0,0.009 -0.003,0.022 -0.003,0.034 -0.009,0.049 -0.028,0.108 -0.049,0.167 -0.019,0.059 -0.041,0.114 -0.065,0.173 -0.044,0.117 -0.093,0.232 -0.139,0.349 -0.047,0.118 -0.093,0.235 -0.136,0.356 -0.044,0.12 -0.084,0.241 -0.112,0.37 -0.006,0.034 -0.009,0.068 -0.012,0.102 0,0.013 -0.003,0.028 -0.003,0.041 0,0.024 0.003,0.049 0.009,0.074 0.006,0.021 0.016,0.043 0.031,0.068 0.019,0.021 0.043,0.04 0.068,0.049 0.022,0.006 0.04,0.009 0.056,0.009 0.028,0 0.052,-0.006 0.074,-0.012 0.037,-0.012 0.068,-0.025 0.102,-0.043 0.031,-0.019 0.059,-0.037 0.083,-0.056 0.053,-0.043 0.102,-0.086 0.149,-0.13 0.185,-0.176 0.349,-0.367 0.51,-0.565 0.318,-0.39 0.612,-0.801 0.88,-1.23l0 -0.006c0,-0.007 -0.003,-0.016 -0.006,-0.019 -0.003,0 -0.006,-0.003 -0.009,-0.003 -0.006,0 -0.012,0.003 -0.016,0.009 -0.281,0.417 -0.59,0.813 -0.917,1.193 -0.167,0.186 -0.337,0.371 -0.52,0.538 -0.046,0.04 -0.092,0.08 -0.142,0.117 -0.021,0.016 -0.046,0.031 -0.071,0.047 -0.021,0.009 -0.049,0.021 -0.074,0.028 -0.015,0.003 -0.028,0.006 -0.037,0.006 -0.009,0 -0.016,-0.003 -0.019,-0.003l-0.006 -0.006c-0.003,-0.004 -0.006,-0.013 -0.009,-0.022 0,-0.009 -0.003,-0.022 -0.003,-0.034 0,-0.013 0.003,-0.025 0.003,-0.037 0.003,-0.028 0.009,-0.059 0.015,-0.087 0.025,-0.114 0.068,-0.232 0.112,-0.349 0.046,-0.114 0.092,-0.229 0.142,-0.346 0.049,-0.114 0.102,-0.229 0.151,-0.346 0.025,-0.059 0.047,-0.118 0.071,-0.18 0.022,-0.061 0.044,-0.12 0.059,-0.191 0.003,-0.019 0.006,-0.04 0.006,-0.062 0,-0.012 0,-0.028 -0.003,-0.043 0,-0.003 -0.003,-0.009 -0.003,-0.013l-0.003 -0.009 -0.006 -0.015c-0.016,-0.04 -0.044,-0.081 -0.074,-0.108 -0.065,-0.062 -0.14,-0.087 -0.207,-0.106 -0.075,-0.018 -0.146,-0.027 -0.214,-0.034 0,0 0.003,-0.003 0.003,-0.006 0.025,-0.024 0.044,-0.049 0.068,-0.086 0.007,-0.01 0.013,-0.019 0.019,-0.037 0.003,-0.01 0.006,-0.019 0.006,-0.034 0,-0.019 0,-0.044 -0.015,-0.068 -0.016,-0.022 -0.037,-0.037 -0.05,-0.044 -0.009,-0.003 -0.012,-0.003 -0.018,-0.006 -0.007,0 -0.013,-0.003 -0.016,-0.003 -0.009,-0.003 -0.015,-0.003 -0.025,-0.003l-0.009 0c0,0 -0.012,0 -0.028,0.003z"/>
  </g>
 </g>
</svg>
