<svg width="24" height="24" viewBox="0 0 24 24" fill="none" xmlns="http://www.w3.org/2000/svg">
<path d="M11.8094 5.13282C13.9857 5.13282 14.2435 5.14236 15.0994 5.18054C15.8948 5.21554 16.3243 5.34918 16.6107 5.46054C16.9893 5.6069 17.263 5.78508 17.5462 6.06827C17.8326 6.35462 18.0076 6.62507 18.1539 7.00371C18.2653 7.29006 18.3989 7.72278 18.4339 8.51505C18.4721 9.37414 18.4817 9.63186 18.4817 11.805C18.4817 13.9814 18.4721 14.2391 18.4339 15.095C18.3989 15.8905 18.2653 16.32 18.1539 16.6063C18.0076 16.985 17.8293 17.2586 17.5462 17.5418C17.2598 17.8281 16.9893 18.0031 16.6107 18.1495C16.3243 18.2608 15.8917 18.3944 15.0994 18.4294C14.2403 18.4677 13.9826 18.4772 11.8094 18.4772C9.63309 18.4772 9.37536 18.4677 8.51946 18.4294C7.72402 18.3944 7.29448 18.2608 7.00812 18.1495C6.62949 18.0031 6.35585 17.8249 6.07267 17.5418C5.78631 17.2554 5.61131 16.985 5.46495 16.6063C5.35359 16.32 5.21995 15.8872 5.18495 15.095C5.14678 14.2359 5.13723 13.9781 5.13723 11.805C5.13723 9.62867 5.14678 9.37095 5.18495 8.51505C5.21995 7.71961 5.35359 7.29006 5.46495 7.00371C5.61131 6.62507 5.7895 6.35144 6.07267 6.06827C6.35903 5.7819 6.62949 5.6069 7.00812 5.46054C7.29448 5.34918 7.7272 5.21554 8.51946 5.18054C9.37536 5.14236 9.63309 5.13282 11.8094 5.13282ZM11.8094 3.66602C9.59809 3.66602 9.32128 3.67556 8.45265 3.71374C7.5872 3.75192 6.99221 3.89192 6.47676 4.09238C5.93903 4.30237 5.48404 4.57919 5.03223 5.03418C4.57724 5.486 4.30042 5.94099 4.09042 6.47553C3.88997 6.99416 3.74997 7.58597 3.71178 8.45141C3.67361 9.32323 3.66406 9.60004 3.66406 11.8114C3.66406 14.0227 3.67361 14.2995 3.71178 15.1681C3.74997 16.0336 3.88997 16.6286 4.09042 17.1441C4.30042 17.6818 4.57724 18.1368 5.03223 18.5886C5.48404 19.0404 5.93903 19.3204 6.47358 19.5272C6.99221 19.7277 7.58402 19.8677 8.44946 19.9058C9.31809 19.944 9.59491 19.9535 11.8063 19.9535C14.0176 19.9535 14.2944 19.944 15.163 19.9058C16.0285 19.8677 16.6235 19.7277 17.1389 19.5272C17.6734 19.3204 18.1284 19.0404 18.5803 18.5886C19.0321 18.1368 19.312 17.6818 19.5189 17.1472C19.7193 16.6286 19.8593 16.0368 19.8975 15.1714C19.9357 14.3027 19.9453 14.0259 19.9453 11.8145C19.9453 9.60322 19.9357 9.3264 19.8975 8.45778C19.8593 7.59234 19.7193 6.99734 19.5189 6.4819C19.3184 5.94099 19.0417 5.486 18.5867 5.03418C18.1348 4.58237 17.6798 4.30238 17.1453 4.09555C16.6267 3.89511 16.0348 3.75511 15.1694 3.71692C14.2976 3.67556 14.0207 3.66602 11.8094 3.66602Z" fill="white"/>
<path d="M11.812 7.62695C9.502 7.62695 7.62793 9.50103 7.62793 11.811C7.62793 14.121 9.502 15.9951 11.812 15.9951C14.122 15.9951 15.9961 14.121 15.9961 11.811C15.9961 9.50103 14.122 7.62695 11.812 7.62695ZM11.812 14.5251C10.3134 14.5251 9.09791 13.3096 9.09791 11.811C9.09791 10.3124 10.3134 9.09693 11.812 9.09693C13.3106 9.09693 14.5261 10.3124 14.5261 11.811C14.5261 13.3096 13.3106 14.5251 11.812 14.5251Z" fill="white"/>
<path d="M17.1362 7.46119C17.1362 8.00209 16.6971 8.438 16.1594 8.438C15.6185 8.438 15.1826 7.99891 15.1826 7.46119C15.1826 6.92028 15.6217 6.48438 16.1594 6.48438C16.6971 6.48438 17.1362 6.92347 17.1362 7.46119Z" fill="white"/>
</svg>
