<svg width="24" height="24" viewBox="0 0 24 24" fill="none" xmlns="http://www.w3.org/2000/svg">
<path d="M20.3311 19.3792H17.0721V14.2754C17.0721 13.0582 17.0503 11.4915 15.3771 11.4915C13.6796 11.4915 13.4199 12.8175 13.4199 14.1867V19.3788H10.1608V8.88322H13.2895V10.3175H13.3334C13.9704 9.22834 15.1592 8.57538 16.4203 8.62221C19.7235 8.62221 20.3325 10.7949 20.3325 13.6215L20.3311 19.3792ZM6.48349 7.44851C5.44595 7.44851 4.5918 6.59485 4.5918 5.55731C4.5918 4.51978 5.44556 3.66602 6.48309 3.66602C7.52054 3.66602 8.3742 4.51958 8.37439 5.55692C8.37439 6.59426 7.52083 7.44841 6.48349 7.44851ZM8.11299 19.3792H4.85055V8.88322H8.11299V19.3792Z" fill="white"/>
</svg>
