<svg width="17" height="14" viewBox="0 0 17 14" fill="none" xmlns="http://www.w3.org/2000/svg">
<path d="M5.71588 13.7546C11.8633 13.7546 15.2257 8.66147 15.2257 4.24476C15.2257 4.10011 15.2257 3.9561 15.216 3.81274C15.8701 3.3396 16.4347 2.75376 16.8835 2.08266C16.2735 2.35309 15.6264 2.53036 14.9638 2.60852C15.6616 2.19087 16.1838 1.53387 16.4332 0.759856C15.7771 1.14921 15.0593 1.42359 14.3108 1.57113C13.8069 1.03529 13.1405 0.680467 12.4145 0.561569C11.6886 0.44268 10.9438 0.566347 10.2953 0.91343C9.64666 1.26051 9.13064 1.81167 8.82685 2.48162C8.52314 3.15155 8.4487 3.90292 8.615 4.61945C7.2862 4.55279 5.9862 4.20746 4.79949 3.60585C3.61277 3.00424 2.56583 2.15981 1.72661 1.12737C1.2992 1.86317 1.16829 2.7342 1.36054 3.56312C1.55279 4.39204 2.05374 5.11653 2.76139 5.58906C2.22947 5.5735 1.70913 5.42999 1.2444 5.17073V5.21304C1.24462 5.9848 1.51174 6.73258 2.00048 7.3298C2.48921 7.92693 3.16947 8.33665 3.92586 8.48952C3.43379 8.62369 2.91751 8.64332 2.41668 8.54684C2.63035 9.21091 3.04618 9.79156 3.60604 10.2078C4.1659 10.6239 4.84182 10.8547 5.53929 10.8679C4.84631 11.4127 4.05273 11.8154 3.20396 12.053C2.35518 12.2908 1.46787 12.3588 0.592773 12.2533C2.12127 13.2342 3.89974 13.7544 5.71588 13.752" fill="white"/>
</svg>
