<svg width="24" height="24" viewBox="0 0 24 24" fill="none" xmlns="http://www.w3.org/2000/svg">
<path d="M20.8884 7.55461C20.7032 6.72128 20.055 6.16573 19.2217 5.88795C17.8328 5.51758 11.9995 5.51758 11.9995 5.51758C11.9995 5.51758 6.16616 5.51758 4.77727 5.88795C3.94394 6.07313 3.29579 6.72128 3.1106 7.55461C2.74023 8.9435 2.74023 11.9991 2.74023 11.9991C2.74023 11.9991 2.74023 15.0546 3.1106 16.4435C3.29579 17.2768 3.94394 17.8324 4.77727 18.1102C6.16616 18.4805 11.9995 18.4805 11.9995 18.4805C11.9995 18.4805 17.8328 18.4805 19.2217 18.1102C20.055 17.925 20.6106 17.2768 20.8884 16.4435C21.2588 15.0546 21.2588 11.9991 21.2588 11.9991C21.2588 11.9991 21.2588 8.9435 20.8884 7.55461ZM10.1476 14.7768V9.22128L14.9625 11.9991L10.1476 14.7768Z" fill="white"/>
</svg>
